<svg width="1204" height="646" viewBox="0 0 1204 646" fill="none" xmlns="http://www.w3.org/2000/svg">
<g clip-path="url(#clip0_1335_2168)">
<rect x="2" y="2" width="1200" height="642" rx="8" fill="url(#paint0_linear_1335_2168)" fill-opacity="0.6"/>
<g opacity="0.8" filter="url(#filter0_f_1335_2168)">
<path d="M564 32.14C564 100.096 274.533 77.9986 215.485 123.58C152.641 172.092 203.319 309 105.064 309C-85.5094 309 -240 195.28 -240 55C-240 -85.2803 -85.5094 -199 105.064 -199C295.638 -199 564 -108.14 564 32.14Z" fill="#385366" fill-opacity="0.6"/>
</g>
<g filter="url(#filter1_f_1335_2168)">
<path d="M1192.21 222.972C1045.56 200.516 769.645 88.8616 650.019 35.8413C636.679 26.2249 610 -1.89666 610 -37.4515C610 -73.0063 1031.7 -35.1123 1242.56 -11.721C1286.88 75.8665 1338.86 245.428 1192.21 222.972Z" fill="white" fill-opacity="0.2"/>
</g>
</g>
<rect x="1" y="1" width="1202" height="644" rx="9" stroke="url(#paint1_radial_1335_2168)" stroke-width="2"/>
<defs>
<filter id="filter0_f_1335_2168" x="-440" y="-399" width="1204" height="908" filterUnits="userSpaceOnUse" color-interpolation-filters="sRGB">
<feFlood flood-opacity="0" result="BackgroundImageFix"/>
<feBlend mode="normal" in="SourceGraphic" in2="BackgroundImageFix" result="shape"/>
<feGaussianBlur stdDeviation="100" result="effect1_foregroundBlur_1335_2168"/>
</filter>
<filter id="filter1_f_1335_2168" x="410" y="-252" width="1079" height="677" filterUnits="userSpaceOnUse" color-interpolation-filters="sRGB">
<feFlood flood-opacity="0" result="BackgroundImageFix"/>
<feBlend mode="normal" in="SourceGraphic" in2="BackgroundImageFix" result="shape"/>
<feGaussianBlur stdDeviation="100" result="effect1_foregroundBlur_1335_2168"/>
</filter>
<linearGradient id="paint0_linear_1335_2168" x1="602" y1="2" x2="602" y2="644" gradientUnits="userSpaceOnUse">
<stop offset="0.429354" stop-color="#030303"/>
<stop offset="1" stop-opacity="0"/>
</linearGradient>
<radialGradient id="paint1_radial_1335_2168" cx="0" cy="0" r="1" gradientUnits="userSpaceOnUse" gradientTransform="translate(593.892 2) rotate(89.2764) scale(642.051 1535.37)">
<stop stop-color="white" stop-opacity="0.6"/>
<stop offset="0.177885" stop-color="white" stop-opacity="0.331844"/>
<stop offset="0.860577" stop-color="white" stop-opacity="0"/>
</radialGradient>
<clipPath id="clip0_1335_2168">
<rect x="2" y="2" width="1200" height="642" rx="8" fill="white"/>
</clipPath>
</defs>
</svg>
