<svg width="1385" height="624" viewBox="0 0 1385 624" fill="none" xmlns="http://www.w3.org/2000/svg">
<g clip-path="url(#clip0_1278_1626)">
<g filter="url(#filter0_f_1278_1626)">
<path d="M216 -4.39C216 41.3598 73.0668 26.4833 43.9099 57.17C12.8785 89.8295 37.9024 182 -10.6137 182C-104.715 182 -181 105.441 -181 11C-181 -83.4407 -104.715 -160 -10.6137 -160C83.488 -160 216 -98.8307 216 -4.39Z" fill="#385366" fill-opacity="0.6"/>
</g>
<g filter="url(#filter1_f_1278_1626)">
<path d="M1452.7 180.008C1365.87 157.958 1202.52 48.319 1131.69 -3.74425C1123.8 -13.1871 1108 -40.801 1108 -75.7141C1108 -110.627 1357.67 -73.4172 1482.5 -50.4481C1508.74 35.5584 1539.52 202.059 1452.7 180.008Z" fill="#D5E1FF" fill-opacity="0.2"/>
</g>
</g>
<defs>
<filter id="filter0_f_1278_1626" x="-381" y="-360" width="797" height="742" filterUnits="userSpaceOnUse" color-interpolation-filters="sRGB">
<feFlood flood-opacity="0" result="BackgroundImageFix"/>
<feBlend mode="normal" in="SourceGraphic" in2="BackgroundImageFix" result="shape"/>
<feGaussianBlur stdDeviation="100" result="effect1_foregroundBlur_1278_1626"/>
</filter>
<filter id="filter1_f_1278_1626" x="858" y="-340" width="902" height="772" filterUnits="userSpaceOnUse" color-interpolation-filters="sRGB">
<feFlood flood-opacity="0" result="BackgroundImageFix"/>
<feBlend mode="normal" in="SourceGraphic" in2="BackgroundImageFix" result="shape"/>
<feGaussianBlur stdDeviation="125" result="effect1_foregroundBlur_1278_1626"/>
</filter>
<clipPath id="clip0_1278_1626">
<path d="M0 7.99998C0 3.5817 3.58172 0 8 0H1377C1381.42 0 1385 3.58172 1385 8V624H0V7.99998Z" fill="white"/>
</clipPath>
</defs>
</svg>
