<svg width="1200" height="774" viewBox="0 0 1200 774" fill="none" xmlns="http://www.w3.org/2000/svg">
<g clip-path="url(#clip0_1235_1227)">
<rect width="1200" height="773.06" rx="12" transform="matrix(-1 0 0 1 1200 0)" fill="url(#paint0_radial_1235_1227)"/>
<g filter="url(#filter0_f_1235_1227)">
<path d="M1190.21 178.972C1043.56 156.516 767.645 44.8616 648.019 -8.15866C634.679 -17.7751 608 -45.8967 608 -81.4515C608 -117.006 1029.7 -79.1123 1240.56 -55.721C1284.88 31.8665 1336.86 201.428 1190.21 178.972Z" fill="#A6D5F8" fill-opacity="0.2"/>
</g>
<g opacity="0.6" filter="url(#filter1_f_1235_1227)">
<path d="M-229.179 121.527C-208.988 218.711 -49.2547 118.277 173.123 72.077C395.501 25.8766 999.226 -1.86973 979.036 -99.0544C958.845 -196.239 359.292 -184.295 136.914 -138.095C-85.4644 -91.8944 -249.37 24.3421 -229.179 121.527Z" fill="#000484"/>
</g>
<g filter="url(#filter2_f_1235_1227)">
<path d="M-107.78 55.6423C-100.38 109.898 24.2993 56.2339 190.753 33.5315C357.206 10.8291 801.672 3.45756 794.272 -50.7977C786.872 -105.053 346.666 -106.404 180.212 -83.7018C13.7586 -60.9994 -115.18 1.38707 -107.78 55.6423Z" fill="#1452FC"/>
</g>
</g>
<rect x="-1" y="1" width="1198" height="771.06" rx="11" transform="matrix(-1 0 0 1 1198 0)" stroke="url(#paint1_radial_1235_1227)" stroke-opacity="0.8" stroke-width="2"/>
<rect x="-1" y="1" width="1198" height="771.06" rx="11" transform="matrix(-1 0 0 1 1198 0)" stroke="url(#paint2_radial_1235_1227)" stroke-opacity="0.4" stroke-width="2"/>
<defs>
<filter id="filter0_f_1235_1227" x="408" y="-296" width="1079" height="677" filterUnits="userSpaceOnUse" color-interpolation-filters="sRGB">
<feFlood flood-opacity="0" result="BackgroundImageFix"/>
<feBlend mode="normal" in="SourceGraphic" in2="BackgroundImageFix" result="shape"/>
<feGaussianBlur stdDeviation="100" result="effect1_foregroundBlur_1235_1227"/>
</filter>
<filter id="filter1_f_1235_1227" x="-690.861" y="-632.832" width="2130.39" height="1255.28" filterUnits="userSpaceOnUse" color-interpolation-filters="sRGB">
<feFlood flood-opacity="0" result="BackgroundImageFix"/>
<feBlend mode="normal" in="SourceGraphic" in2="BackgroundImageFix" result="shape"/>
<feGaussianBlur stdDeviation="230" result="effect1_foregroundBlur_1235_1227"/>
</filter>
<filter id="filter2_f_1235_1227" x="-317.549" y="-307.047" width="1321.38" height="595.643" filterUnits="userSpaceOnUse" color-interpolation-filters="sRGB">
<feFlood flood-opacity="0" result="BackgroundImageFix"/>
<feBlend mode="normal" in="SourceGraphic" in2="BackgroundImageFix" result="shape"/>
<feGaussianBlur stdDeviation="104.733" result="effect1_foregroundBlur_1235_1227"/>
</filter>
<radialGradient id="paint0_radial_1235_1227" cx="0" cy="0" r="1" gradientUnits="userSpaceOnUse" gradientTransform="translate(600 -0.180668) rotate(90) scale(773.24 1783.56)">
<stop offset="0.464794" stop-color="#070914"/>
<stop offset="1"/>
</radialGradient>
<radialGradient id="paint1_radial_1235_1227" cx="0" cy="0" r="1" gradientUnits="userSpaceOnUse" gradientTransform="translate(1117 26.8193) rotate(124.714) scale(907.835 828.961)">
<stop offset="0.0791125" stop-color="white" stop-opacity="0.5"/>
<stop offset="0.773664" stop-opacity="0"/>
</radialGradient>
<radialGradient id="paint2_radial_1235_1227" cx="0" cy="0" r="1" gradientUnits="userSpaceOnUse" gradientTransform="translate(591.987 3.71634e-05) rotate(90) scale(545.378 953.293)">
<stop stop-color="white"/>
<stop offset="1" stop-color="#FFFCFC" stop-opacity="0"/>
</radialGradient>
<clipPath id="clip0_1235_1227">
<rect width="1200" height="773.06" rx="12" transform="matrix(-1 0 0 1 1200 0)" fill="white"/>
</clipPath>
</defs>
</svg>
