<svg width="1028" height="689" viewBox="0 0 1028 689" fill="none" xmlns="http://www.w3.org/2000/svg">
<g filter="url(#filter0_f_1342_1625)">
<path d="M867.5 296.5C867.5 335.52 567.378 303.721 542.463 329.851C527.014 346.053 560.827 411.498 566.78 463C641.5 463 841.5 529 510 529C178.5 529 365 470 453.5 463C460.376 411.498 496.232 346.053 480.784 329.851C455.869 303.721 160.5 331.02 160.5 292C160.5 252.98 432.053 274.642 456.968 248.512C483.365 220.827 468.802 160 510 160C551.198 160 535.964 220.827 562.361 248.512C587.276 274.642 867.5 257.48 867.5 296.5Z" fill="#00299C"/>
</g>
<g filter="url(#filter1_f_1342_1625)">
<path d="M778 305.5C778 331.285 550.185 333.174 534.5 350.85C516.758 370.845 610.5 527 510 527C401.5 527 507.242 370.845 489.5 350.85C473.815 333.174 245 331.285 245 305.5C245 279.715 451.13 275.118 466.815 257.442C484.557 237.448 481.566 206 510 206C538.434 206 532.785 242.863 550.527 262.857C566.212 280.533 778 279.715 778 305.5Z" fill="#003EE9"/>
</g>
<defs>
<filter id="filter0_f_1342_1625" x="0.5" y="0" width="1027" height="689" filterUnits="userSpaceOnUse" color-interpolation-filters="sRGB">
<feFlood flood-opacity="0" result="BackgroundImageFix"/>
<feBlend mode="normal" in="SourceGraphic" in2="BackgroundImageFix" result="shape"/>
<feGaussianBlur stdDeviation="80" result="effect1_foregroundBlur_1342_1625"/>
</filter>
<filter id="filter1_f_1342_1625" x="145" y="106" width="733" height="521" filterUnits="userSpaceOnUse" color-interpolation-filters="sRGB">
<feFlood flood-opacity="0" result="BackgroundImageFix"/>
<feBlend mode="normal" in="SourceGraphic" in2="BackgroundImageFix" result="shape"/>
<feGaussianBlur stdDeviation="50" result="effect1_foregroundBlur_1342_1625"/>
</filter>
</defs>
</svg>
