<svg width="1367" height="824" viewBox="0 0 1367 824" fill="none" xmlns="http://www.w3.org/2000/svg">
<g clip-path="url(#clip0_1271_1315)">
<g filter="url(#filter0_f_1271_1315)">
<path d="M332.585 686.107L818.137 627.227L330.727 449.38L898.615 501.237L1520.03 602.118L1261.61 799.554L1176.82 889.567L514.252 1063.2L733.149 936.416L885.176 870.585L429.968 878.244L1272.37 739.979L332.585 686.107Z" fill="#003EE9" fill-opacity="0.3"/>
</g>
<g filter="url(#filter1_f_1271_1315)">
<path d="M414.51 699.189L810.73 651.439L316.645 431.485L920.37 606.502L1507.06 584.341L1172.74 792.23L933.28 928.991L479.619 1035.18L680.982 885.203L494.09 855.946L1186.51 739.718L903.267 696.438L414.51 699.189Z" fill="#003EE9" fill-opacity="0.5"/>
</g>
<g filter="url(#filter2_f_1271_1315)">
<path d="M462.322 709.553L839.81 664.277L407.498 495.453L902.268 566.498L1502.83 566.809L1263.71 870.932L956.712 928.657L891.787 974.483L519.737 1029.43L892.164 853.353L538.223 858.875L957.151 806.207L1107.45 748.162L1044.36 669.682L462.322 709.553Z" fill="#1452FC" fill-opacity="0.5"/>
</g>
</g>
<defs>
<filter id="filter0_f_1271_1315" x="-69.2725" y="49.3799" width="1989.3" height="1413.82" filterUnits="userSpaceOnUse" color-interpolation-filters="sRGB">
<feFlood flood-opacity="0" result="BackgroundImageFix"/>
<feBlend mode="normal" in="SourceGraphic" in2="BackgroundImageFix" result="shape"/>
<feGaussianBlur stdDeviation="200" result="effect1_foregroundBlur_1271_1315"/>
</filter>
<filter id="filter1_f_1271_1315" x="16.6445" y="131.484" width="1790.42" height="1203.69" filterUnits="userSpaceOnUse" color-interpolation-filters="sRGB">
<feFlood flood-opacity="0" result="BackgroundImageFix"/>
<feBlend mode="normal" in="SourceGraphic" in2="BackgroundImageFix" result="shape"/>
<feGaussianBlur stdDeviation="150" result="effect1_foregroundBlur_1271_1315"/>
</filter>
<filter id="filter2_f_1271_1315" x="207.498" y="295.452" width="1495.34" height="933.98" filterUnits="userSpaceOnUse" color-interpolation-filters="sRGB">
<feFlood flood-opacity="0" result="BackgroundImageFix"/>
<feBlend mode="normal" in="SourceGraphic" in2="BackgroundImageFix" result="shape"/>
<feGaussianBlur stdDeviation="100" result="effect1_foregroundBlur_1271_1315"/>
</filter>
<clipPath id="clip0_1271_1315">
<rect width="1367" height="824" fill="white"/>
</clipPath>
</defs>
</svg>
