<svg width="1200" height="263" viewBox="0 0 1200 263" fill="none" xmlns="http://www.w3.org/2000/svg">
<g clip-path="url(#clip0_4_161)">
<mask id="mask0_4_161" style="mask-type:alpha" maskUnits="userSpaceOnUse" x="0" y="0" width="1200" height="263">
<path d="M1200 0H0V263H1200V0Z" fill="url(#paint0_radial_4_161)"/>
<path d="M1200 0H0V263H1200V0Z" fill="url(#paint1_linear_4_161)"/>
</mask>
<g mask="url(#mask0_4_161)">
<g opacity="0.6">
<path d="M278.53 0C298.124 0 313.986 15.8232 313.986 35.4131V227.605C313.986 247.157 298.143 263.02 278.53 263.02H243.075V263H227.797C220.158 263 212.635 259.544 207.697 253.079C207.503 252.846 207.328 252.613 207.153 252.36C206.881 251.991 206.629 251.603 206.396 251.215L206.337 251.138L156.945 180.666L107.047 251.816L106.871 252.069C105.102 252.593 103.217 252.865 101.293 252.865C90.1161 252.865 81.0383 243.798 81.0381 232.635V212.753L115.521 163.574L115.58 163.496C115.813 163.108 116.066 162.719 116.338 162.351C116.513 162.098 116.688 161.866 116.882 161.633C121.819 155.168 129.342 151.711 136.981 151.711H177.219L177.238 151.73L177.227 151.746C184.965 151.858 192.547 155.528 197.376 162.215L197.843 162.895L243.075 227.403V30.3457C243.075 24.2495 241.287 18.5605 238.177 13.8232C235.047 9.0084 230.596 5.16428 225.328 2.75684H225.348V0H278.53ZM86.1504 0C93.77 1.37633e-05 101.312 3.43641 106.288 9.9209C106.482 10.1539 106.658 10.3872 106.833 10.6396C107.105 11.0085 107.358 11.3969 107.591 11.7852L107.649 11.8623L157.04 82.333L206.939 11.1836L207.114 10.9307C208.883 10.4065 210.769 10.1348 212.693 10.1348C223.87 10.1348 232.948 19.2016 232.948 30.3652V50.2471L198.465 99.4258L198.406 99.5039C198.173 99.8921 197.921 100.281 197.648 100.649C197.474 100.902 197.298 101.134 197.104 101.367C192.166 107.832 184.644 111.289 177.005 111.289H136.768L136.748 111.27L136.758 111.254C129.006 111.153 121.408 107.483 116.571 100.785L116.104 100.105L70.9307 35.6787V232.654C70.9308 238.751 72.7191 244.44 75.8291 249.177C78.9586 253.991 83.4102 257.836 88.6777 260.243H88.6387V263H35.4551C15.8617 263 0.000255342 247.177 0 227.587V35.3945C0.0194381 15.8434 15.8616 0.000139699 35.4746 0H86.1504ZM1107.47 75.293C1131.32 75.293 1151.04 85.4667 1164.39 102.3V79.1172H1200V241.1H1164.39V217.918C1151.04 234.751 1131.32 244.925 1107.47 244.925C1061.68 244.925 1027.66 208.404 1027.66 160.118V160.099C1027.66 111.813 1061.68 75.2931 1107.47 75.293ZM751.91 75.293C801.516 75.2931 838.721 111.813 838.721 160.099C838.721 208.384 801.205 244.905 751.91 244.905C702.615 244.905 665.099 208.385 665.099 160.099C665.099 111.813 702.304 75.293 751.91 75.293ZM904.286 79.1172H944.349V111.521H904.286V185.533C904.286 199.823 913.189 208.404 928.137 208.404H944.349V241.119H923.044C887.744 241.119 868.656 223.335 868.656 191.261L868.676 191.222V111.502H841.326V79.0977H857.868C866.129 79.0975 870.58 74.6518 870.58 66.4004V35.2773H904.286V79.1172ZM520.983 146.12L593.178 21.9199H639.926V241.08H602.08V76.8652L531.48 198.832H509.865L439.576 76.8652V241.08H401.73V21.9199H448.79L520.983 146.12ZM1005.89 241.08H970.279V79.0977H1005.89V241.08ZM751.93 109.6C723.317 109.6 701.682 131.519 701.682 160.099C701.682 188.678 723.297 210.598 751.93 210.598C780.562 210.597 801.847 188.678 801.847 160.099C801.847 131.519 780.543 109.6 751.93 109.6ZM1114.49 109.6C1085.88 109.6 1064.24 131.519 1064.24 160.099C1064.24 188.678 1085.55 210.598 1114.49 210.598C1143.43 210.598 1164.41 188.678 1164.41 160.099C1164.41 131.519 1143.1 109.6 1114.49 109.6ZM988.084 7.94043C1000.82 7.94043 1010.98 17.4743 1010.98 30.502C1010.98 43.5294 1001.13 53.0625 988.084 53.0625C975.041 53.0623 965.497 43.2186 965.497 30.502C965.497 17.4744 975.352 7.94063 988.084 7.94043Z" fill="url(#paint2_linear_4_161)" fill-opacity="0.7"/>
<path d="M278.53 0C298.124 0 313.986 15.8232 313.986 35.4131V227.605C313.986 247.157 298.143 263.02 278.53 263.02H243.075V263H227.797C220.158 263 212.635 259.544 207.697 253.079C207.503 252.846 207.328 252.613 207.153 252.36C206.881 251.991 206.629 251.603 206.396 251.215L206.337 251.138L156.945 180.666L107.047 251.816L106.871 252.069C105.102 252.593 103.217 252.865 101.293 252.865C90.1161 252.865 81.0383 243.798 81.0381 232.635V212.753L115.521 163.574L115.58 163.496C115.813 163.108 116.066 162.719 116.338 162.351C116.513 162.098 116.688 161.866 116.882 161.633C121.819 155.168 129.342 151.711 136.981 151.711H177.219L177.238 151.73L177.227 151.746C184.965 151.858 192.547 155.528 197.376 162.215L197.843 162.895L243.075 227.403V30.3457C243.075 24.2495 241.287 18.5605 238.177 13.8232C235.047 9.0084 230.596 5.16428 225.328 2.75684H225.348V0H278.53ZM86.1504 0C93.77 1.37633e-05 101.312 3.43641 106.288 9.9209C106.482 10.1539 106.658 10.3872 106.833 10.6396C107.105 11.0085 107.358 11.3969 107.591 11.7852L107.649 11.8623L157.04 82.333L206.939 11.1836L207.114 10.9307C208.883 10.4065 210.769 10.1348 212.693 10.1348C223.87 10.1348 232.948 19.2016 232.948 30.3652V50.2471L198.465 99.4258L198.406 99.5039C198.173 99.8921 197.921 100.281 197.648 100.649C197.474 100.902 197.298 101.134 197.104 101.367C192.166 107.832 184.644 111.289 177.005 111.289H136.768L136.748 111.27L136.758 111.254C129.006 111.153 121.408 107.483 116.571 100.785L116.104 100.105L70.9307 35.6787V232.654C70.9308 238.751 72.7191 244.44 75.8291 249.177C78.9586 253.991 83.4102 257.836 88.6777 260.243H88.6387V263H35.4551C15.8617 263 0.000255342 247.177 0 227.587V35.3945C0.0194381 15.8434 15.8616 0.000139699 35.4746 0H86.1504ZM1107.47 75.293C1131.32 75.293 1151.04 85.4667 1164.39 102.3V79.1172H1200V241.1H1164.39V217.918C1151.04 234.751 1131.32 244.925 1107.47 244.925C1061.68 244.925 1027.66 208.404 1027.66 160.118V160.099C1027.66 111.813 1061.68 75.2931 1107.47 75.293ZM751.91 75.293C801.516 75.2931 838.721 111.813 838.721 160.099C838.721 208.384 801.205 244.905 751.91 244.905C702.615 244.905 665.099 208.385 665.099 160.099C665.099 111.813 702.304 75.293 751.91 75.293ZM904.286 79.1172H944.349V111.521H904.286V185.533C904.286 199.823 913.189 208.404 928.137 208.404H944.349V241.119H923.044C887.744 241.119 868.656 223.335 868.656 191.261L868.676 191.222V111.502H841.326V79.0977H857.868C866.129 79.0975 870.58 74.6518 870.58 66.4004V35.2773H904.286V79.1172ZM520.983 146.12L593.178 21.9199H639.926V241.08H602.08V76.8652L531.48 198.832H509.865L439.576 76.8652V241.08H401.73V21.9199H448.79L520.983 146.12ZM1005.89 241.08H970.279V79.0977H1005.89V241.08ZM751.93 109.6C723.317 109.6 701.682 131.519 701.682 160.099C701.682 188.678 723.297 210.598 751.93 210.598C780.562 210.597 801.847 188.678 801.847 160.099C801.847 131.519 780.543 109.6 751.93 109.6ZM1114.49 109.6C1085.88 109.6 1064.24 131.519 1064.24 160.099C1064.24 188.678 1085.55 210.598 1114.49 210.598C1143.43 210.598 1164.41 188.678 1164.41 160.099C1164.41 131.519 1143.1 109.6 1114.49 109.6ZM988.084 7.94043C1000.82 7.94043 1010.98 17.4743 1010.98 30.502C1010.98 43.5294 1001.13 53.0625 988.084 53.0625C975.041 53.0623 965.497 43.2186 965.497 30.502C965.497 17.4744 975.352 7.94063 988.084 7.94043Z" fill="url(#paint3_radial_4_161)"/>
<mask id="mask1_4_161" style="mask-type:luminance" maskUnits="userSpaceOnUse" x="0" y="0" width="1200" height="264">
<g opacity="0.6">
<path d="M278.53 0C298.124 0 313.986 15.8232 313.986 35.4131V227.605C313.986 247.157 298.143 263.02 278.53 263.02H243.075V263H227.797C220.158 263 212.635 259.544 207.697 253.079C207.503 252.846 207.328 252.613 207.153 252.36C206.881 251.991 206.629 251.603 206.396 251.215L206.337 251.138L156.945 180.666L107.047 251.816L106.871 252.069C105.102 252.593 103.217 252.865 101.293 252.865C90.1161 252.865 81.0383 243.798 81.0381 232.635V212.753L115.521 163.574L115.58 163.496C115.813 163.108 116.066 162.719 116.338 162.351C116.513 162.098 116.688 161.866 116.882 161.633C121.819 155.168 129.342 151.711 136.981 151.711H177.219L177.238 151.73L177.227 151.746C184.965 151.858 192.547 155.528 197.376 162.215L197.843 162.895L243.075 227.403V30.3457C243.075 24.2495 241.287 18.5605 238.177 13.8232C235.047 9.0084 230.596 5.16428 225.328 2.75684H225.348V0H278.53ZM86.1504 0C93.77 1.37633e-05 101.312 3.43641 106.288 9.9209C106.482 10.1539 106.658 10.3872 106.833 10.6396C107.105 11.0085 107.358 11.3969 107.591 11.7852L107.649 11.8623L157.04 82.333L206.939 11.1836L207.114 10.9307C208.883 10.4065 210.769 10.1348 212.693 10.1348C223.87 10.1348 232.948 19.2016 232.948 30.3652V50.2471L198.465 99.4258L198.406 99.5039C198.173 99.8921 197.921 100.281 197.648 100.649C197.474 100.902 197.298 101.134 197.104 101.367C192.166 107.832 184.644 111.289 177.005 111.289H136.768L136.748 111.27L136.758 111.254C129.006 111.153 121.408 107.483 116.571 100.785L116.104 100.105L70.9307 35.6787V232.654C70.9308 238.751 72.7191 244.44 75.8291 249.177C78.9586 253.991 83.4102 257.836 88.6777 260.243H88.6387V263H35.4551C15.8617 263 0.000255342 247.177 0 227.587V35.3945C0.0194381 15.8434 15.8616 0.000139699 35.4746 0H86.1504ZM1107.47 75.293C1131.32 75.293 1151.04 85.4667 1164.39 102.3V79.1172H1200V241.1H1164.39V217.918C1151.04 234.751 1131.32 244.925 1107.47 244.925C1061.68 244.925 1027.66 208.404 1027.66 160.118V160.099C1027.66 111.813 1061.68 75.2931 1107.47 75.293ZM751.91 75.293C801.516 75.2931 838.721 111.813 838.721 160.099C838.721 208.384 801.205 244.905 751.91 244.905C702.615 244.905 665.099 208.385 665.099 160.099C665.099 111.813 702.304 75.293 751.91 75.293ZM904.286 79.1172H944.349V111.521H904.286V185.533C904.286 199.823 913.189 208.404 928.137 208.404H944.349V241.119H923.044C887.744 241.119 868.656 223.335 868.656 191.261L868.676 191.222V111.502H841.326V79.0977H857.868C866.129 79.0975 870.58 74.6518 870.58 66.4004V35.2773H904.286V79.1172ZM520.983 146.12L593.178 21.9199H639.926V241.08H602.08V76.8652L531.48 198.832H509.865L439.576 76.8652V241.08H401.73V21.9199H448.79L520.983 146.12ZM1005.89 241.08H970.279V79.0977H1005.89V241.08ZM751.93 109.6C723.317 109.6 701.682 131.519 701.682 160.099C701.682 188.678 723.297 210.598 751.93 210.598C780.562 210.597 801.847 188.678 801.847 160.099C801.847 131.519 780.543 109.6 751.93 109.6ZM1114.49 109.6C1085.88 109.6 1064.24 131.519 1064.24 160.099C1064.24 188.678 1085.55 210.598 1114.49 210.598C1143.43 210.598 1164.41 188.678 1164.41 160.099C1164.41 131.519 1143.1 109.6 1114.49 109.6ZM988.084 7.94043C1000.82 7.94043 1010.98 17.4743 1010.98 30.502C1010.98 43.5294 1001.13 53.0625 988.084 53.0625C975.041 53.0623 965.497 43.2186 965.497 30.502C965.497 17.4744 975.352 7.94063 988.084 7.94043Z" fill="white"/>
</g>
</mask>
<g mask="url(#mask1_4_161)">
<path d="M278.53 0C298.124 0 313.986 15.8232 313.986 35.4131V227.605C313.986 247.157 298.143 263.02 278.53 263.02H243.075V263H227.797C220.158 263 212.635 259.544 207.697 253.079C207.503 252.846 207.328 252.613 207.153 252.36C206.881 251.991 206.629 251.603 206.396 251.215L206.337 251.138L156.945 180.666L107.047 251.816L106.871 252.069C105.102 252.593 103.217 252.865 101.293 252.865C90.1161 252.865 81.0383 243.798 81.0381 232.635V212.753L115.521 163.574L115.58 163.496C115.813 163.108 116.066 162.719 116.338 162.351C116.513 162.098 116.688 161.866 116.882 161.633C121.819 155.168 129.342 151.711 136.981 151.711H177.219L177.238 151.73L177.227 151.746C184.965 151.858 192.547 155.528 197.376 162.215L197.843 162.895L243.075 227.403V30.3457C243.075 24.2495 241.287 18.5605 238.177 13.8232C235.047 9.0084 230.596 5.16428 225.328 2.75684H225.348V0H278.53ZM86.1504 0C93.77 1.37633e-05 101.312 3.43641 106.288 9.9209C106.482 10.1539 106.658 10.3872 106.833 10.6396C107.105 11.0085 107.358 11.3969 107.591 11.7852L107.649 11.8623L157.04 82.333L206.939 11.1836L207.114 10.9307C208.883 10.4065 210.769 10.1348 212.693 10.1348C223.87 10.1348 232.948 19.2016 232.948 30.3652V50.2471L198.465 99.4258L198.406 99.5039C198.173 99.8921 197.921 100.281 197.648 100.649C197.474 100.902 197.298 101.134 197.104 101.367C192.166 107.832 184.644 111.289 177.005 111.289H136.768L136.748 111.27L136.758 111.254C129.006 111.153 121.408 107.483 116.571 100.785L116.104 100.105L70.9307 35.6787V232.654C70.9308 238.751 72.7191 244.44 75.8291 249.177C78.9586 253.991 83.4102 257.836 88.6777 260.243H88.6387V263H35.4551C15.8617 263 0.000255342 247.177 0 227.587V35.3945C0.0194381 15.8434 15.8616 0.000139699 35.4746 0H86.1504ZM1107.47 75.293C1131.32 75.293 1151.04 85.4667 1164.39 102.3V79.1172H1200V241.1H1164.39V217.918C1151.04 234.751 1131.32 244.925 1107.47 244.925C1061.68 244.925 1027.66 208.404 1027.66 160.118V160.099C1027.66 111.813 1061.68 75.2931 1107.47 75.293ZM751.91 75.293C801.516 75.2931 838.721 111.813 838.721 160.099C838.721 208.384 801.205 244.905 751.91 244.905C702.615 244.905 665.099 208.385 665.099 160.099C665.099 111.813 702.304 75.293 751.91 75.293ZM904.286 79.1172H944.349V111.521H904.286V185.533C904.286 199.823 913.189 208.404 928.137 208.404H944.349V241.119H923.044C887.744 241.119 868.656 223.335 868.656 191.261L868.676 191.222V111.502H841.326V79.0977H857.868C866.129 79.0975 870.58 74.6518 870.58 66.4004V35.2773H904.286V79.1172ZM520.983 146.12L593.178 21.9199H639.926V241.08H602.08V76.8652L531.48 198.832H509.865L439.576 76.8652V241.08H401.73V21.9199H448.79L520.983 146.12ZM1005.89 241.08H970.279V79.0977H1005.89V241.08ZM751.93 109.6C723.317 109.6 701.682 131.519 701.682 160.099C701.682 188.678 723.297 210.598 751.93 210.598C780.562 210.597 801.847 188.678 801.847 160.099C801.847 131.519 780.543 109.6 751.93 109.6ZM1114.49 109.6C1085.88 109.6 1064.24 131.519 1064.24 160.099C1064.24 188.678 1085.55 210.598 1114.49 210.598C1143.43 210.598 1164.41 188.678 1164.41 160.099C1164.41 131.519 1143.1 109.6 1114.49 109.6ZM988.084 7.94043C1000.82 7.94043 1010.98 17.4743 1010.98 30.502C1010.98 43.5294 1001.13 53.0625 988.084 53.0625C975.041 53.0623 965.497 43.2186 965.497 30.502C965.497 17.4744 975.352 7.94063 988.084 7.94043Z" fill="url(#paint4_linear_4_161)"/>
</g>
</g>
<path d="M8.71999 200.08C8.71999 199.339 8.81199 198.672 8.99599 198.08C9.18799 197.477 9.51999 196.904 9.99199 196.361C10.472 195.818 11.136 195.269 11.984 194.716C12.376 194.459 12.692 194.222 12.932 194.005C13.172 193.788 13.348 193.555 13.46 193.309C13.572 193.062 13.628 192.76 13.628 192.405C13.628 192.039 13.564 191.723 13.436 191.456C13.308 191.18 13.116 190.963 12.86 190.804C12.612 190.646 12.3 190.567 11.924 190.567C11.324 190.567 10.848 190.76 10.496 191.145C10.152 191.53 9.93599 192.079 9.84799 192.79L8.76799 192.701C8.86399 191.674 9.18399 190.854 9.72799 190.241C10.272 189.629 11.004 189.323 11.924 189.323C12.508 189.323 13.008 189.451 13.424 189.708C13.84 189.965 14.156 190.325 14.372 190.79C14.596 191.244 14.708 191.772 14.708 192.375C14.708 192.908 14.636 193.373 14.492 193.768C14.348 194.153 14.104 194.514 13.76 194.849C13.424 195.185 12.96 195.546 12.368 195.931C11.6 196.435 11.016 196.944 10.616 197.457C10.224 197.971 10.016 198.43 9.99199 198.835H14.708V200.08H8.71999ZM19.6445 200.317C18.9565 200.317 18.3605 200.095 17.8565 199.65C17.3525 199.206 16.9605 198.573 16.6805 197.754C16.4085 196.934 16.2725 195.961 16.2725 194.835C16.2725 193.709 16.4085 192.736 16.6805 191.916C16.9605 191.086 17.3525 190.449 17.8565 190.004C18.3605 189.55 18.9565 189.323 19.6445 189.323C20.3405 189.323 20.9405 189.55 21.4445 190.004C21.9485 190.449 22.3365 191.081 22.6085 191.901C22.8885 192.721 23.0285 193.699 23.0285 194.835C23.0285 195.961 22.8885 196.934 22.6085 197.754C22.3365 198.573 21.9485 199.206 21.4445 199.65C20.9405 200.095 20.3405 200.317 19.6445 200.317ZM19.6445 199.072C20.3805 199.072 20.9485 198.707 21.3485 197.976C21.7485 197.235 21.9485 196.188 21.9485 194.835C21.9485 193.926 21.8565 193.155 21.6725 192.523C21.4965 191.881 21.2365 191.397 20.8925 191.071C20.5565 190.735 20.1405 190.567 19.6445 190.567C19.1565 190.567 18.7405 190.735 18.3965 191.071C18.0605 191.397 17.8005 191.881 17.6165 192.523C17.4405 193.155 17.3525 193.926 17.3525 194.835C17.3525 196.188 17.5525 197.235 17.9525 197.976C18.3525 198.707 18.9165 199.072 19.6445 199.072ZM24.5923 200.08C24.5923 199.339 24.6843 198.672 24.8683 198.08C25.0603 197.477 25.3923 196.904 25.8643 196.361C26.3443 195.818 27.0083 195.269 27.8563 194.716C28.2483 194.459 28.5643 194.222 28.8043 194.005C29.0443 193.788 29.2203 193.555 29.3323 193.309C29.4443 193.062 29.5003 192.76 29.5003 192.405C29.5003 192.039 29.4363 191.723 29.3083 191.456C29.1803 191.18 28.9883 190.963 28.7323 190.804C28.4843 190.646 28.1723 190.567 27.7963 190.567C27.1963 190.567 26.7203 190.76 26.3683 191.145C26.0243 191.53 25.8083 192.079 25.7203 192.79L24.6403 192.701C24.7363 191.674 25.0563 190.854 25.6003 190.241C26.1443 189.629 26.8763 189.323 27.7963 189.323C28.3803 189.323 28.8803 189.451 29.2963 189.708C29.7123 189.965 30.0283 190.325 30.2443 190.79C30.4683 191.244 30.5803 191.772 30.5803 192.375C30.5803 192.908 30.5083 193.373 30.3643 193.768C30.2203 194.153 29.9763 194.514 29.6323 194.849C29.2963 195.185 28.8323 195.546 28.2403 195.931C27.4723 196.435 26.8883 196.944 26.4883 197.457C26.0963 197.971 25.8883 198.43 25.8643 198.835H30.5803V200.08H24.5923ZM35.406 200.317C34.806 200.317 34.286 200.193 33.846 199.946C33.414 199.7 33.07 199.354 32.814 198.909C32.566 198.465 32.422 197.951 32.382 197.368L33.462 197.279C33.526 197.872 33.73 198.322 34.074 198.628C34.426 198.924 34.87 199.072 35.406 199.072C36.006 199.072 36.482 198.865 36.834 198.45C37.186 198.025 37.362 197.442 37.362 196.702C37.362 196.208 37.282 195.783 37.122 195.427C36.97 195.062 36.746 194.78 36.45 194.583C36.154 194.385 35.798 194.286 35.382 194.286C34.99 194.286 34.634 194.39 34.314 194.598C33.994 194.805 33.766 195.096 33.63 195.472H32.526L33.09 189.56H37.866V190.804H34.038L33.654 194.686L33.462 194.449C33.59 194.143 33.758 193.891 33.966 193.694C34.182 193.486 34.426 193.333 34.698 193.234C34.978 193.126 35.27 193.071 35.574 193.071C36.142 193.071 36.642 193.229 37.074 193.546C37.506 193.852 37.842 194.281 38.082 194.835C38.322 195.378 38.442 196 38.442 196.702C38.442 197.403 38.314 198.03 38.058 198.583C37.802 199.127 37.446 199.551 36.99 199.858C36.534 200.164 36.006 200.317 35.406 200.317ZM40.0618 200.08V198.406H41.4178V200.08H40.0618ZM8.23999 216.131L11.312 205.611H12.704L15.776 216.131H14.648L13.796 213.138H10.22L9.36799 216.131H8.23999ZM10.568 211.894H13.448L12.008 206.723L10.568 211.894ZM18.3492 216.131C17.9812 216.131 17.6812 216.013 17.4492 215.776C17.2172 215.539 17.1012 215.163 17.1012 214.65V205.611H18.1092V214.546C18.1092 214.704 18.1412 214.828 18.2052 214.916C18.2772 214.996 18.3772 215.035 18.5052 215.035H19.0572V216.131H18.3492ZM21.7913 216.131C21.4233 216.131 21.1233 216.013 20.8913 215.776C20.6593 215.539 20.5433 215.163 20.5433 214.65V205.611H21.5513V214.546C21.5513 214.704 21.5833 214.828 21.6473 214.916C21.7193 214.996 21.8193 215.035 21.9473 215.035H22.4993V216.131H21.7913ZM27.6065 216.131V205.611H30.8345C31.4345 205.611 31.9505 205.74 32.3825 205.997C32.8145 206.254 33.1465 206.624 33.3785 207.108C33.6185 207.582 33.7385 208.145 33.7385 208.797C33.7385 209.271 33.6465 209.696 33.4625 210.071C33.2865 210.437 33.0585 210.728 32.7785 210.946C32.4985 211.163 32.2065 211.281 31.9025 211.301L31.8305 211.168C32.3505 211.168 32.7585 211.316 33.0545 211.612C33.3585 211.909 33.5345 212.383 33.5825 213.035L33.8225 216.131H32.7785L32.5625 213.168C32.5305 212.733 32.4025 212.412 32.1785 212.205C31.9625 211.998 31.6065 211.894 31.1105 211.894H28.6385V216.131H27.6065ZM28.6385 210.649H30.9665C31.4865 210.649 31.8985 210.486 32.2025 210.16C32.5065 209.834 32.6585 209.37 32.6585 208.767C32.6585 208.155 32.5025 207.686 32.1905 207.36C31.8785 207.024 31.4265 206.856 30.8345 206.856H28.6385V210.649ZM35.885 216.131V208.279H36.893V216.131H35.885ZM35.861 207.049V205.597H36.917V207.049H35.861ZM41.4695 218.532C41.0135 218.532 40.6015 218.438 40.2335 218.25C39.8655 218.063 39.5575 217.796 39.3095 217.45C39.0615 217.104 38.8935 216.704 38.8055 216.25L39.8615 216.161C39.9575 216.527 40.1255 216.813 40.3655 217.02C40.6135 217.238 40.9815 217.346 41.4695 217.346C42.0455 217.346 42.4855 217.203 42.7895 216.917C43.1015 216.63 43.2575 216.201 43.2575 215.628V214.353C43.1055 214.768 42.8615 215.099 42.5255 215.346C42.1895 215.593 41.8135 215.717 41.3975 215.717C40.8615 215.717 40.3815 215.554 39.9575 215.228C39.5415 214.902 39.2135 214.452 38.9735 213.879C38.7415 213.306 38.6255 212.65 38.6255 211.909C38.6255 211.158 38.7415 210.501 38.9735 209.938C39.2055 209.365 39.5255 208.916 39.9335 208.59C40.3495 208.264 40.8215 208.101 41.3495 208.101C41.7975 208.101 42.1975 208.229 42.5495 208.486C42.9095 208.743 43.1615 209.089 43.3055 209.523V208.279H44.2655V215.598C44.2655 216.21 44.1535 216.734 43.9295 217.169C43.7055 217.613 43.3855 217.949 42.9695 218.176C42.5535 218.413 42.0535 218.532 41.4695 218.532ZM41.4455 214.531C41.9895 214.531 42.4255 214.299 42.7535 213.835C43.0815 213.361 43.2495 212.719 43.2575 211.909C43.2655 211.365 43.1935 210.901 43.0415 210.516C42.8975 210.121 42.6855 209.819 42.4055 209.612C42.1335 209.395 41.8135 209.286 41.4455 209.286C40.8855 209.286 40.4495 209.523 40.1375 209.997C39.8335 210.462 39.6815 211.099 39.6815 211.909C39.6815 212.719 39.8375 213.361 40.1495 213.835C40.4695 214.299 40.9015 214.531 41.4455 214.531ZM46.3667 216.131V205.611H47.3747V210.012L47.2547 209.982C47.3347 209.548 47.4707 209.192 47.6627 208.916C47.8547 208.639 48.0907 208.437 48.3707 208.308C48.6507 208.17 48.9587 208.101 49.2947 208.101C49.7507 208.101 50.1347 208.229 50.4467 208.486C50.7667 208.733 51.0067 209.084 51.1667 209.538C51.3347 209.982 51.4187 210.496 51.4187 211.079V216.131H50.4107V211.435C50.4107 210.674 50.2987 210.111 50.0747 209.745C49.8587 209.38 49.5267 209.197 49.0787 209.197C48.5667 209.197 48.1547 209.39 47.8427 209.775C47.5307 210.16 47.3747 210.718 47.3747 211.449V216.131H46.3667ZM55.5469 216.131C54.9709 216.131 54.5429 215.968 54.2629 215.643C53.9909 215.317 53.8549 214.808 53.8549 214.116V206.441H54.8629V214.087C54.8629 214.442 54.9269 214.689 55.0549 214.828C55.1829 214.966 55.3789 215.035 55.6429 215.035H56.5549V216.131H55.5469ZM52.9189 209.375V208.279H56.5549V209.375H52.9189ZM60.4066 216.309C59.8386 216.309 59.3546 216.196 58.9546 215.968C58.5626 215.741 58.2546 215.43 58.0306 215.035C57.8146 214.63 57.6906 214.171 57.6586 213.657L58.7146 213.568C58.7786 214.042 58.9426 214.423 59.2066 214.709C59.4706 214.986 59.8706 215.124 60.4066 215.124C60.8386 215.124 61.1826 215.04 61.4386 214.872C61.7026 214.694 61.8346 214.413 61.8346 214.027C61.8346 213.82 61.7946 213.647 61.7146 213.509C61.6346 213.371 61.4786 213.252 61.2466 213.153C61.0146 213.045 60.6706 212.941 60.2146 212.842C59.6066 212.704 59.1266 212.536 58.7746 212.338C58.4306 212.131 58.1826 211.879 58.0306 211.583C57.8866 211.276 57.8146 210.916 57.8146 210.501C57.8146 209.8 58.0226 209.227 58.4386 208.782C58.8546 208.328 59.4466 208.101 60.2146 208.101C60.7346 208.101 61.1706 208.219 61.5226 208.456C61.8826 208.684 62.1626 208.99 62.3626 209.375C62.5706 209.75 62.7066 210.165 62.7706 210.62L61.7146 210.708C61.6666 210.432 61.5786 210.19 61.4506 209.982C61.3226 209.765 61.1546 209.597 60.9466 209.479C60.7386 209.35 60.4906 209.286 60.2026 209.286C59.7466 209.286 59.4106 209.395 59.1946 209.612C58.9786 209.829 58.8706 210.106 58.8706 210.442C58.8706 210.699 58.9186 210.911 59.0146 211.079C59.1186 211.237 59.2826 211.37 59.5066 211.479C59.7306 211.578 60.0306 211.667 60.4066 211.746C61.0546 211.884 61.5586 212.052 61.9186 212.249C62.2786 212.447 62.5306 212.689 62.6746 212.975C62.8186 213.262 62.8906 213.613 62.8906 214.027C62.8906 214.512 62.7786 214.926 62.5546 215.272C62.3386 215.608 62.0426 215.865 61.6666 216.043C61.2986 216.22 60.8786 216.309 60.4066 216.309ZM9.10399 232.183V221.663H12.332C12.932 221.663 13.448 221.792 13.88 222.048C14.312 222.305 14.644 222.676 14.876 223.16C15.116 223.634 15.236 224.197 15.236 224.849C15.236 225.323 15.144 225.748 14.96 226.123C14.784 226.488 14.556 226.78 14.276 226.997C13.996 227.215 13.704 227.333 13.4 227.353L13.328 227.219C13.848 227.219 14.256 227.368 14.552 227.664C14.856 227.96 15.032 228.434 15.08 229.086L15.32 232.183H14.276L14.06 229.22C14.028 228.785 13.9 228.464 13.676 228.257C13.46 228.049 13.104 227.945 12.608 227.945H10.136V232.183H9.10399ZM10.136 226.701H12.464C12.984 226.701 13.396 226.538 13.7 226.212C14.004 225.886 14.156 225.422 14.156 224.819C14.156 224.207 14 223.737 13.688 223.412C13.376 223.076 12.924 222.908 12.332 222.908H10.136V226.701ZM19.7259 232.361C19.1259 232.361 18.6059 232.193 18.1659 231.857C17.7339 231.521 17.3979 231.047 17.1579 230.435C16.9259 229.812 16.8099 229.086 16.8099 228.257C16.8099 227.427 16.9259 226.706 17.1579 226.093C17.3979 225.481 17.7299 225.007 18.1539 224.671C18.5859 224.325 19.0939 224.152 19.6779 224.152C20.2299 224.152 20.7179 224.315 21.1419 224.641C21.5659 224.957 21.8939 225.422 22.1259 226.034C22.3659 226.647 22.4859 227.392 22.4859 228.271V228.642H17.8659C17.9059 229.482 18.0859 230.114 18.4059 230.538C18.7339 230.963 19.1739 231.176 19.7259 231.176C20.1419 231.176 20.4819 231.057 20.7459 230.82C21.0179 230.573 21.2059 230.252 21.3099 229.857L22.3899 229.961C22.2219 230.662 21.9019 231.24 21.4299 231.694C20.9659 232.139 20.3979 232.361 19.7259 232.361ZM17.8659 227.545H21.3819C21.3339 226.785 21.1539 226.227 20.8419 225.871C20.5379 225.516 20.1499 225.338 19.6779 225.338C19.1899 225.338 18.7859 225.525 18.4659 225.901C18.1539 226.266 17.9539 226.814 17.8659 227.545ZM26.5273 232.361C25.9593 232.361 25.4753 232.247 25.0753 232.02C24.6833 231.793 24.3753 231.482 24.1513 231.087C23.9353 230.682 23.8113 230.222 23.7793 229.709L24.8353 229.62C24.8993 230.094 25.0633 230.474 25.3273 230.761C25.5913 231.037 25.9913 231.176 26.5273 231.176C26.9593 231.176 27.3033 231.092 27.5593 230.924C27.8233 230.746 27.9553 230.464 27.9553 230.079C27.9553 229.872 27.9153 229.699 27.8353 229.561C27.7553 229.422 27.5993 229.304 27.3673 229.205C27.1353 229.096 26.7913 228.993 26.3353 228.894C25.7273 228.755 25.2473 228.588 24.8953 228.39C24.5513 228.183 24.3033 227.931 24.1513 227.634C24.0073 227.328 23.9353 226.968 23.9353 226.553C23.9353 225.851 24.1433 225.278 24.5593 224.834C24.9753 224.38 25.5673 224.152 26.3353 224.152C26.8553 224.152 27.2913 224.271 27.6433 224.508C28.0033 224.735 28.2833 225.041 28.4833 225.427C28.6913 225.802 28.8273 226.217 28.8913 226.671L27.8353 226.76C27.7873 226.484 27.6993 226.242 27.5713 226.034C27.4433 225.817 27.2753 225.649 27.0673 225.53C26.8593 225.402 26.6113 225.338 26.3233 225.338C25.8673 225.338 25.5313 225.446 25.3153 225.664C25.0993 225.881 24.9913 226.158 24.9913 226.493C24.9913 226.75 25.0393 226.963 25.1353 227.131C25.2393 227.289 25.4033 227.422 25.6273 227.531C25.8513 227.629 26.1513 227.718 26.5273 227.797C27.1753 227.936 27.6793 228.104 28.0393 228.301C28.3993 228.499 28.6513 228.741 28.7953 229.027C28.9393 229.314 29.0113 229.664 29.0113 230.079C29.0113 230.563 28.8993 230.978 28.6753 231.324C28.4593 231.66 28.1633 231.916 27.7873 232.094C27.4193 232.272 26.9993 232.361 26.5273 232.361ZM33.231 232.361C32.631 232.361 32.111 232.193 31.671 231.857C31.239 231.521 30.903 231.047 30.663 230.435C30.431 229.812 30.315 229.086 30.315 228.257C30.315 227.427 30.431 226.706 30.663 226.093C30.903 225.481 31.235 225.007 31.659 224.671C32.091 224.325 32.599 224.152 33.183 224.152C33.735 224.152 34.223 224.315 34.647 224.641C35.071 224.957 35.399 225.422 35.631 226.034C35.871 226.647 35.991 227.392 35.991 228.271V228.642H31.371C31.411 229.482 31.591 230.114 31.911 230.538C32.239 230.963 32.679 231.176 33.231 231.176C33.647 231.176 33.987 231.057 34.251 230.82C34.523 230.573 34.711 230.252 34.815 229.857L35.895 229.961C35.727 230.662 35.407 231.24 34.935 231.694C34.471 232.139 33.903 232.361 33.231 232.361ZM31.371 227.545H34.887C34.839 226.785 34.659 226.227 34.347 225.871C34.043 225.516 33.655 225.338 33.183 225.338C32.695 225.338 32.291 225.525 31.971 225.901C31.659 226.266 31.459 226.814 31.371 227.545ZM37.7164 232.183V224.33H38.6044L38.6524 226.316L38.5564 226.271C38.6364 225.599 38.8084 225.111 39.0724 224.804C39.3444 224.488 39.7044 224.33 40.1524 224.33H40.7764V225.516H40.1644C39.8444 225.516 39.5764 225.59 39.3604 225.738C39.1524 225.876 38.9924 226.088 38.8804 226.375C38.7764 226.651 38.7244 227.007 38.7244 227.442V232.183H37.7164ZM43.9386 232.183L41.6226 224.33H42.7266L44.5746 230.909L46.4226 224.33H47.5266L45.2106 232.183H43.9386ZM51.2798 232.361C50.6798 232.361 50.1598 232.193 49.7198 231.857C49.2878 231.521 48.9518 231.047 48.7118 230.435C48.4798 229.812 48.3638 229.086 48.3638 228.257C48.3638 227.427 48.4798 226.706 48.7118 226.093C48.9518 225.481 49.2838 225.007 49.7078 224.671C50.1398 224.325 50.6478 224.152 51.2318 224.152C51.7838 224.152 52.2718 224.315 52.6958 224.641C53.1198 224.957 53.4478 225.422 53.6798 226.034C53.9198 226.647 54.0398 227.392 54.0398 228.271V228.642H49.4198C49.4598 229.482 49.6398 230.114 49.9598 230.538C50.2878 230.963 50.7278 231.176 51.2798 231.176C51.6958 231.176 52.0358 231.057 52.2998 230.82C52.5718 230.573 52.7598 230.252 52.8638 229.857L53.9438 229.961C53.7758 230.662 53.4558 231.24 52.9838 231.694C52.5198 232.139 51.9518 232.361 51.2798 232.361ZM49.4198 227.545H52.9358C52.8878 226.785 52.7078 226.227 52.3958 225.871C52.0918 225.516 51.7038 225.338 51.2318 225.338C50.7438 225.338 50.3398 225.525 50.0198 225.901C49.7078 226.266 49.5078 226.814 49.4198 227.545ZM58.0212 232.361C57.4692 232.361 56.9892 232.193 56.5812 231.857C56.1812 231.521 55.8732 231.047 55.6572 230.435C55.4412 229.822 55.3332 229.096 55.3332 228.257C55.3332 227.417 55.4412 226.691 55.6572 226.079C55.8732 225.466 56.1812 224.992 56.5812 224.656C56.9892 224.32 57.4692 224.152 58.0212 224.152C58.4452 224.152 58.8332 224.266 59.1852 224.493C59.5372 224.71 59.8012 225.022 59.9772 225.427V221.663H60.9852V232.183H60.0732L60.0372 230.998C59.8612 231.423 59.5932 231.758 59.2332 232.005C58.8732 232.242 58.4692 232.361 58.0212 232.361ZM58.2252 231.176C58.6012 231.176 58.9172 231.057 59.1732 230.82C59.4372 230.583 59.6372 230.247 59.7732 229.812C59.9092 229.368 59.9772 228.849 59.9772 228.257C59.9772 227.644 59.9092 227.121 59.7732 226.686C59.6372 226.251 59.4372 225.921 59.1732 225.693C58.9172 225.456 58.6012 225.338 58.2252 225.338C57.6652 225.338 57.2172 225.599 56.8812 226.123C56.5532 226.637 56.3892 227.348 56.3892 228.257C56.3892 229.156 56.5532 229.867 56.8812 230.39C57.2172 230.914 57.6652 231.176 58.2252 231.176Z" fill="white" fill-opacity="0.6"/>
</g>
</g>
<defs>
<radialGradient id="paint0_radial_4_161" cx="0" cy="0" r="1" gradientUnits="userSpaceOnUse" gradientTransform="translate(1015 -43.8333) rotate(81.1089) scale(310.565 1322.97)">
<stop offset="0.25489" stop-color="#D9D9D9"/>
<stop offset="1" stop-color="#737373" stop-opacity="0"/>
</radialGradient>
<linearGradient id="paint1_linear_4_161" x1="0" y1="131.5" x2="1200" y2="131.5" gradientUnits="userSpaceOnUse">
<stop/>
<stop offset="0.61254" stop-opacity="0"/>
</linearGradient>
<linearGradient id="paint2_linear_4_161" x1="600.002" y1="0" x2="600.002" y2="263.02" gradientUnits="userSpaceOnUse">
<stop stop-color="#E3E4FF"/>
<stop offset="1" stop-color="#888999"/>
</linearGradient>
<radialGradient id="paint3_radial_4_161" cx="0" cy="0" r="1" gradientUnits="userSpaceOnUse" gradientTransform="translate(832.486 -250.257) rotate(74.0932) scale(611.139 1914.92)">
<stop offset="0.587372" stop-color="white" stop-opacity="0"/>
<stop offset="0.951237" stop-color="#0055FF"/>
</radialGradient>
<linearGradient id="paint4_linear_4_161" x1="600.002" y1="1.20819" x2="600.002" y2="261.811" gradientUnits="userSpaceOnUse">
<stop offset="0.576597" stop-color="#B7C3FF"/>
<stop offset="1" stop-color="#C0CFFF" stop-opacity="0.1"/>
</linearGradient>
<clipPath id="clip0_4_161">
<rect width="1200" height="263" fill="white"/>
</clipPath>
</defs>
</svg>
