<svg width="1440" height="783" viewBox="0 0 1440 783" fill="none" xmlns="http://www.w3.org/2000/svg">
<g filter="url(#filter0_f_940_1550)">
<path d="M1365 365.614C1365 386.657 817.818 369.508 772.394 383.6C744.228 392.337 805.875 427.632 816.729 455.406C952.958 455.406 1317.6 491 713.208 491C108.818 491 448.844 459.182 610.197 455.406C622.733 427.632 688.106 392.337 659.941 383.6C614.516 369.508 76 384.23 76 363.187C76 342.144 571.095 353.826 616.519 339.734C664.647 324.804 638.096 292 713.208 292C788.32 292 760.545 324.804 808.672 339.734C854.096 353.826 1365 344.571 1365 365.614Z" fill="#00299C"/>
</g>
<g filter="url(#filter1_f_940_1550)">
<path d="M1202 370.625C1202 384.521 786.547 385.539 757.944 395.066C725.588 405.842 896.54 490 713.265 490C515.4 490 708.235 405.842 675.88 395.066C647.276 385.539 230 384.521 230 370.625C230 356.728 605.907 354.251 634.511 344.724C666.866 333.948 661.41 317 713.265 317C765.119 317 754.817 336.867 787.172 347.643C815.775 357.169 1202 356.728 1202 370.625Z" fill="#003EE9"/>
</g>
<defs>
<filter id="filter0_f_940_1550" x="-215.711" y="0.288544" width="1872.42" height="782.423" filterUnits="userSpaceOnUse" color-interpolation-filters="sRGB">
<feFlood flood-opacity="0" result="BackgroundImageFix"/>
<feBlend mode="normal" in="SourceGraphic" in2="BackgroundImageFix" result="shape"/>
<feGaussianBlur stdDeviation="145.856" result="effect1_foregroundBlur_940_1550"/>
</filter>
<filter id="filter1_f_940_1550" x="47.6803" y="134.68" width="1336.64" height="537.639" filterUnits="userSpaceOnUse" color-interpolation-filters="sRGB">
<feFlood flood-opacity="0" result="BackgroundImageFix"/>
<feBlend mode="normal" in="SourceGraphic" in2="BackgroundImageFix" result="shape"/>
<feGaussianBlur stdDeviation="91.1598" result="effect1_foregroundBlur_940_1550"/>
</filter>
</defs>
</svg>
