<svg width="1200" height="213" viewBox="0 0 1200 213" fill="none" xmlns="http://www.w3.org/2000/svg">
<mask id="mask0_940_1364" style="mask-type:alpha" maskUnits="userSpaceOnUse" x="0" y="0" width="1200" height="213">
<rect width="1200" height="213" fill="url(#paint0_radial_940_1364)"/>
<rect width="1200" height="213" fill="url(#paint1_linear_940_1364)"/>
</mask>
<g mask="url(#mask0_940_1364)">
<g opacity="0.6">
<mask id="path-2-inside-1_940_1364" fill="white">
<path fill-rule="evenodd" clip-rule="evenodd" d="M1000.82 34.9708C995.967 34.9708 991.858 33.29 988.496 29.9284C985.135 26.5668 983.454 22.4582 983.454 17.6026C983.454 12.747 985.135 8.63837 988.496 5.27676C991.858 1.91516 995.967 0.234375 1000.82 0.234375C1005.49 0.234375 1009.41 1.91516 1012.59 5.27676C1015.95 8.63837 1017.63 12.747 1017.63 17.6026C1017.63 22.4582 1015.95 26.5668 1012.59 29.9284C1009.41 33.29 1005.49 34.9708 1000.82 34.9708ZM1013.15 59.9026V213.415H987.656V59.9026H1013.15ZM1053.8 94.9177C1047.45 106.683 1044.27 120.41 1044.27 136.097C1044.27 151.598 1047.45 165.418 1053.8 177.557C1060.14 189.696 1068.83 199.127 1079.85 205.85C1090.87 212.573 1103.19 215.935 1116.82 215.935C1130.08 215.935 1141.66 213.04 1151.56 207.251C1161.65 201.275 1169.21 193.804 1174.25 184.84V213.414H1200.02V59.9011H1174.25V87.9143C1169.4 79.1368 1162.02 71.8534 1152.12 66.064C1142.22 60.2746 1130.55 57.3799 1117.1 57.3799C1103.47 57.3799 1091.05 60.6481 1079.85 67.1845C1068.83 73.7209 1060.14 82.9653 1053.8 94.9177ZM1167.25 106.123C1171.92 114.714 1174.25 124.798 1174.25 136.377C1174.25 147.956 1171.92 158.134 1167.25 166.912C1162.58 175.502 1156.23 182.132 1148.2 186.801C1140.36 191.283 1131.67 193.524 1122.15 193.524C1112.62 193.524 1103.94 191.283 1096.1 186.801C1088.25 182.132 1082 175.502 1077.33 166.912C1072.66 158.134 1070.32 147.863 1070.32 136.097C1070.32 124.518 1072.66 114.434 1077.33 105.843C1082 97.2521 1088.25 90.7157 1096.1 86.2336C1103.94 81.7514 1112.62 79.5104 1122.15 79.5104C1131.67 79.5104 1140.36 81.8448 1148.2 86.5137C1156.23 90.9958 1162.58 97.5322 1167.25 106.123ZM235.471 60.4707H175.234C144.209 60.4707 114.994 75.078 96.3789 99.8986L86.5219 113.041C76.8695 125.911 61.7212 133.485 45.6339 133.485H0V212.888H60.4908C90.3378 212.888 118.578 199.364 137.288 176.11L156.24 152.555C156.522 152.204 156.809 151.856 157.1 151.513C157.94 150.525 158.813 149.572 159.719 148.656V212.888H220.209C250.056 212.888 278.296 199.364 297.007 176.11L314.874 153.903V212.888H395.19V60.4707H334.953C303.927 60.4707 274.713 75.078 256.098 99.8986L246.241 113.041C243.161 117.147 239.522 120.715 235.471 123.668V60.4707ZM919.514 171.394V80.9114H959.573V59.9015H919.514V21.2432H894.022V59.9015H874.133V80.9114H894.022V171.394C894.022 186.335 897.571 197.073 904.667 203.61C911.764 210.146 922.409 213.414 936.602 213.414H959.573V191.844H940.804C932.961 191.844 927.451 190.35 924.276 187.362C921.102 184.187 919.514 178.864 919.514 171.394ZM778.984 215.935C764.604 215.935 751.531 212.667 739.765 206.13C728.187 199.594 719.036 190.349 712.312 178.397C705.776 166.258 702.508 152.251 702.508 136.377C702.508 120.69 705.869 106.87 712.593 94.9177C719.503 82.7786 728.84 73.5342 740.606 67.1845C752.371 60.6481 765.538 57.3799 780.104 57.3799C794.671 57.3799 807.838 60.6481 819.603 67.1845C831.369 73.5342 840.613 82.6852 847.336 94.6375C854.246 106.59 857.701 120.503 857.701 136.377C857.701 152.251 854.153 166.258 847.056 178.397C840.146 190.349 830.715 199.594 818.763 206.13C806.811 212.667 793.551 215.935 778.984 215.935ZM778.984 193.524C788.135 193.524 796.726 191.377 804.756 187.081C812.787 182.786 819.23 176.343 824.085 167.752C829.128 159.161 831.649 148.703 831.649 136.377C831.649 124.051 829.221 113.593 824.365 105.002C819.51 96.4117 813.16 90.062 805.316 85.9534C797.473 81.6581 788.975 79.5104 779.824 79.5104C770.487 79.5104 761.896 81.6581 754.052 85.9534C746.395 90.062 740.232 96.4117 735.563 105.002C730.895 113.593 728.56 124.051 728.56 136.377C728.56 148.89 730.801 159.442 735.283 168.032C739.952 176.623 746.115 183.066 753.772 187.361C761.429 191.47 769.833 193.524 778.984 193.524ZM642.764 64.6642C633.427 59.6218 622.781 57.1006 610.829 57.1006C598.69 57.1006 587.671 60.0887 577.773 66.0648C567.875 72.041 560.779 80.445 556.483 91.2768C551.628 80.0715 544.251 71.5741 534.353 65.7847C524.455 59.9953 513.063 57.1006 500.177 57.1006C489.905 57.1006 480.474 59.2483 471.883 63.5436C463.479 67.839 456.756 74.0019 451.714 82.0324V59.9019H426.222V213.415H451.714V128.815C451.714 112.754 455.636 100.521 463.479 92.1172C471.323 83.5264 481.875 79.2311 495.134 79.2311C508.02 79.2311 518.199 83.3397 525.669 91.5569C533.326 99.5874 537.154 111.26 537.154 126.573V213.415H562.366V128.815C562.366 112.754 566.288 100.521 574.132 92.1172C581.975 83.5264 592.527 79.2311 605.787 79.2311C618.673 79.2311 628.851 83.3397 636.321 91.5569C643.978 99.5874 647.807 111.26 647.807 126.573V213.415H673.019V122.932C673.019 108.738 670.311 96.6927 664.895 86.7946C659.479 76.8966 652.102 69.5198 642.764 64.6642Z"/>
</mask>
<path fill-rule="evenodd" clip-rule="evenodd" d="M1000.82 34.9708C995.967 34.9708 991.858 33.29 988.496 29.9284C985.135 26.5668 983.454 22.4582 983.454 17.6026C983.454 12.747 985.135 8.63837 988.496 5.27676C991.858 1.91516 995.967 0.234375 1000.82 0.234375C1005.49 0.234375 1009.41 1.91516 1012.59 5.27676C1015.95 8.63837 1017.63 12.747 1017.63 17.6026C1017.63 22.4582 1015.95 26.5668 1012.59 29.9284C1009.41 33.29 1005.49 34.9708 1000.82 34.9708ZM1013.15 59.9026V213.415H987.656V59.9026H1013.15ZM1053.8 94.9177C1047.45 106.683 1044.27 120.41 1044.27 136.097C1044.27 151.598 1047.45 165.418 1053.8 177.557C1060.14 189.696 1068.83 199.127 1079.85 205.85C1090.87 212.573 1103.19 215.935 1116.82 215.935C1130.08 215.935 1141.66 213.04 1151.56 207.251C1161.65 201.275 1169.21 193.804 1174.25 184.84V213.414H1200.02V59.9011H1174.25V87.9143C1169.4 79.1368 1162.02 71.8534 1152.12 66.064C1142.22 60.2746 1130.55 57.3799 1117.1 57.3799C1103.47 57.3799 1091.05 60.6481 1079.85 67.1845C1068.83 73.7209 1060.14 82.9653 1053.8 94.9177ZM1167.25 106.123C1171.92 114.714 1174.25 124.798 1174.25 136.377C1174.25 147.956 1171.92 158.134 1167.25 166.912C1162.58 175.502 1156.23 182.132 1148.2 186.801C1140.36 191.283 1131.67 193.524 1122.15 193.524C1112.62 193.524 1103.94 191.283 1096.1 186.801C1088.25 182.132 1082 175.502 1077.33 166.912C1072.66 158.134 1070.32 147.863 1070.32 136.097C1070.32 124.518 1072.66 114.434 1077.33 105.843C1082 97.2521 1088.25 90.7157 1096.1 86.2336C1103.94 81.7514 1112.62 79.5104 1122.15 79.5104C1131.67 79.5104 1140.36 81.8448 1148.2 86.5137C1156.23 90.9958 1162.58 97.5322 1167.25 106.123ZM235.471 60.4707H175.234C144.209 60.4707 114.994 75.078 96.3789 99.8986L86.5219 113.041C76.8695 125.911 61.7212 133.485 45.6339 133.485H0V212.888H60.4908C90.3378 212.888 118.578 199.364 137.288 176.11L156.24 152.555C156.522 152.204 156.809 151.856 157.1 151.513C157.94 150.525 158.813 149.572 159.719 148.656V212.888H220.209C250.056 212.888 278.296 199.364 297.007 176.11L314.874 153.903V212.888H395.19V60.4707H334.953C303.927 60.4707 274.713 75.078 256.098 99.8986L246.241 113.041C243.161 117.147 239.522 120.715 235.471 123.668V60.4707ZM919.514 171.394V80.9114H959.573V59.9015H919.514V21.2432H894.022V59.9015H874.133V80.9114H894.022V171.394C894.022 186.335 897.571 197.073 904.667 203.61C911.764 210.146 922.409 213.414 936.602 213.414H959.573V191.844H940.804C932.961 191.844 927.451 190.35 924.276 187.362C921.102 184.187 919.514 178.864 919.514 171.394ZM778.984 215.935C764.604 215.935 751.531 212.667 739.765 206.13C728.187 199.594 719.036 190.349 712.312 178.397C705.776 166.258 702.508 152.251 702.508 136.377C702.508 120.69 705.869 106.87 712.593 94.9177C719.503 82.7786 728.84 73.5342 740.606 67.1845C752.371 60.6481 765.538 57.3799 780.104 57.3799C794.671 57.3799 807.838 60.6481 819.603 67.1845C831.369 73.5342 840.613 82.6852 847.336 94.6375C854.246 106.59 857.701 120.503 857.701 136.377C857.701 152.251 854.153 166.258 847.056 178.397C840.146 190.349 830.715 199.594 818.763 206.13C806.811 212.667 793.551 215.935 778.984 215.935ZM778.984 193.524C788.135 193.524 796.726 191.377 804.756 187.081C812.787 182.786 819.23 176.343 824.085 167.752C829.128 159.161 831.649 148.703 831.649 136.377C831.649 124.051 829.221 113.593 824.365 105.002C819.51 96.4117 813.16 90.062 805.316 85.9534C797.473 81.6581 788.975 79.5104 779.824 79.5104C770.487 79.5104 761.896 81.6581 754.052 85.9534C746.395 90.062 740.232 96.4117 735.563 105.002C730.895 113.593 728.56 124.051 728.56 136.377C728.56 148.89 730.801 159.442 735.283 168.032C739.952 176.623 746.115 183.066 753.772 187.361C761.429 191.47 769.833 193.524 778.984 193.524ZM642.764 64.6642C633.427 59.6218 622.781 57.1006 610.829 57.1006C598.69 57.1006 587.671 60.0887 577.773 66.0648C567.875 72.041 560.779 80.445 556.483 91.2768C551.628 80.0715 544.251 71.5741 534.353 65.7847C524.455 59.9953 513.063 57.1006 500.177 57.1006C489.905 57.1006 480.474 59.2483 471.883 63.5436C463.479 67.839 456.756 74.0019 451.714 82.0324V59.9019H426.222V213.415H451.714V128.815C451.714 112.754 455.636 100.521 463.479 92.1172C471.323 83.5264 481.875 79.2311 495.134 79.2311C508.02 79.2311 518.199 83.3397 525.669 91.5569C533.326 99.5874 537.154 111.26 537.154 126.573V213.415H562.366V128.815C562.366 112.754 566.288 100.521 574.132 92.1172C581.975 83.5264 592.527 79.2311 605.787 79.2311C618.673 79.2311 628.851 83.3397 636.321 91.5569C643.978 99.5874 647.807 111.26 647.807 126.573V213.415H673.019V122.932C673.019 108.738 670.311 96.6927 664.895 86.7946C659.479 76.8966 652.102 69.5198 642.764 64.6642Z" fill="url(#paint2_linear_940_1364)" fill-opacity="0.7"/>
<path fill-rule="evenodd" clip-rule="evenodd" d="M1000.82 34.9708C995.967 34.9708 991.858 33.29 988.496 29.9284C985.135 26.5668 983.454 22.4582 983.454 17.6026C983.454 12.747 985.135 8.63837 988.496 5.27676C991.858 1.91516 995.967 0.234375 1000.82 0.234375C1005.49 0.234375 1009.41 1.91516 1012.59 5.27676C1015.95 8.63837 1017.63 12.747 1017.63 17.6026C1017.63 22.4582 1015.95 26.5668 1012.59 29.9284C1009.41 33.29 1005.49 34.9708 1000.82 34.9708ZM1013.15 59.9026V213.415H987.656V59.9026H1013.15ZM1053.8 94.9177C1047.45 106.683 1044.27 120.41 1044.27 136.097C1044.27 151.598 1047.45 165.418 1053.8 177.557C1060.14 189.696 1068.83 199.127 1079.85 205.85C1090.87 212.573 1103.19 215.935 1116.82 215.935C1130.08 215.935 1141.66 213.04 1151.56 207.251C1161.65 201.275 1169.21 193.804 1174.25 184.84V213.414H1200.02V59.9011H1174.25V87.9143C1169.4 79.1368 1162.02 71.8534 1152.12 66.064C1142.22 60.2746 1130.55 57.3799 1117.1 57.3799C1103.47 57.3799 1091.05 60.6481 1079.85 67.1845C1068.83 73.7209 1060.14 82.9653 1053.8 94.9177ZM1167.25 106.123C1171.92 114.714 1174.25 124.798 1174.25 136.377C1174.25 147.956 1171.92 158.134 1167.25 166.912C1162.58 175.502 1156.23 182.132 1148.2 186.801C1140.36 191.283 1131.67 193.524 1122.15 193.524C1112.62 193.524 1103.94 191.283 1096.1 186.801C1088.25 182.132 1082 175.502 1077.33 166.912C1072.66 158.134 1070.32 147.863 1070.32 136.097C1070.32 124.518 1072.66 114.434 1077.33 105.843C1082 97.2521 1088.25 90.7157 1096.1 86.2336C1103.94 81.7514 1112.62 79.5104 1122.15 79.5104C1131.67 79.5104 1140.36 81.8448 1148.2 86.5137C1156.23 90.9958 1162.58 97.5322 1167.25 106.123ZM235.471 60.4707H175.234C144.209 60.4707 114.994 75.078 96.3789 99.8986L86.5219 113.041C76.8695 125.911 61.7212 133.485 45.6339 133.485H0V212.888H60.4908C90.3378 212.888 118.578 199.364 137.288 176.11L156.24 152.555C156.522 152.204 156.809 151.856 157.1 151.513C157.94 150.525 158.813 149.572 159.719 148.656V212.888H220.209C250.056 212.888 278.296 199.364 297.007 176.11L314.874 153.903V212.888H395.19V60.4707H334.953C303.927 60.4707 274.713 75.078 256.098 99.8986L246.241 113.041C243.161 117.147 239.522 120.715 235.471 123.668V60.4707ZM919.514 171.394V80.9114H959.573V59.9015H919.514V21.2432H894.022V59.9015H874.133V80.9114H894.022V171.394C894.022 186.335 897.571 197.073 904.667 203.61C911.764 210.146 922.409 213.414 936.602 213.414H959.573V191.844H940.804C932.961 191.844 927.451 190.35 924.276 187.362C921.102 184.187 919.514 178.864 919.514 171.394ZM778.984 215.935C764.604 215.935 751.531 212.667 739.765 206.13C728.187 199.594 719.036 190.349 712.312 178.397C705.776 166.258 702.508 152.251 702.508 136.377C702.508 120.69 705.869 106.87 712.593 94.9177C719.503 82.7786 728.84 73.5342 740.606 67.1845C752.371 60.6481 765.538 57.3799 780.104 57.3799C794.671 57.3799 807.838 60.6481 819.603 67.1845C831.369 73.5342 840.613 82.6852 847.336 94.6375C854.246 106.59 857.701 120.503 857.701 136.377C857.701 152.251 854.153 166.258 847.056 178.397C840.146 190.349 830.715 199.594 818.763 206.13C806.811 212.667 793.551 215.935 778.984 215.935ZM778.984 193.524C788.135 193.524 796.726 191.377 804.756 187.081C812.787 182.786 819.23 176.343 824.085 167.752C829.128 159.161 831.649 148.703 831.649 136.377C831.649 124.051 829.221 113.593 824.365 105.002C819.51 96.4117 813.16 90.062 805.316 85.9534C797.473 81.6581 788.975 79.5104 779.824 79.5104C770.487 79.5104 761.896 81.6581 754.052 85.9534C746.395 90.062 740.232 96.4117 735.563 105.002C730.895 113.593 728.56 124.051 728.56 136.377C728.56 148.89 730.801 159.442 735.283 168.032C739.952 176.623 746.115 183.066 753.772 187.361C761.429 191.47 769.833 193.524 778.984 193.524ZM642.764 64.6642C633.427 59.6218 622.781 57.1006 610.829 57.1006C598.69 57.1006 587.671 60.0887 577.773 66.0648C567.875 72.041 560.779 80.445 556.483 91.2768C551.628 80.0715 544.251 71.5741 534.353 65.7847C524.455 59.9953 513.063 57.1006 500.177 57.1006C489.905 57.1006 480.474 59.2483 471.883 63.5436C463.479 67.839 456.756 74.0019 451.714 82.0324V59.9019H426.222V213.415H451.714V128.815C451.714 112.754 455.636 100.521 463.479 92.1172C471.323 83.5264 481.875 79.2311 495.134 79.2311C508.02 79.2311 518.199 83.3397 525.669 91.5569C533.326 99.5874 537.154 111.26 537.154 126.573V213.415H562.366V128.815C562.366 112.754 566.288 100.521 574.132 92.1172C581.975 83.5264 592.527 79.2311 605.787 79.2311C618.673 79.2311 628.851 83.3397 636.321 91.5569C643.978 99.5874 647.807 111.26 647.807 126.573V213.415H673.019V122.932C673.019 108.738 670.311 96.6927 664.895 86.7946C659.479 76.8966 652.102 69.5198 642.764 64.6642Z" fill="url(#paint3_radial_940_1364)"/>
<path d="M1012.59 5.27676L1011.86 5.96338L1011.87 5.97377L1011.88 5.98387L1012.59 5.27676ZM1012.59 29.9284L1011.88 29.2213L1011.87 29.2314L1011.86 29.2418L1012.59 29.9284ZM1013.15 213.415V214.415H1014.15V213.415H1013.15ZM1013.15 59.9026H1014.15V58.9026H1013.15V59.9026ZM987.656 213.415H986.656V214.415H987.656V213.415ZM987.656 59.9026V58.9026H986.656V59.9026H987.656ZM1053.8 94.9177L1054.68 95.3926L1054.68 95.3868L1053.8 94.9177ZM1053.8 177.557L1052.91 178.02L1053.8 177.557ZM1079.85 205.85L1080.37 204.997L1079.85 205.85ZM1151.56 207.251L1152.07 208.114L1152.07 208.111L1151.56 207.251ZM1174.25 184.84H1175.25V181.023L1173.38 184.35L1174.25 184.84ZM1174.25 213.414H1173.25V214.414H1174.25V213.414ZM1200.02 213.414V214.414H1201.02V213.414H1200.02ZM1200.02 59.9011H1201.02V58.9011H1200.02V59.9011ZM1174.25 59.9011V58.9011H1173.25V59.9011H1174.25ZM1174.25 87.9143L1173.38 88.3984L1175.25 87.9143H1174.25ZM1152.12 66.064L1151.62 66.9272L1152.12 66.064ZM1079.85 67.1845L1079.34 66.3207L1079.34 66.3245L1079.85 67.1845ZM1167.25 106.123L1166.37 106.6V106.6L1167.25 106.123ZM1167.25 166.912L1168.13 167.389L1168.13 167.381L1167.25 166.912ZM1148.2 186.801L1148.7 187.669L1148.7 187.666L1148.2 186.801ZM1096.1 186.801L1095.58 187.66L1095.59 187.665L1095.6 187.669L1096.1 186.801ZM1077.33 166.912L1076.44 167.381L1076.45 167.389L1077.33 166.912ZM1077.33 105.843L1076.45 105.365V105.365L1077.33 105.843ZM1096.1 86.2336L1096.59 87.1018V87.1018L1096.1 86.2336ZM1148.2 86.5137L1147.69 87.373L1147.7 87.3801L1147.71 87.3869L1148.2 86.5137ZM235.471 60.4707H236.471V59.4707H235.471V60.4707ZM96.3789 99.8986L97.1789 100.499L97.1789 100.499L96.3789 99.8986ZM86.5219 113.041L85.722 112.441L85.7219 112.441L86.5219 113.041ZM0 133.485V132.485H-1V133.485H0ZM0 212.888H-1V213.888H0V212.888ZM137.288 176.11L138.067 176.737L138.067 176.737L137.288 176.11ZM156.24 152.555L155.461 151.928L155.46 151.928L156.24 152.555ZM157.1 151.513L156.338 150.866L156.338 150.866L157.1 151.513ZM159.719 148.656H160.719V146.223L159.008 147.953L159.719 148.656ZM159.719 212.888H158.719V213.888H159.719V212.888ZM297.007 176.11L297.786 176.737V176.737L297.007 176.11ZM314.874 153.903H315.874V151.064L314.095 153.276L314.874 153.903ZM314.874 212.888H313.874V213.888H314.874V212.888ZM395.19 212.888V213.888H396.19V212.888H395.19ZM395.19 60.4707H396.19V59.4707H395.19V60.4707ZM256.098 99.8986L256.898 100.499L256.898 100.499L256.098 99.8986ZM246.241 113.041L245.441 112.441L245.441 112.441L246.241 113.041ZM235.471 123.668H234.471V125.635L236.06 124.476L235.471 123.668ZM919.514 80.9114V79.9114H918.514V80.9114H919.514ZM959.573 80.9114V81.9114H960.573V80.9114H959.573ZM959.573 59.9015H960.573V58.9015H959.573V59.9015ZM919.514 59.9015H918.514V60.9015H919.514V59.9015ZM919.514 21.2432H920.514V20.2432H919.514V21.2432ZM894.022 21.2432V20.2432H893.022V21.2432H894.022ZM894.022 59.9015V60.9015H895.022V59.9015H894.022ZM874.133 59.9015V58.9015H873.133V59.9015H874.133ZM874.133 80.9114H873.133V81.9114H874.133V80.9114ZM894.022 80.9114H895.022V79.9114H894.022V80.9114ZM904.667 203.61L903.99 204.345L904.667 203.61ZM959.573 213.414V214.414H960.573V213.414H959.573ZM959.573 191.844H960.573V190.844H959.573V191.844ZM924.276 187.362L923.569 188.069L923.58 188.08L923.591 188.09L924.276 187.362ZM739.765 206.13L739.274 207.001L739.28 207.004L739.765 206.13ZM712.312 178.397L711.432 178.871L711.436 178.879L711.441 178.887L712.312 178.397ZM712.593 94.9177L711.723 94.423L711.721 94.4274L712.593 94.9177ZM740.606 67.1845L741.081 68.0646L741.091 68.0587L740.606 67.1845ZM819.603 67.1845L819.118 68.0588L819.128 68.0646L819.603 67.1845ZM847.336 94.6375L846.465 95.1278L846.471 95.138L847.336 94.6375ZM847.056 178.397L846.193 177.892L846.191 177.897L847.056 178.397ZM818.763 206.13L818.283 205.253V205.253L818.763 206.13ZM804.756 187.081L805.228 187.963V187.963L804.756 187.081ZM824.085 167.752L823.223 167.246L823.219 167.253L823.215 167.26L824.085 167.752ZM805.316 85.9534L804.836 86.8305L804.844 86.8349L804.852 86.8392L805.316 85.9534ZM754.052 85.9534L754.525 86.8346L754.533 86.8305L754.052 85.9534ZM735.563 105.002L736.442 105.48V105.48L735.563 105.002ZM735.283 168.032L734.397 168.495L734.401 168.502L734.405 168.51L735.283 168.032ZM753.772 187.361L753.283 188.234L753.291 188.238L753.299 188.243L753.772 187.361ZM642.764 64.6642L642.289 65.5441L642.296 65.5478L642.303 65.5514L642.764 64.6642ZM556.483 91.2768L555.566 91.6744L556.524 93.8863L557.413 91.6454L556.483 91.2768ZM534.353 65.7847L534.858 64.9215L534.353 65.7847ZM471.883 63.5436L471.436 62.6492L471.428 62.6532L471.883 63.5436ZM451.714 82.0324H450.714V85.5055L452.561 82.5642L451.714 82.0324ZM451.714 59.9019H452.714V58.9019H451.714V59.9019ZM426.222 59.9019V58.9019H425.222V59.9019H426.222ZM426.222 213.415H425.222V214.415H426.222V213.415ZM451.714 213.415V214.415H452.714V213.415H451.714ZM463.479 92.1172L464.21 92.7995L464.218 92.7914L463.479 92.1172ZM525.669 91.5569L524.929 92.2296L524.937 92.2384L524.945 92.247L525.669 91.5569ZM537.154 213.415H536.154V214.415H537.154V213.415ZM562.366 213.415V214.415H563.366V213.415H562.366ZM574.132 92.1172L574.863 92.7995L574.87 92.7914L574.132 92.1172ZM636.321 91.5569L635.581 92.2296L635.589 92.2384L635.597 92.247L636.321 91.5569ZM647.807 213.415H646.807V214.415H647.807V213.415ZM673.019 213.415V214.415H674.019V213.415H673.019ZM987.789 30.6355C991.343 34.1891 995.708 35.9708 1000.82 35.9708V33.9708C996.226 33.9708 992.373 32.3909 989.204 29.2213L987.789 30.6355ZM982.454 17.6026C982.454 22.7171 984.236 27.082 987.789 30.6355L989.204 29.2213C986.034 26.0517 984.454 22.1994 984.454 17.6026H982.454ZM987.789 4.56966C984.236 8.12325 982.454 12.4881 982.454 17.6026H984.454C984.454 13.0058 986.034 9.15349 989.204 5.98387L987.789 4.56966ZM1000.82 -0.765625C995.708 -0.765625 991.343 1.01607 987.789 4.56966L989.204 5.98387C992.373 2.81425 996.226 1.23438 1000.82 1.23438V-0.765625ZM1013.31 4.59015C1009.95 1.02631 1005.76 -0.765625 1000.82 -0.765625V1.23438C1005.22 1.23438 1008.88 2.80401 1011.86 5.96338L1013.31 4.59015ZM1018.63 17.6026C1018.63 12.4881 1016.85 8.12323 1013.29 4.56966L1011.88 5.98387C1015.05 9.1535 1016.63 13.0059 1016.63 17.6026H1018.63ZM1013.29 30.6355C1016.85 27.082 1018.63 22.7171 1018.63 17.6026H1016.63C1016.63 22.1993 1015.05 26.0517 1011.88 29.2213L1013.29 30.6355ZM1000.82 35.9708C1005.76 35.9708 1009.95 34.1789 1013.31 30.6151L1011.86 29.2418C1008.88 32.4012 1005.22 33.9708 1000.82 33.9708V35.9708ZM1014.15 213.415V59.9026H1012.15V213.415H1014.15ZM987.656 214.415H1013.15V212.415H987.656V214.415ZM986.656 59.9026V213.415H988.656V59.9026H986.656ZM1013.15 58.9026H987.656V60.9026H1013.15V58.9026ZM1045.27 136.097C1045.27 120.547 1048.42 106.989 1054.68 95.3926L1052.92 94.4427C1046.47 106.378 1043.27 120.273 1043.27 136.097H1045.27ZM1054.68 177.093C1048.42 165.115 1045.27 151.458 1045.27 136.097H1043.27C1043.27 151.738 1046.48 165.72 1052.91 178.02L1054.68 177.093ZM1080.37 204.997C1069.51 198.374 1060.95 189.082 1054.68 177.093L1052.91 178.02C1059.34 190.31 1068.14 199.88 1079.33 206.704L1080.37 204.997ZM1116.82 214.935C1103.36 214.935 1091.22 211.619 1080.37 204.997L1079.33 206.704C1090.51 213.528 1103.02 216.935 1116.82 216.935V214.935ZM1151.06 206.388C1141.33 212.074 1129.94 214.935 1116.82 214.935V216.935C1130.23 216.935 1141.99 214.006 1152.07 208.114L1151.06 206.388ZM1173.38 184.35C1168.44 193.141 1161.01 200.491 1151.05 206.391L1152.07 208.111C1162.29 202.058 1169.98 194.468 1175.12 185.331L1173.38 184.35ZM1175.25 213.414V184.84H1173.25V213.414H1175.25ZM1200.02 212.414H1174.25V214.414H1200.02V212.414ZM1199.02 59.9011V213.414H1201.02V59.9011H1199.02ZM1174.25 60.9011H1200.02V58.9011H1174.25V60.9011ZM1175.25 87.9143V59.9011H1173.25V87.9143H1175.25ZM1151.62 66.9272C1161.38 72.639 1168.62 79.7997 1173.38 88.3984L1175.13 87.4303C1170.17 78.474 1162.66 71.0678 1152.63 65.2008L1151.62 66.9272ZM1117.1 58.3799C1130.4 58.3799 1141.9 61.2418 1151.62 66.9272L1152.63 65.2008C1142.55 59.3074 1130.7 56.3799 1117.1 56.3799V58.3799ZM1080.35 68.0483C1091.4 61.6057 1103.64 58.3799 1117.1 58.3799V56.3799C1103.3 56.3799 1090.71 59.6905 1079.34 66.3208L1080.35 68.0483ZM1054.68 95.3868C1060.95 83.587 1069.51 74.482 1080.36 68.0446L1079.34 66.3245C1068.15 72.9599 1059.34 82.3437 1052.91 94.4485L1054.68 95.3868ZM1175.25 136.377C1175.25 124.662 1172.89 114.408 1168.13 105.645L1166.37 106.6C1170.95 115.02 1173.25 124.935 1173.25 136.377H1175.25ZM1168.13 167.381C1172.89 158.437 1175.25 148.093 1175.25 136.377H1173.25C1173.25 147.819 1170.95 157.831 1166.37 166.442L1168.13 167.381ZM1148.7 187.666C1156.9 182.9 1163.38 176.132 1168.13 167.389L1166.37 166.434C1161.78 174.873 1155.56 181.365 1147.7 185.937L1148.7 187.666ZM1122.15 194.524C1131.84 194.524 1140.69 192.243 1148.7 187.669L1147.7 185.933C1140.02 190.324 1131.51 192.524 1122.15 192.524V194.524ZM1095.6 187.669C1103.6 192.243 1112.46 194.524 1122.15 194.524V192.524C1112.79 192.524 1104.28 190.324 1096.59 185.933L1095.6 187.669ZM1076.45 167.389C1081.2 176.126 1087.57 182.893 1095.58 187.66L1096.61 185.942C1088.93 181.371 1082.79 174.879 1078.2 166.434L1076.45 167.389ZM1069.32 136.097C1069.32 147.997 1071.68 158.435 1076.44 167.381L1078.21 166.442C1073.63 157.834 1071.32 147.729 1071.32 136.097H1069.32ZM1076.45 105.365C1071.69 114.127 1069.32 124.382 1069.32 136.097H1071.32C1071.32 124.654 1073.63 114.74 1078.2 106.32L1076.45 105.365ZM1095.6 85.3653C1087.58 89.9472 1081.2 96.6253 1076.45 105.365L1078.2 106.32C1082.79 97.8789 1088.92 91.4842 1096.59 87.1018L1095.6 85.3653ZM1122.15 78.5104C1112.46 78.5104 1103.6 80.7921 1095.6 85.3653L1096.59 87.1018C1104.28 82.7108 1112.79 80.5104 1122.15 80.5104V78.5104ZM1148.71 85.6544C1140.71 80.8893 1131.84 78.5104 1122.15 78.5104V80.5104C1131.5 80.5104 1140.01 82.8003 1147.69 87.373L1148.71 85.6544ZM1168.13 105.645C1163.37 96.8994 1156.89 90.2207 1148.69 85.6405L1147.71 87.3869C1155.57 91.7709 1161.79 98.165 1166.37 106.6L1168.13 105.645ZM175.234 61.4707H235.471V59.4707H175.234V61.4707ZM97.1789 100.499C115.605 75.9298 144.523 61.4707 175.234 61.4707V59.4707C143.894 59.4707 114.383 74.2262 95.5789 99.2986L97.1789 100.499ZM87.3219 113.641L97.1789 100.499L95.5789 99.2986L85.722 112.441L87.3219 113.641ZM45.6339 134.485C62.0359 134.485 77.4807 126.763 87.3219 113.641L85.7219 112.441C76.2584 125.059 61.4064 132.485 45.6339 132.485V134.485ZM0 134.485H45.6339V132.485H0V134.485ZM1 212.888V133.485H-1V212.888H1ZM60.4908 211.888H0V213.888H60.4908V211.888ZM136.509 175.483C117.988 198.501 90.035 211.888 60.4908 211.888V213.888C90.6406 213.888 119.167 200.226 138.067 176.737L136.509 175.483ZM155.46 151.928L136.509 175.483L138.067 176.737L157.019 153.182L155.46 151.928ZM156.338 150.866C156.041 151.216 155.749 151.57 155.461 151.928L157.018 153.182C157.296 152.837 157.578 152.496 157.863 152.16L156.338 150.866ZM159.008 147.953C158.085 148.887 157.194 149.858 156.338 150.866L157.863 152.16C158.686 151.191 159.542 150.257 160.43 149.36L159.008 147.953ZM160.719 212.888V148.656H158.719V212.888H160.719ZM220.209 211.888H159.719V213.888H220.209V211.888ZM296.227 175.483C277.707 198.501 249.754 211.888 220.209 211.888V213.888C250.359 213.888 278.885 200.226 297.786 176.737L296.227 175.483ZM314.095 153.276L296.227 175.483L297.786 176.737L315.653 154.529L314.095 153.276ZM315.874 212.888V153.903H313.874V212.888H315.874ZM395.19 211.888H314.874V213.888H395.19V211.888ZM394.19 60.4707V212.888H396.19V60.4707H394.19ZM334.953 61.4707H395.19V59.4707H334.953V61.4707ZM256.898 100.499C275.324 75.9298 304.242 61.4707 334.953 61.4707V59.4707C303.613 59.4707 274.102 74.2262 255.298 99.2986L256.898 100.499ZM247.041 113.641L256.898 100.499L255.298 99.2986L245.441 112.441L247.041 113.641ZM236.06 124.476C240.19 121.465 243.901 117.827 247.041 113.641L245.441 112.441C242.421 116.467 238.853 119.965 234.882 122.86L236.06 124.476ZM234.471 60.4707V123.668H236.471V60.4707H234.471ZM918.514 80.9114V171.394H920.514V80.9114H918.514ZM959.573 79.9114H919.514V81.9114H959.573V79.9114ZM958.573 59.9015V80.9114H960.573V59.9015H958.573ZM919.514 60.9015H959.573V58.9015H919.514V60.9015ZM918.514 21.2432V59.9015H920.514V21.2432H918.514ZM894.022 22.2432H919.514V20.2432H894.022V22.2432ZM895.022 59.9015V21.2432H893.022V59.9015H895.022ZM874.133 60.9015H894.022V58.9015H874.133V60.9015ZM875.133 80.9114V59.9015H873.133V80.9114H875.133ZM894.022 79.9114H874.133V81.9114H894.022V79.9114ZM895.022 171.394V80.9114H893.022V171.394H895.022ZM905.345 202.874C898.543 196.61 895.022 186.207 895.022 171.394H893.022C893.022 186.463 896.598 197.537 903.99 204.345L905.345 202.874ZM936.602 212.414C922.544 212.414 912.186 209.175 905.345 202.874L903.99 204.345C911.342 211.117 922.274 214.414 936.602 214.414V212.414ZM959.573 212.414H936.602V214.414H959.573V212.414ZM958.573 191.844V213.414H960.573V191.844H958.573ZM940.804 192.844H959.573V190.844H940.804V192.844ZM923.591 188.09C927.052 191.348 932.89 192.844 940.804 192.844V190.844C933.031 190.844 927.851 189.352 924.962 186.634L923.591 188.09ZM918.514 171.394C918.514 178.963 920.115 184.615 923.569 188.069L924.984 186.655C922.088 183.759 920.514 178.766 920.514 171.394H918.514ZM739.28 207.004C751.204 213.629 764.446 216.935 778.984 216.935V214.935C764.762 214.935 751.858 211.704 740.251 205.256L739.28 207.004ZM711.441 178.887C718.251 190.994 727.531 200.372 739.274 207.001L740.257 205.259C728.842 198.816 719.821 189.705 713.184 177.907L711.441 178.887ZM701.508 136.377C701.508 152.392 704.806 166.566 711.432 178.871L713.193 177.923C706.746 165.95 703.508 152.111 703.508 136.377H701.508ZM711.721 94.4274C704.902 106.55 701.508 120.543 701.508 136.377H703.508C703.508 120.837 706.837 107.19 713.464 95.4079L711.721 94.4274ZM740.131 66.3045C728.193 72.7472 718.722 82.1287 711.723 94.423L713.462 95.4124C720.283 83.4284 729.488 74.3211 741.081 68.0646L740.131 66.3045ZM780.104 56.3799C765.382 56.3799 752.046 59.6847 740.12 66.3104L741.091 68.0587C752.696 61.6115 765.693 58.3799 780.104 58.3799V56.3799ZM820.089 66.3104C808.163 59.6847 794.827 56.3799 780.104 56.3799V58.3799C794.516 58.3799 807.513 61.6115 819.118 68.0587L820.089 66.3104ZM848.208 94.1472C841.395 82.0346 832.015 72.7464 820.078 66.3045L819.128 68.0646C830.723 74.322 839.832 83.3358 846.465 95.1278L848.208 94.1472ZM858.701 136.377C858.701 120.354 855.212 106.263 848.202 94.137L846.471 95.138C853.28 106.917 856.701 120.652 856.701 136.377H858.701ZM847.92 178.902C855.117 166.591 858.701 152.406 858.701 136.377H856.701C856.701 152.097 853.189 165.925 846.193 177.892L847.92 178.902ZM819.243 207.008C831.358 200.382 840.922 191.006 847.922 178.898L846.191 177.897C839.371 189.693 830.072 198.806 818.283 205.253L819.243 207.008ZM778.984 216.935C793.707 216.935 807.133 213.63 819.243 207.008L818.283 205.253C806.488 211.703 793.395 214.935 778.984 214.935V216.935ZM804.285 186.2C796.4 190.417 787.971 192.524 778.984 192.524V194.524C788.299 194.524 797.052 192.336 805.228 187.963L804.285 186.2ZM823.215 167.26C818.444 175.7 812.134 182.001 804.285 186.2L805.228 187.963C813.439 183.571 820.015 176.986 824.956 168.244L823.215 167.26ZM830.649 136.377C830.649 148.567 828.156 158.841 823.223 167.246L824.948 168.258C830.099 159.482 832.649 148.839 832.649 136.377H830.649ZM823.495 105.494C828.247 113.902 830.649 124.182 830.649 136.377H832.649C832.649 123.921 830.195 113.284 825.236 104.51L823.495 105.494ZM804.852 86.8392C812.506 90.8485 818.723 97.0516 823.495 105.494L825.236 104.51C820.297 95.7718 813.814 89.2756 805.78 85.0676L804.852 86.8392ZM779.824 80.5104C788.812 80.5104 797.143 82.6177 804.836 86.8305L805.797 85.0763C797.802 80.6984 789.139 78.5104 779.824 78.5104V80.5104ZM754.533 86.8305C762.222 82.6194 770.647 80.5104 779.824 80.5104V78.5104C770.326 78.5104 761.569 80.6967 753.572 85.0763L754.533 86.8305ZM736.442 105.48C741.03 97.0383 747.061 90.8398 754.525 86.8346L753.579 85.0722C745.73 89.2842 739.435 95.7851 734.685 104.525L736.442 105.48ZM729.56 136.377C729.56 124.176 731.871 113.891 736.442 105.48L734.685 104.525C729.918 113.296 727.56 123.927 727.56 136.377H729.56ZM736.17 167.57C731.781 159.157 729.56 148.774 729.56 136.377H727.56C727.56 149.005 729.822 159.726 734.397 168.495L736.17 167.57ZM754.261 186.489C746.787 182.296 740.751 175.999 736.162 167.555L734.405 168.51C739.153 177.247 745.443 183.836 753.283 188.234L754.261 186.489ZM778.984 192.524C769.989 192.524 761.749 190.507 754.245 186.48L753.299 188.243C761.109 192.433 769.677 194.524 778.984 194.524V192.524ZM610.829 58.1006C622.637 58.1006 633.115 60.59 642.289 65.5441L643.239 63.7843C633.738 58.6535 622.926 56.1006 610.829 56.1006V58.1006ZM578.29 66.9209C588.024 61.0437 598.863 58.1006 610.829 58.1006V56.1006C598.517 56.1006 587.318 59.1336 577.257 65.2088L578.29 66.9209ZM557.413 91.6454C561.628 81.0151 568.581 72.7831 578.29 66.9209L577.257 65.2088C567.17 71.2989 559.929 79.8748 555.554 90.9081L557.413 91.6454ZM533.848 66.6479C543.55 72.3228 550.789 80.6507 555.566 91.6744L557.401 90.8792C552.467 79.4922 544.952 70.8255 534.858 64.9215L533.848 66.6479ZM500.177 58.1006C512.908 58.1006 524.121 60.9588 533.848 66.6479L534.858 64.9215C524.788 59.0318 513.218 56.1006 500.177 56.1006V58.1006ZM472.331 64.4381C480.773 60.2169 490.049 58.1006 500.177 58.1006V56.1006C489.761 56.1006 480.175 58.2797 471.436 62.6492L472.331 64.4381ZM452.561 82.5642C457.508 74.6856 464.096 68.647 472.338 64.4341L471.428 62.6532C462.863 67.031 456.005 73.3182 450.867 81.5006L452.561 82.5642ZM450.714 59.9019V82.0324H452.714V59.9019H450.714ZM426.222 60.9019H451.714V58.9019H426.222V60.9019ZM427.222 213.415V59.9019H425.222V213.415H427.222ZM451.714 212.415H426.222V214.415H451.714V212.415ZM450.714 128.815V213.415H452.714V128.815H450.714ZM462.748 91.4348C454.673 100.087 450.714 112.601 450.714 128.815H452.714C452.714 112.906 456.598 100.956 464.21 92.7995L462.748 91.4348ZM495.134 78.2311C481.637 78.2311 470.801 82.6147 462.741 91.4429L464.218 92.7914C471.845 84.4382 482.112 80.2311 495.134 80.2311V78.2311ZM526.409 90.8842C518.718 82.4245 508.253 78.2311 495.134 78.2311V80.2311C507.788 80.2311 517.679 84.2549 524.929 92.2296L526.409 90.8842ZM538.154 126.573C538.154 111.102 534.285 99.1443 526.393 90.8668L524.945 92.247C532.366 100.03 536.154 111.418 536.154 126.573H538.154ZM538.154 213.415V126.573H536.154V213.415H538.154ZM562.366 212.415H537.154V214.415H562.366V212.415ZM561.366 128.815V213.415H563.366V128.815H561.366ZM573.401 91.4348C565.326 100.087 561.366 112.601 561.366 128.815H563.366C563.366 112.906 567.25 100.956 574.863 92.7995L573.401 91.4348ZM605.787 78.2311C592.289 78.2311 581.454 82.6147 573.393 91.4429L574.87 92.7914C582.497 84.4382 592.765 80.2311 605.787 80.2311V78.2311ZM637.061 90.8842C629.37 82.4245 618.905 78.2311 605.787 78.2311V80.2311C618.441 80.2311 628.332 84.2549 635.581 92.2296L637.061 90.8842ZM648.807 126.573C648.807 111.102 644.937 99.1443 637.045 90.8668L635.597 92.247C643.019 100.03 646.807 111.418 646.807 126.573H648.807ZM648.807 213.415V126.573H646.807V213.415H648.807ZM673.019 212.415H647.807V214.415H673.019V212.415ZM672.019 122.932V213.415H674.019V122.932H672.019ZM664.017 87.2747C669.335 96.9923 672.019 108.864 672.019 122.932H674.019C674.019 108.613 671.286 96.3931 665.772 86.3146L664.017 87.2747ZM642.303 65.5514C651.452 70.3089 658.69 77.5375 664.017 87.2747L665.772 86.3146C660.268 76.2558 652.752 68.7308 643.226 63.777L642.303 65.5514Z" fill="url(#paint4_linear_940_1364)" mask="url(#path-2-inside-1_940_1364)"/>
</g>
<path d="M11.72 175C11.72 174.4 11.812 173.86 11.996 173.38C12.188 172.892 12.52 172.428 12.992 171.988C13.472 171.548 14.136 171.104 14.984 170.656C15.376 170.448 15.692 170.256 15.932 170.08C16.172 169.904 16.348 169.716 16.46 169.516C16.572 169.316 16.628 169.072 16.628 168.784C16.628 168.488 16.564 168.232 16.436 168.016C16.308 167.792 16.116 167.616 15.86 167.488C15.612 167.36 15.3 167.296 14.924 167.296C14.324 167.296 13.848 167.452 13.496 167.764C13.152 168.076 12.936 168.52 12.848 169.096L11.768 169.024C11.864 168.192 12.184 167.528 12.728 167.032C13.272 166.536 14.004 166.288 14.924 166.288C15.508 166.288 16.008 166.392 16.424 166.6C16.84 166.808 17.156 167.1 17.372 167.476C17.596 167.844 17.708 168.272 17.708 168.76C17.708 169.192 17.636 169.568 17.492 169.888C17.348 170.2 17.104 170.492 16.76 170.764C16.424 171.036 15.96 171.328 15.368 171.64C14.6 172.048 14.016 172.46 13.616 172.876C13.224 173.292 13.016 173.664 12.992 173.992H17.708V175H11.72ZM22.6445 175.192C21.9565 175.192 21.3605 175.012 20.8565 174.652C20.3525 174.292 19.9605 173.78 19.6805 173.116C19.4085 172.452 19.2725 171.664 19.2725 170.752C19.2725 169.84 19.4085 169.052 19.6805 168.388C19.9605 167.716 20.3525 167.2 20.8565 166.84C21.3605 166.472 21.9565 166.288 22.6445 166.288C23.3405 166.288 23.9405 166.472 24.4445 166.84C24.9485 167.2 25.3365 167.712 25.6085 168.376C25.8885 169.04 26.0285 169.832 26.0285 170.752C26.0285 171.664 25.8885 172.452 25.6085 173.116C25.3365 173.78 24.9485 174.292 24.4445 174.652C23.9405 175.012 23.3405 175.192 22.6445 175.192ZM22.6445 174.184C23.3805 174.184 23.9485 173.888 24.3485 173.296C24.7485 172.696 24.9485 171.848 24.9485 170.752C24.9485 170.016 24.8565 169.392 24.6725 168.88C24.4965 168.36 24.2365 167.968 23.8925 167.704C23.5565 167.432 23.1405 167.296 22.6445 167.296C22.1565 167.296 21.7405 167.432 21.3965 167.704C21.0605 167.968 20.8005 168.36 20.6165 168.88C20.4405 169.392 20.3525 170.016 20.3525 170.752C20.3525 171.848 20.5525 172.696 20.9525 173.296C21.3525 173.888 21.9165 174.184 22.6445 174.184ZM27.5923 175C27.5923 174.4 27.6843 173.86 27.8683 173.38C28.0603 172.892 28.3923 172.428 28.8643 171.988C29.3443 171.548 30.0083 171.104 30.8563 170.656C31.2483 170.448 31.5643 170.256 31.8043 170.08C32.0443 169.904 32.2203 169.716 32.3323 169.516C32.4443 169.316 32.5003 169.072 32.5003 168.784C32.5003 168.488 32.4363 168.232 32.3083 168.016C32.1803 167.792 31.9883 167.616 31.7323 167.488C31.4843 167.36 31.1723 167.296 30.7963 167.296C30.1963 167.296 29.7203 167.452 29.3683 167.764C29.0243 168.076 28.8083 168.52 28.7203 169.096L27.6403 169.024C27.7363 168.192 28.0563 167.528 28.6003 167.032C29.1443 166.536 29.8763 166.288 30.7963 166.288C31.3803 166.288 31.8803 166.392 32.2963 166.6C32.7123 166.808 33.0283 167.1 33.2443 167.476C33.4683 167.844 33.5803 168.272 33.5803 168.76C33.5803 169.192 33.5083 169.568 33.3643 169.888C33.2203 170.2 32.9763 170.492 32.6323 170.764C32.2963 171.036 31.8323 171.328 31.2403 171.64C30.4723 172.048 29.8883 172.46 29.4883 172.876C29.0963 173.292 28.8883 173.664 28.8643 173.992H33.5803V175H27.5923ZM38.406 175.192C37.806 175.192 37.286 175.092 36.846 174.892C36.414 174.692 36.07 174.412 35.814 174.052C35.566 173.692 35.422 173.276 35.382 172.804L36.462 172.732C36.526 173.212 36.73 173.576 37.074 173.824C37.426 174.064 37.87 174.184 38.406 174.184C39.006 174.184 39.482 174.016 39.834 173.68C40.186 173.336 40.362 172.864 40.362 172.264C40.362 171.864 40.282 171.52 40.122 171.232C39.97 170.936 39.746 170.708 39.45 170.548C39.154 170.388 38.798 170.308 38.382 170.308C37.99 170.308 37.634 170.392 37.314 170.56C36.994 170.728 36.766 170.964 36.63 171.268H35.526L36.09 166.48H40.866V167.488H37.038L36.654 170.632L36.462 170.44C36.59 170.192 36.758 169.988 36.966 169.828C37.182 169.66 37.426 169.536 37.698 169.456C37.978 169.368 38.27 169.324 38.574 169.324C39.142 169.324 39.642 169.452 40.074 169.708C40.506 169.956 40.842 170.304 41.082 170.752C41.322 171.192 41.442 171.696 41.442 172.264C41.442 172.832 41.314 173.34 41.058 173.788C40.802 174.228 40.446 174.572 39.99 174.82C39.534 175.068 39.006 175.192 38.406 175.192ZM43.0618 175V173.644H44.4178V175H43.0618ZM11.24 188L14.312 179.48H15.704L18.776 188H17.648L16.796 185.576H13.22L12.368 188H11.24ZM13.568 184.568H16.448L15.008 180.38L13.568 184.568ZM21.3492 188C20.9812 188 20.6812 187.904 20.4492 187.712C20.2172 187.52 20.1012 187.216 20.1012 186.8V179.48H21.1092V186.716C21.1092 186.844 21.1412 186.944 21.2052 187.016C21.2772 187.08 21.3772 187.112 21.5052 187.112H22.0572V188H21.3492ZM24.7913 188C24.4233 188 24.1233 187.904 23.8913 187.712C23.6593 187.52 23.5433 187.216 23.5433 186.8V179.48H24.5513V186.716C24.5513 186.844 24.5833 186.944 24.6473 187.016C24.7193 187.08 24.8193 187.112 24.9473 187.112H25.4993V188H24.7913ZM30.6065 188V179.48H33.8345C34.4345 179.48 34.9505 179.584 35.3825 179.792C35.8145 180 36.1465 180.3 36.3785 180.692C36.6185 181.076 36.7385 181.532 36.7385 182.06C36.7385 182.444 36.6465 182.788 36.4625 183.092C36.2865 183.388 36.0585 183.624 35.7785 183.8C35.4985 183.976 35.2065 184.072 34.9025 184.088L34.8305 183.98C35.3505 183.98 35.7585 184.1 36.0545 184.34C36.3585 184.58 36.5345 184.964 36.5825 185.492L36.8225 188H35.7785L35.5625 185.6C35.5305 185.248 35.4025 184.988 35.1785 184.82C34.9625 184.652 34.6065 184.568 34.1105 184.568H31.6385V188H30.6065ZM31.6385 183.56H33.9665C34.4865 183.56 34.8985 183.428 35.2025 183.164C35.5065 182.9 35.6585 182.524 35.6585 182.036C35.6585 181.54 35.5025 181.16 35.1905 180.896C34.8785 180.624 34.4265 180.488 33.8345 180.488H31.6385V183.56ZM38.885 188V181.64H39.893V188H38.885ZM38.861 180.644V179.468H39.917V180.644H38.861ZM44.4695 189.944C44.0135 189.944 43.6015 189.868 43.2335 189.716C42.8655 189.564 42.5575 189.348 42.3095 189.068C42.0615 188.788 41.8935 188.464 41.8055 188.096L42.8615 188.024C42.9575 188.32 43.1255 188.552 43.3655 188.72C43.6135 188.896 43.9815 188.984 44.4695 188.984C45.0455 188.984 45.4855 188.868 45.7895 188.636C46.1015 188.404 46.2575 188.056 46.2575 187.592V186.56C46.1055 186.896 45.8615 187.164 45.5255 187.364C45.1895 187.564 44.8135 187.664 44.3975 187.664C43.8615 187.664 43.3815 187.532 42.9575 187.268C42.5415 187.004 42.2135 186.64 41.9735 186.176C41.7415 185.712 41.6255 185.18 41.6255 184.58C41.6255 183.972 41.7415 183.44 41.9735 182.984C42.2055 182.52 42.5255 182.156 42.9335 181.892C43.3495 181.628 43.8215 181.496 44.3495 181.496C44.7975 181.496 45.1975 181.6 45.5495 181.808C45.9095 182.016 46.1615 182.296 46.3055 182.648V181.64H47.2655V187.568C47.2655 188.064 47.1535 188.488 46.9295 188.84C46.7055 189.2 46.3855 189.472 45.9695 189.656C45.5535 189.848 45.0535 189.944 44.4695 189.944ZM44.4455 186.704C44.9895 186.704 45.4255 186.516 45.7535 186.14C46.0815 185.756 46.2495 185.236 46.2575 184.58C46.2655 184.14 46.1935 183.764 46.0415 183.452C45.8975 183.132 45.6855 182.888 45.4055 182.72C45.1335 182.544 44.8135 182.456 44.4455 182.456C43.8855 182.456 43.4495 182.648 43.1375 183.032C42.8335 183.408 42.6815 183.924 42.6815 184.58C42.6815 185.236 42.8375 185.756 43.1495 186.14C43.4695 186.516 43.9015 186.704 44.4455 186.704ZM49.3667 188V179.48H50.3747V183.044L50.2547 183.02C50.3347 182.668 50.4707 182.38 50.6627 182.156C50.8547 181.932 51.0907 181.768 51.3707 181.664C51.6507 181.552 51.9587 181.496 52.2947 181.496C52.7507 181.496 53.1347 181.6 53.4467 181.808C53.7667 182.008 54.0067 182.292 54.1667 182.66C54.3347 183.02 54.4187 183.436 54.4187 183.908V188H53.4107V184.196C53.4107 183.58 53.2987 183.124 53.0747 182.828C52.8587 182.532 52.5267 182.384 52.0787 182.384C51.5667 182.384 51.1547 182.54 50.8427 182.852C50.5307 183.164 50.3747 183.616 50.3747 184.208V188H49.3667ZM58.5469 188C57.9709 188 57.5429 187.868 57.2629 187.604C56.9909 187.34 56.8549 186.928 56.8549 186.368V180.152H57.8629V186.344C57.8629 186.632 57.9269 186.832 58.0549 186.944C58.1829 187.056 58.3789 187.112 58.6429 187.112H59.5549V188H58.5469ZM55.9189 182.528V181.64H59.5549V182.528H55.9189ZM63.4066 188.144C62.8386 188.144 62.3546 188.052 61.9546 187.868C61.5626 187.684 61.2546 187.432 61.0306 187.112C60.8146 186.784 60.6906 186.412 60.6586 185.996L61.7146 185.924C61.7786 186.308 61.9426 186.616 62.2066 186.848C62.4706 187.072 62.8706 187.184 63.4066 187.184C63.8386 187.184 64.1826 187.116 64.4386 186.98C64.7026 186.836 64.8346 186.608 64.8346 186.296C64.8346 186.128 64.7946 185.988 64.7146 185.876C64.6346 185.764 64.4786 185.668 64.2466 185.588C64.0146 185.5 63.6706 185.416 63.2146 185.336C62.6066 185.224 62.1266 185.088 61.7746 184.928C61.4306 184.76 61.1826 184.556 61.0306 184.316C60.8866 184.068 60.8146 183.776 60.8146 183.44C60.8146 182.872 61.0226 182.408 61.4386 182.048C61.8546 181.68 62.4466 181.496 63.2146 181.496C63.7346 181.496 64.1706 181.592 64.5226 181.784C64.8826 181.968 65.1626 182.216 65.3626 182.528C65.5706 182.832 65.7066 183.168 65.7706 183.536L64.7146 183.608C64.6666 183.384 64.5786 183.188 64.4506 183.02C64.3226 182.844 64.1546 182.708 63.9466 182.612C63.7386 182.508 63.4906 182.456 63.2026 182.456C62.7466 182.456 62.4106 182.544 62.1946 182.72C61.9786 182.896 61.8706 183.12 61.8706 183.392C61.8706 183.6 61.9186 183.772 62.0146 183.908C62.1186 184.036 62.2826 184.144 62.5066 184.232C62.7306 184.312 63.0306 184.384 63.4066 184.448C64.0546 184.56 64.5586 184.696 64.9186 184.856C65.2786 185.016 65.5306 185.212 65.6746 185.444C65.8186 185.676 65.8906 185.96 65.8906 186.296C65.8906 186.688 65.7786 187.024 65.5546 187.304C65.3386 187.576 65.0426 187.784 64.6666 187.928C64.2986 188.072 63.8786 188.144 63.4066 188.144ZM12.104 201V192.48H15.332C15.932 192.48 16.448 192.584 16.88 192.792C17.312 193 17.644 193.3 17.876 193.692C18.116 194.076 18.236 194.532 18.236 195.06C18.236 195.444 18.144 195.788 17.96 196.092C17.784 196.388 17.556 196.624 17.276 196.8C16.996 196.976 16.704 197.072 16.4 197.088L16.328 196.98C16.848 196.98 17.256 197.1 17.552 197.34C17.856 197.58 18.032 197.964 18.08 198.492L18.32 201H17.276L17.06 198.6C17.028 198.248 16.9 197.988 16.676 197.82C16.46 197.652 16.104 197.568 15.608 197.568H13.136V201H12.104ZM13.136 196.56H15.464C15.984 196.56 16.396 196.428 16.7 196.164C17.004 195.9 17.156 195.524 17.156 195.036C17.156 194.54 17 194.16 16.688 193.896C16.376 193.624 15.924 193.488 15.332 193.488H13.136V196.56ZM22.7259 201.144C22.1259 201.144 21.6059 201.008 21.1659 200.736C20.7339 200.464 20.3979 200.08 20.1579 199.584C19.9259 199.08 19.8099 198.492 19.8099 197.82C19.8099 197.148 19.9259 196.564 20.1579 196.068C20.3979 195.572 20.7299 195.188 21.1539 194.916C21.5859 194.636 22.0939 194.496 22.6779 194.496C23.2299 194.496 23.7179 194.628 24.1419 194.892C24.5659 195.148 24.8939 195.524 25.1259 196.02C25.3659 196.516 25.4859 197.12 25.4859 197.832V198.132H20.8659C20.9059 198.812 21.0859 199.324 21.4059 199.668C21.7339 200.012 22.1739 200.184 22.7259 200.184C23.1419 200.184 23.4819 200.088 23.7459 199.896C24.0179 199.696 24.2059 199.436 24.3099 199.116L25.3899 199.2C25.2219 199.768 24.9019 200.236 24.4299 200.604C23.9659 200.964 23.3979 201.144 22.7259 201.144ZM20.8659 197.244H24.3819C24.3339 196.628 24.1539 196.176 23.8419 195.888C23.5379 195.6 23.1499 195.456 22.6779 195.456C22.1899 195.456 21.7859 195.608 21.4659 195.912C21.1539 196.208 20.9539 196.652 20.8659 197.244ZM29.5273 201.144C28.9593 201.144 28.4753 201.052 28.0753 200.868C27.6833 200.684 27.3753 200.432 27.1513 200.112C26.9353 199.784 26.8113 199.412 26.7793 198.996L27.8353 198.924C27.8993 199.308 28.0633 199.616 28.3273 199.848C28.5913 200.072 28.9913 200.184 29.5273 200.184C29.9593 200.184 30.3033 200.116 30.5593 199.98C30.8233 199.836 30.9553 199.608 30.9553 199.296C30.9553 199.128 30.9153 198.988 30.8353 198.876C30.7553 198.764 30.5993 198.668 30.3673 198.588C30.1353 198.5 29.7913 198.416 29.3353 198.336C28.7273 198.224 28.2473 198.088 27.8953 197.928C27.5513 197.76 27.3033 197.556 27.1513 197.316C27.0073 197.068 26.9353 196.776 26.9353 196.44C26.9353 195.872 27.1433 195.408 27.5593 195.048C27.9753 194.68 28.5673 194.496 29.3353 194.496C29.8553 194.496 30.2913 194.592 30.6433 194.784C31.0033 194.968 31.2833 195.216 31.4833 195.528C31.6913 195.832 31.8273 196.168 31.8913 196.536L30.8353 196.608C30.7873 196.384 30.6993 196.188 30.5713 196.02C30.4433 195.844 30.2753 195.708 30.0673 195.612C29.8593 195.508 29.6113 195.456 29.3233 195.456C28.8673 195.456 28.5313 195.544 28.3153 195.72C28.0993 195.896 27.9913 196.12 27.9913 196.392C27.9913 196.6 28.0393 196.772 28.1353 196.908C28.2393 197.036 28.4033 197.144 28.6273 197.232C28.8513 197.312 29.1513 197.384 29.5273 197.448C30.1753 197.56 30.6793 197.696 31.0393 197.856C31.3993 198.016 31.6513 198.212 31.7953 198.444C31.9393 198.676 32.0113 198.96 32.0113 199.296C32.0113 199.688 31.8993 200.024 31.6753 200.304C31.4593 200.576 31.1633 200.784 30.7873 200.928C30.4193 201.072 29.9993 201.144 29.5273 201.144ZM36.231 201.144C35.631 201.144 35.111 201.008 34.671 200.736C34.239 200.464 33.903 200.08 33.663 199.584C33.431 199.08 33.315 198.492 33.315 197.82C33.315 197.148 33.431 196.564 33.663 196.068C33.903 195.572 34.235 195.188 34.659 194.916C35.091 194.636 35.599 194.496 36.183 194.496C36.735 194.496 37.223 194.628 37.647 194.892C38.071 195.148 38.399 195.524 38.631 196.02C38.871 196.516 38.991 197.12 38.991 197.832V198.132H34.371C34.411 198.812 34.591 199.324 34.911 199.668C35.239 200.012 35.679 200.184 36.231 200.184C36.647 200.184 36.987 200.088 37.251 199.896C37.523 199.696 37.711 199.436 37.815 199.116L38.895 199.2C38.727 199.768 38.407 200.236 37.935 200.604C37.471 200.964 36.903 201.144 36.231 201.144ZM34.371 197.244H37.887C37.839 196.628 37.659 196.176 37.347 195.888C37.043 195.6 36.655 195.456 36.183 195.456C35.695 195.456 35.291 195.608 34.971 195.912C34.659 196.208 34.459 196.652 34.371 197.244ZM40.7164 201V194.64H41.6044L41.6524 196.248L41.5564 196.212C41.6364 195.668 41.8084 195.272 42.0724 195.024C42.3444 194.768 42.7044 194.64 43.1524 194.64H43.7764V195.6H43.1644C42.8444 195.6 42.5764 195.66 42.3604 195.78C42.1524 195.892 41.9924 196.064 41.8804 196.296C41.7764 196.52 41.7244 196.808 41.7244 197.16V201H40.7164ZM46.9386 201L44.6226 194.64H45.7266L47.5746 199.968L49.4226 194.64H50.5266L48.2106 201H46.9386ZM54.2798 201.144C53.6798 201.144 53.1598 201.008 52.7198 200.736C52.2878 200.464 51.9518 200.08 51.7118 199.584C51.4798 199.08 51.3638 198.492 51.3638 197.82C51.3638 197.148 51.4798 196.564 51.7118 196.068C51.9518 195.572 52.2838 195.188 52.7078 194.916C53.1398 194.636 53.6478 194.496 54.2318 194.496C54.7838 194.496 55.2718 194.628 55.6958 194.892C56.1198 195.148 56.4478 195.524 56.6798 196.02C56.9198 196.516 57.0398 197.12 57.0398 197.832V198.132H52.4198C52.4598 198.812 52.6398 199.324 52.9598 199.668C53.2878 200.012 53.7278 200.184 54.2798 200.184C54.6958 200.184 55.0358 200.088 55.2998 199.896C55.5718 199.696 55.7598 199.436 55.8638 199.116L56.9438 199.2C56.7758 199.768 56.4558 200.236 55.9838 200.604C55.5198 200.964 54.9518 201.144 54.2798 201.144ZM52.4198 197.244H55.9358C55.8878 196.628 55.7078 196.176 55.3958 195.888C55.0918 195.6 54.7038 195.456 54.2318 195.456C53.7438 195.456 53.3398 195.608 53.0198 195.912C52.7078 196.208 52.5078 196.652 52.4198 197.244ZM61.0212 201.144C60.4692 201.144 59.9892 201.008 59.5812 200.736C59.1812 200.464 58.8732 200.08 58.6572 199.584C58.4412 199.088 58.3332 198.5 58.3332 197.82C58.3332 197.14 58.4412 196.552 58.6572 196.056C58.8732 195.56 59.1812 195.176 59.5812 194.904C59.9892 194.632 60.4692 194.496 61.0212 194.496C61.4452 194.496 61.8332 194.588 62.1852 194.772C62.5372 194.948 62.8012 195.2 62.9772 195.528V192.48H63.9852V201H63.0732L63.0372 200.04C62.8612 200.384 62.5932 200.656 62.2332 200.856C61.8732 201.048 61.4692 201.144 61.0212 201.144ZM61.2252 200.184C61.6012 200.184 61.9172 200.088 62.1732 199.896C62.4372 199.704 62.6372 199.432 62.7732 199.08C62.9092 198.72 62.9772 198.3 62.9772 197.82C62.9772 197.324 62.9092 196.9 62.7732 196.548C62.6372 196.196 62.4372 195.928 62.1732 195.744C61.9172 195.552 61.6012 195.456 61.2252 195.456C60.6652 195.456 60.2172 195.668 59.8812 196.092C59.5532 196.508 59.3892 197.084 59.3892 197.82C59.3892 198.548 59.5532 199.124 59.8812 199.548C60.2172 199.972 60.6652 200.184 61.2252 200.184Z" fill="white" fill-opacity="0.6"/>
</g>
<defs>
<radialGradient id="paint0_radial_940_1364" cx="0" cy="0" r="1" gradientUnits="userSpaceOnUse" gradientTransform="translate(1015 -35.5) rotate(79.0674) scale(253.093 1314.76)">
<stop offset="0.25489" stop-color="#D9D9D9"/>
<stop offset="1" stop-color="#737373" stop-opacity="0"/>
</radialGradient>
<linearGradient id="paint1_linear_940_1364" x1="0" y1="106.5" x2="1200" y2="106.5" gradientUnits="userSpaceOnUse">
<stop/>
<stop offset="0.61254" stop-opacity="0"/>
</linearGradient>
<linearGradient id="paint2_linear_940_1364" x1="600.012" y1="0.234375" x2="600.012" y2="215.935" gradientUnits="userSpaceOnUse">
<stop stop-color="#E3E4FF"/>
<stop offset="1" stop-color="#888999"/>
</linearGradient>
<radialGradient id="paint3_radial_940_1364" cx="0" cy="0" r="1" gradientUnits="userSpaceOnUse" gradientTransform="translate(832.5 -205) rotate(70.8371) scale(510.275 1880.86)">
<stop offset="0.587372" stop-color="white" stop-opacity="0"/>
<stop offset="0.951237" stop-color="#0055FF"/>
</radialGradient>
<linearGradient id="paint4_linear_940_1364" x1="600.012" y1="0.234387" x2="600.012" y2="215.935" gradientUnits="userSpaceOnUse">
<stop offset="0.576597" stop-color="#B7C3FF"/>
<stop offset="1" stop-color="#C0CFFF" stop-opacity="0.1"/>
</linearGradient>
</defs>
</svg>
