<svg width="1248" height="842" viewBox="0 0 1248 842" fill="none" xmlns="http://www.w3.org/2000/svg">
<g filter="url(#filter0_f_1070_1646)">
<path d="M281.999 714L659.499 403L153 515.5L659.499 253.5L1237.5 3.99951L1126 309.5L1103 431L899.749 719L846.999 648V572L467.499 823.5L1103 253.5L281.999 714Z" fill="#003EE9" fill-opacity="0.3"/>
</g>
<g filter="url(#filter1_f_1070_1646)">
<path d="M358.084 680.923L666.291 427.391L131.499 508L734.499 330.5L1217 -4.00049L1047.16 351.168L918.979 595.326L784.999 692L819.373 565.163L509.534 770.19L1030.5 299.5L768.499 415.5L358.084 680.923Z" fill="#003EE9" fill-opacity="0.5"/>
</g>
<g filter="url(#filter2_f_1070_1646)">
<path d="M403.956 663.919L697.708 422.556L242.5 513L697.708 306.531L1204 -16.5005L1060.72 349.992L938.547 582.43L908.5 656H843.612V553.715L548.303 748.901L873 479L1016.5 306.531L873 317L403.956 663.919Z" fill="#1452FC" fill-opacity="0.5"/>
</g>
<defs>
<filter id="filter0_f_1070_1646" x="-47" y="-196" width="1484.5" height="1219.5" filterUnits="userSpaceOnUse" color-interpolation-filters="sRGB">
<feFlood flood-opacity="0" result="BackgroundImageFix"/>
<feBlend mode="normal" in="SourceGraphic" in2="BackgroundImageFix" result="shape"/>
<feGaussianBlur stdDeviation="100" result="effect1_foregroundBlur_1070_1646"/>
</filter>
<filter id="filter1_f_1070_1646" x="-18.501" y="-154" width="1385.5" height="1074.19" filterUnits="userSpaceOnUse" color-interpolation-filters="sRGB">
<feFlood flood-opacity="0" result="BackgroundImageFix"/>
<feBlend mode="normal" in="SourceGraphic" in2="BackgroundImageFix" result="shape"/>
<feGaussianBlur stdDeviation="75" result="effect1_foregroundBlur_1070_1646"/>
</filter>
<filter id="filter2_f_1070_1646" x="122.5" y="-136.5" width="1201.5" height="1005.4" filterUnits="userSpaceOnUse" color-interpolation-filters="sRGB">
<feFlood flood-opacity="0" result="BackgroundImageFix"/>
<feBlend mode="normal" in="SourceGraphic" in2="BackgroundImageFix" result="shape"/>
<feGaussianBlur stdDeviation="60" result="effect1_foregroundBlur_1070_1646"/>
</filter>
</defs>
</svg>
