<svg width="945" height="125" viewBox="0 0 945 125" fill="none" xmlns="http://www.w3.org/2000/svg">
<path d="M943.688 0.5V122.531H922.952V105.462L922.022 107.028C915.201 118.516 904.172 124.5 890.672 124.5C867.274 124.5 848.688 106.226 848.688 77.0996C848.689 47.9734 867.274 29.6994 890.672 29.6992C904.332 29.6992 915.185 35.842 921.35 47.8018L922.294 47.5723V0.5H943.688ZM896.436 49.041C888.31 49.041 881.75 52.2162 877.228 57.3291C872.711 62.4357 870.248 69.4487 870.248 77.0996C870.248 84.7506 872.711 91.7635 877.228 96.8701C881.75 101.983 888.31 105.159 896.436 105.159C904.723 105.159 911.366 101.986 915.931 96.8721C920.49 91.7648 922.952 84.7507 922.952 77.0996C922.952 69.4488 920.49 62.4354 915.931 57.3281C911.366 52.2144 904.723 49.041 896.436 49.041Z" fill="white" fill-opacity="0.8" stroke="white"/>
<path d="M775.651 31.5V85.2305C775.651 91.0571 777.083 95.9139 780.012 99.3203C782.951 102.738 787.34 104.629 793.107 104.629C799.122 104.629 803.556 102.611 806.475 99.043C809.379 95.4917 810.726 90.4739 810.726 84.5732V31.5H831.688V85.3955C831.688 97.0651 828.681 106.828 822.374 113.671C816.073 120.506 806.411 124.5 792.946 124.5C779.482 124.5 769.944 120.507 763.765 113.675C757.577 106.834 754.689 97.07 754.688 85.3955V31.5H775.651Z" fill="white" fill-opacity="0.8" stroke="white"/>
<path d="M690.106 29.5C718.049 29.5 737.688 50.1464 737.688 77C737.688 103.854 718.049 124.5 690.106 124.5C662.329 124.5 642.688 103.855 642.688 77C642.688 50.1452 662.329 29.5 690.106 29.5ZM690.106 49.541C682.177 49.541 675.682 52.5548 671.173 57.5127C666.668 62.4659 664.171 69.3309 664.171 77C664.171 84.6691 666.668 91.5341 671.173 96.4873C675.682 101.445 682.177 104.459 690.106 104.459C698.116 104.459 704.653 101.447 709.184 96.4883C713.71 91.5348 716.206 84.6692 716.206 77C716.206 69.3308 713.71 62.4652 709.184 57.5117C704.653 52.5534 698.116 49.541 690.106 49.541Z" fill="white" fill-opacity="0.8" stroke="white"/>
<path d="M623.688 0.5V122.5H602.688V0.5H623.688Z" fill="white" fill-opacity="0.8" stroke="white"/>
<path d="M553.273 6.5C565.744 6.5 576.161 9.37784 584.688 12.9258V35.5361C573.572 30.2918 564.074 27.2559 553.925 27.2559C530.839 27.2559 515.647 43.9751 515.647 65.5C515.647 86.6923 530.837 103.744 553.925 103.744C564.083 103.744 573.43 100.541 584.688 95.4463V118.073C576.161 121.621 565.744 124.5 553.273 124.5C518.374 124.5 493.688 99.8327 493.688 65.5C493.688 31.1673 518.374 6.5 553.273 6.5Z" fill="white" fill-opacity="0.8" stroke="white"/>
<path d="M400.274 29.5C413.667 29.5 422.993 33.4537 428.979 40.1621C434.973 46.8808 437.688 56.4419 437.688 67.7949V122.527H416.834V108.886L415.905 110.442C410.703 119.159 401.434 124.5 389.844 124.5C381.594 124.5 375.062 121.826 370.595 117.471C366.127 113.115 363.688 107.043 363.688 100.178C363.689 87.194 372.3 77.8928 386.503 73.0977L387.184 72.873H387.185L415.495 63.667L415.887 63.54L415.837 63.1318C415.248 58.2863 413.636 54.8072 410.654 52.5596C407.69 50.3256 403.461 49.377 397.791 49.377C390.068 49.377 381.085 51.1429 368.655 55.2676V34.9619C379.442 31.7379 390.19 29.5 400.274 29.5ZM415.52 78.9893L396.977 84.9072L396.972 84.9092C389.945 87.2347 385.37 91.3024 385.37 97.2188C385.37 103.634 390.788 108.568 398.453 108.568C407.809 108.568 416.172 101.466 416.172 90.9727V78.7812L415.52 78.9893Z" fill="white" fill-opacity="0.8" stroke="white"/>
<path d="M345.36 31.291V122.5H324.017V31.291H345.36ZM345.688 0.5V17.4482H323.688V0.5H345.688Z" fill="white" fill-opacity="0.8" stroke="white"/>
<path d="M284.104 31.6348H305.688V50.6514H284.104V91.8418C284.104 96.2015 284.714 99.1663 286.418 101.02C288.135 102.887 290.841 103.499 294.654 103.499C298.284 103.499 302.049 102.903 305.523 102.143V121.779C300.547 122.726 295.28 123.5 289.711 123.5C279.397 123.5 272.69 121.095 268.542 116.389C264.381 111.667 262.694 104.52 262.694 94.7949V50.6514H248.688V31.6348H262.694V14.292L284.104 8.64844V31.6348Z" fill="white" fill-opacity="0.8" stroke="white"/>
<path d="M193.607 29.5C221.251 29.5001 240.688 50.1414 240.688 77C240.688 103.859 221.251 124.5 193.607 124.5C166.127 124.5 146.688 103.86 146.688 77C146.688 50.1402 166.127 29.5 193.607 29.5ZM193.607 49.541C185.758 49.541 179.328 52.5562 174.865 57.5146C170.407 62.468 167.937 69.3323 167.937 77C167.937 84.6677 170.407 91.532 174.865 96.4854C179.328 101.444 185.758 104.459 193.607 104.459C201.537 104.459 208.008 101.445 212.491 96.4863C216.97 91.5327 219.44 84.6677 219.44 77C219.44 69.3323 216.97 62.4673 212.491 57.5137C208.008 52.5548 201.537 49.5411 193.607 49.541Z" fill="white" fill-opacity="0.8" stroke="white"/>
<path d="M40.3818 8.5L60.5752 86.9814L64.5312 104.219L64.6201 104.607H65.7461L65.8359 104.219L69.791 86.9844L90.4775 8.5H128.688V122.5H107.584V24.2646L106.602 24.1328L79.8135 122.5H48.7402L26.5703 40.3984L22.2832 23.1582L22.1895 22.7783H20.959L20.9688 23.2881L21.2988 41.0303V122.5H0.688477V8.5H40.3818Z" fill="white" fill-opacity="0.8" stroke="white"/>
</svg>
