<svg width="551" height="49" viewBox="0 0 551 49" fill="none" xmlns="http://www.w3.org/2000/svg">
<mask id="path-1-inside-1_1235_1235" fill="white">
<path d="M0 -0.680664H48V48.3193H0V-0.680664Z"/>
</mask>
<path d="M48 48.3193V47.3193H0V48.3193V49.3193H48V48.3193Z" fill="white" mask="url(#path-1-inside-1_1235_1235)"/>
<path d="M1.104 28.3193V19.7993H4.164C5.116 19.7993 5.856 20.0273 6.384 20.4833C6.912 20.9393 7.176 21.5713 7.176 22.3793C7.176 22.9233 7.056 23.3953 6.816 23.7953C6.576 24.1873 6.232 24.4873 5.784 24.6953C5.336 24.9033 4.796 25.0073 4.164 25.0073H2.136V28.3193H1.104ZM2.136 23.9993H4.164C4.804 23.9993 5.284 23.8633 5.604 23.5913C5.932 23.3193 6.096 22.9153 6.096 22.3793C6.096 21.8593 5.932 21.4673 5.604 21.2033C5.284 20.9393 4.804 20.8073 4.164 20.8073H2.136V23.9993ZM9.0075 28.3193V21.9593H9.8955L9.9435 23.5673L9.8475 23.5313C9.9275 22.9873 10.0995 22.5913 10.3635 22.3433C10.6355 22.0873 10.9955 21.9593 11.4435 21.9593H12.0675V22.9193H11.4555C11.1355 22.9193 10.8675 22.9793 10.6515 23.0993C10.4435 23.2113 10.2835 23.3833 10.1715 23.6153C10.0675 23.8393 10.0155 24.1273 10.0155 24.4793V28.3193H9.0075ZM15.9179 28.4633C15.3339 28.4633 14.8219 28.3273 14.3819 28.0553C13.9419 27.7833 13.6019 27.3993 13.3619 26.9033C13.1219 26.3993 13.0019 25.8113 13.0019 25.1393C13.0019 24.4593 13.1219 23.8713 13.3619 23.3753C13.6019 22.8793 13.9419 22.4953 14.3819 22.2233C14.8219 21.9513 15.3339 21.8153 15.9179 21.8153C16.5019 21.8153 17.0099 21.9513 17.4419 22.2233C17.8819 22.4953 18.2219 22.8793 18.4619 23.3753C18.7019 23.8713 18.8219 24.4593 18.8219 25.1393C18.8219 25.8113 18.7019 26.3993 18.4619 26.9033C18.2219 27.3993 17.8819 27.7833 17.4419 28.0553C17.0099 28.3273 16.5019 28.4633 15.9179 28.4633ZM15.9179 27.5033C16.5019 27.5033 16.9539 27.2953 17.2739 26.8793C17.6019 26.4553 17.7659 25.8753 17.7659 25.1393C17.7659 24.4033 17.6019 23.8273 17.2739 23.4113C16.9539 22.9873 16.5019 22.7753 15.9179 22.7753C15.3339 22.7753 14.8779 22.9873 14.5499 23.4113C14.2219 23.8273 14.0579 24.4033 14.0579 25.1393C14.0579 25.8753 14.2219 26.4553 14.5499 26.8793C14.8779 27.2953 15.3339 27.5033 15.9179 27.5033ZM19.5356 30.1193V29.2313H20.0516C20.2596 29.2313 20.4276 29.1793 20.5556 29.0753C20.6836 28.9793 20.7476 28.7993 20.7476 28.5353V21.9593H21.7556V28.5833C21.7556 29.1433 21.6316 29.5393 21.3836 29.7713C21.1356 30.0033 20.7236 30.1193 20.1476 30.1193H19.5356ZM20.7236 20.9633V19.7873H21.7796V20.9633H20.7236ZM26.3996 28.4633C25.7996 28.4633 25.2796 28.3273 24.8396 28.0553C24.4076 27.7833 24.0716 27.3993 23.8316 26.9033C23.5996 26.3993 23.4836 25.8113 23.4836 25.1393C23.4836 24.4673 23.5996 23.8833 23.8316 23.3873C24.0716 22.8913 24.4036 22.5073 24.8276 22.2353C25.2596 21.9553 25.7676 21.8153 26.3516 21.8153C26.9036 21.8153 27.3916 21.9473 27.8156 22.2113C28.2396 22.4673 28.5676 22.8433 28.7996 23.3393C29.0396 23.8353 29.1596 24.4393 29.1596 25.1513V25.4513H24.5396C24.5796 26.1313 24.7596 26.6433 25.0796 26.9873C25.4076 27.3313 25.8476 27.5033 26.3996 27.5033C26.8156 27.5033 27.1556 27.4073 27.4196 27.2153C27.6916 27.0153 27.8796 26.7553 27.9836 26.4353L29.0636 26.5193C28.8956 27.0873 28.5756 27.5553 28.1036 27.9233C27.6396 28.2833 27.0716 28.4633 26.3996 28.4633ZM24.5396 24.5633H28.0556C28.0076 23.9473 27.8276 23.4953 27.5156 23.2073C27.2116 22.9193 26.8236 22.7753 26.3516 22.7753C25.8636 22.7753 25.4596 22.9273 25.1396 23.2313C24.8276 23.5273 24.6276 23.9713 24.5396 24.5633ZM33.369 28.4633C32.777 28.4633 32.261 28.3273 31.821 28.0553C31.389 27.7833 31.053 27.3993 30.813 26.9033C30.573 26.3993 30.453 25.8113 30.453 25.1393C30.453 24.4673 30.573 23.8833 30.813 23.3873C31.053 22.8913 31.389 22.5073 31.821 22.2353C32.261 21.9553 32.777 21.8153 33.369 21.8153C33.857 21.8153 34.289 21.9033 34.665 22.0793C35.049 22.2473 35.361 22.4953 35.601 22.8233C35.841 23.1513 35.997 23.5513 36.069 24.0233L35.013 24.0953C34.941 23.6713 34.757 23.3473 34.461 23.1233C34.165 22.8913 33.801 22.7753 33.369 22.7753C32.785 22.7753 32.329 22.9873 32.001 23.4113C31.673 23.8273 31.509 24.4033 31.509 25.1393C31.509 25.8753 31.673 26.4553 32.001 26.8793C32.329 27.2953 32.785 27.5033 33.369 27.5033C33.801 27.5033 34.165 27.3833 34.461 27.1433C34.757 26.9033 34.941 26.5433 35.013 26.0633L36.069 26.1353C35.997 26.6073 35.841 27.0193 35.601 27.3713C35.361 27.7153 35.049 27.9833 34.665 28.1753C34.289 28.3673 33.857 28.4633 33.369 28.4633ZM39.7605 28.3193C39.1845 28.3193 38.7565 28.1873 38.4765 27.9233C38.2045 27.6593 38.0685 27.2473 38.0685 26.6873V20.4713H39.0765V26.6633C39.0765 26.9513 39.1405 27.1513 39.2685 27.2633C39.3965 27.3753 39.5925 27.4313 39.8565 27.4313H40.7685V28.3193H39.7605ZM37.1325 22.8473V21.9593H40.7685V22.8473H37.1325ZM44.6202 28.4633C44.0522 28.4633 43.5682 28.3713 43.1682 28.1873C42.7762 28.0033 42.4682 27.7513 42.2442 27.4313C42.0282 27.1033 41.9042 26.7313 41.8722 26.3153L42.9282 26.2433C42.9922 26.6273 43.1562 26.9353 43.4202 27.1673C43.6842 27.3913 44.0842 27.5033 44.6202 27.5033C45.0522 27.5033 45.3962 27.4353 45.6522 27.2993C45.9162 27.1553 46.0482 26.9273 46.0482 26.6153C46.0482 26.4473 46.0082 26.3073 45.9282 26.1953C45.8482 26.0833 45.6922 25.9873 45.4602 25.9073C45.2282 25.8193 44.8842 25.7353 44.4282 25.6553C43.8202 25.5433 43.3402 25.4073 42.9882 25.2473C42.6442 25.0793 42.3962 24.8753 42.2442 24.6353C42.1002 24.3873 42.0282 24.0953 42.0282 23.7593C42.0282 23.1913 42.2362 22.7273 42.6522 22.3673C43.0682 21.9993 43.6602 21.8153 44.4282 21.8153C44.9482 21.8153 45.3842 21.9113 45.7362 22.1033C46.0962 22.2873 46.3762 22.5353 46.5762 22.8473C46.7842 23.1513 46.9202 23.4873 46.9842 23.8553L45.9282 23.9273C45.8802 23.7033 45.7922 23.5073 45.6642 23.3393C45.5362 23.1633 45.3682 23.0273 45.1602 22.9313C44.9522 22.8273 44.7042 22.7753 44.4162 22.7753C43.9602 22.7753 43.6242 22.8633 43.4082 23.0393C43.1922 23.2153 43.0842 23.4393 43.0842 23.7113C43.0842 23.9193 43.1322 24.0913 43.2282 24.2273C43.3322 24.3553 43.4962 24.4633 43.7202 24.5513C43.9442 24.6313 44.2442 24.7033 44.6202 24.7673C45.2682 24.8793 45.7722 25.0153 46.1322 25.1753C46.4922 25.3353 46.7442 25.5313 46.8882 25.7633C47.0322 25.9953 47.1042 26.2793 47.1042 26.6153C47.1042 27.0073 46.9922 27.3433 46.7682 27.6233C46.5522 27.8953 46.2562 28.1033 45.8802 28.2473C45.5122 28.3913 45.0922 28.4633 44.6202 28.4633Z" fill="white"/>
<path d="M70.104 28.3193V19.7993H72.744C74.056 19.7993 75.064 20.1713 75.768 20.9153C76.48 21.6513 76.836 22.7033 76.836 24.0713C76.836 25.4313 76.488 26.4793 75.792 27.2153C75.096 27.9513 74.104 28.3193 72.816 28.3193H70.104ZM71.136 27.3113H72.744C73.744 27.3113 74.496 27.0433 75 26.5073C75.504 25.9633 75.756 25.1513 75.756 24.0713C75.756 22.9753 75.504 22.1593 75 21.6233C74.496 21.0793 73.744 20.8073 72.744 20.8073H71.136V27.3113ZM81.347 28.4633C80.747 28.4633 80.227 28.3273 79.787 28.0553C79.355 27.7833 79.019 27.3993 78.779 26.9033C78.547 26.3993 78.431 25.8113 78.431 25.1393C78.431 24.4673 78.547 23.8833 78.779 23.3873C79.019 22.8913 79.351 22.5073 79.775 22.2353C80.207 21.9553 80.715 21.8153 81.299 21.8153C81.851 21.8153 82.339 21.9473 82.763 22.2113C83.187 22.4673 83.515 22.8433 83.747 23.3393C83.987 23.8353 84.107 24.4393 84.107 25.1513V25.4513H79.487C79.527 26.1313 79.707 26.6433 80.027 26.9873C80.355 27.3313 80.795 27.5033 81.347 27.5033C81.763 27.5033 82.103 27.4073 82.367 27.2153C82.639 27.0153 82.827 26.7553 82.931 26.4353L84.011 26.5193C83.843 27.0873 83.523 27.5553 83.051 27.9233C82.587 28.2833 82.019 28.4633 81.347 28.4633ZM79.487 24.5633H83.003C82.955 23.9473 82.775 23.4953 82.463 23.2073C82.159 22.9193 81.771 22.7753 81.299 22.7753C80.811 22.7753 80.407 22.9273 80.087 23.2313C79.775 23.5273 79.575 23.9713 79.487 24.5633ZM85.8323 30.1193V21.9593H86.7683L86.7923 23.3273L86.6483 23.2553C86.8083 22.7833 87.0723 22.4273 87.4403 22.1873C87.8163 21.9393 88.2483 21.8153 88.7363 21.8153C89.3683 21.8153 89.8843 21.9713 90.2843 22.2833C90.6923 22.5953 90.9923 23.0033 91.1843 23.5073C91.3843 24.0113 91.4843 24.5553 91.4843 25.1393C91.4843 25.7233 91.3843 26.2673 91.1843 26.7713C90.9923 27.2753 90.6923 27.6833 90.2843 27.9953C89.8843 28.3073 89.3683 28.4633 88.7363 28.4633C88.4083 28.4633 88.1003 28.4073 87.8123 28.2953C87.5323 28.1833 87.2923 28.0273 87.0923 27.8273C86.9003 27.6273 86.7683 27.3913 86.6963 27.1193L86.8403 26.9513V30.1193H85.8323ZM88.6403 27.5033C89.1923 27.5033 89.6283 27.2953 89.9483 26.8793C90.2683 26.4633 90.4283 25.8833 90.4283 25.1393C90.4283 24.3953 90.2683 23.8153 89.9483 23.3993C89.6283 22.9833 89.1923 22.7753 88.6403 22.7753C88.2723 22.7753 87.9523 22.8633 87.6803 23.0393C87.4163 23.2153 87.2083 23.4793 87.0563 23.8313C86.9123 24.1833 86.8403 24.6193 86.8403 25.1393C86.8403 25.6593 86.9123 26.0953 87.0563 26.4473C87.2003 26.7993 87.4083 27.0633 87.6803 27.2393C87.9523 27.4153 88.2723 27.5033 88.6403 27.5033ZM94.5185 28.3193C94.1505 28.3193 93.8505 28.2233 93.6185 28.0313C93.3865 27.8393 93.2705 27.5353 93.2705 27.1193V19.7993H94.2785V27.0353C94.2785 27.1633 94.3105 27.2633 94.3745 27.3353C94.4465 27.3993 94.5465 27.4313 94.6745 27.4313H95.2265V28.3193H94.5185ZM99.2434 28.4633C98.6594 28.4633 98.1474 28.3273 97.7074 28.0553C97.2674 27.7833 96.9274 27.3993 96.6874 26.9033C96.4474 26.3993 96.3274 25.8113 96.3274 25.1393C96.3274 24.4593 96.4474 23.8713 96.6874 23.3753C96.9274 22.8793 97.2674 22.4953 97.7074 22.2233C98.1474 21.9513 98.6594 21.8153 99.2434 21.8153C99.8274 21.8153 100.335 21.9513 100.767 22.2233C101.207 22.4953 101.547 22.8793 101.787 23.3753C102.027 23.8713 102.147 24.4593 102.147 25.1393C102.147 25.8113 102.027 26.3993 101.787 26.9033C101.547 27.3993 101.207 27.7833 100.767 28.0553C100.335 28.3273 99.8274 28.4633 99.2434 28.4633ZM99.2434 27.5033C99.8274 27.5033 100.279 27.2953 100.599 26.8793C100.927 26.4553 101.091 25.8753 101.091 25.1393C101.091 24.4033 100.927 23.8273 100.599 23.4113C100.279 22.9873 99.8274 22.7753 99.2434 22.7753C98.6594 22.7753 98.2034 22.9873 97.8754 23.4113C97.5474 23.8273 97.3834 24.4033 97.3834 25.1393C97.3834 25.8753 97.5474 26.4553 97.8754 26.8793C98.2034 27.2953 98.6594 27.5033 99.2434 27.5033ZM103.97 30.1193V29.2313H104.702C104.926 29.2313 105.09 29.1953 105.194 29.1233C105.306 29.0593 105.39 28.9513 105.446 28.7993L105.674 28.1993H105.326L102.998 21.9593H104.102L105.998 27.2633L107.81 21.9593H108.914L106.334 29.1233C106.214 29.4673 106.034 29.7193 105.794 29.8793C105.554 30.0393 105.222 30.1193 104.798 30.1193H103.97ZM110.206 28.3193V21.9593H111.13L111.166 23.5673L111.022 23.5193C111.094 23.1673 111.218 22.8673 111.394 22.6193C111.578 22.3633 111.802 22.1673 112.066 22.0313C112.33 21.8873 112.622 21.8153 112.942 21.8153C113.494 21.8153 113.942 21.9673 114.286 22.2713C114.638 22.5753 114.858 22.9993 114.946 23.5433L114.754 23.5313C114.818 23.1633 114.934 22.8553 115.102 22.6073C115.278 22.3513 115.502 22.1553 115.774 22.0193C116.046 21.8833 116.358 21.8153 116.71 21.8153C117.166 21.8153 117.55 21.9113 117.862 22.1033C118.174 22.2873 118.41 22.5593 118.57 22.9193C118.73 23.2793 118.81 23.7153 118.81 24.2273V28.3193H117.802V24.4433C117.802 23.8673 117.69 23.4353 117.466 23.1473C117.242 22.8513 116.91 22.7033 116.47 22.7033C116.174 22.7033 115.914 22.7753 115.69 22.9193C115.474 23.0633 115.306 23.2713 115.186 23.5433C115.066 23.8073 115.006 24.1313 115.006 24.5153V28.3193H113.998V24.5153C113.998 23.9473 113.898 23.5033 113.698 23.1833C113.498 22.8633 113.162 22.7033 112.69 22.7033C112.394 22.7033 112.134 22.7753 111.91 22.9193C111.694 23.0633 111.522 23.2713 111.394 23.5433C111.274 23.8153 111.214 24.1393 111.214 24.5153V28.3193H110.206ZM123.433 28.4633C122.833 28.4633 122.313 28.3273 121.873 28.0553C121.441 27.7833 121.105 27.3993 120.865 26.9033C120.633 26.3993 120.517 25.8113 120.517 25.1393C120.517 24.4673 120.633 23.8833 120.865 23.3873C121.105 22.8913 121.437 22.5073 121.861 22.2353C122.293 21.9553 122.801 21.8153 123.385 21.8153C123.937 21.8153 124.425 21.9473 124.849 22.2113C125.273 22.4673 125.601 22.8433 125.833 23.3393C126.073 23.8353 126.193 24.4393 126.193 25.1513V25.4513H121.573C121.613 26.1313 121.793 26.6433 122.113 26.9873C122.441 27.3313 122.881 27.5033 123.433 27.5033C123.849 27.5033 124.189 27.4073 124.453 27.2153C124.725 27.0153 124.913 26.7553 125.017 26.4353L126.097 26.5193C125.929 27.0873 125.609 27.5553 125.137 27.9233C124.673 28.2833 124.105 28.4633 123.433 28.4633ZM121.573 24.5633H125.089C125.041 23.9473 124.861 23.4953 124.549 23.2073C124.245 22.9193 123.857 22.7753 123.385 22.7753C122.897 22.7753 122.493 22.9273 122.173 23.2313C121.861 23.5273 121.661 23.9713 121.573 24.5633ZM127.918 28.3193V21.9593H128.842L128.878 23.5793L128.758 23.4713C128.838 23.0953 128.978 22.7873 129.178 22.5473C129.378 22.2993 129.618 22.1153 129.898 21.9953C130.186 21.8753 130.494 21.8153 130.822 21.8153C131.31 21.8153 131.71 21.9233 132.022 22.1393C132.342 22.3553 132.578 22.6473 132.73 23.0153C132.89 23.3753 132.97 23.7793 132.97 24.2273V28.3193H131.962V24.5153C131.962 24.1233 131.914 23.7953 131.818 23.5313C131.73 23.2593 131.586 23.0553 131.386 22.9193C131.186 22.7753 130.926 22.7033 130.606 22.7033C130.118 22.7033 129.714 22.8593 129.394 23.1713C129.082 23.4753 128.926 23.9233 128.926 24.5153V28.3193H127.918ZM137.098 28.3193C136.522 28.3193 136.094 28.1873 135.814 27.9233C135.542 27.6593 135.406 27.2473 135.406 26.6873V20.4713H136.414V26.6633C136.414 26.9513 136.478 27.1513 136.606 27.2633C136.734 27.3753 136.93 27.4313 137.194 27.4313H138.106V28.3193H137.098ZM134.47 22.8473V21.9593H138.106V22.8473H134.47ZM141.958 28.4633C141.39 28.4633 140.906 28.3713 140.506 28.1873C140.114 28.0033 139.806 27.7513 139.582 27.4313C139.366 27.1033 139.242 26.7313 139.21 26.3153L140.266 26.2433C140.33 26.6273 140.494 26.9353 140.758 27.1673C141.022 27.3913 141.422 27.5033 141.958 27.5033C142.39 27.5033 142.734 27.4353 142.99 27.2993C143.254 27.1553 143.386 26.9273 143.386 26.6153C143.386 26.4473 143.346 26.3073 143.266 26.1953C143.186 26.0833 143.03 25.9873 142.798 25.9073C142.566 25.8193 142.222 25.7353 141.766 25.6553C141.158 25.5433 140.678 25.4073 140.326 25.2473C139.982 25.0793 139.734 24.8753 139.582 24.6353C139.438 24.3873 139.366 24.0953 139.366 23.7593C139.366 23.1913 139.574 22.7273 139.99 22.3673C140.406 21.9993 140.998 21.8153 141.766 21.8153C142.286 21.8153 142.722 21.9113 143.074 22.1033C143.434 22.2873 143.714 22.5353 143.914 22.8473C144.122 23.1513 144.258 23.4873 144.322 23.8553L143.266 23.9273C143.218 23.7033 143.13 23.5073 143.002 23.3393C142.874 23.1633 142.706 23.0273 142.498 22.9313C142.29 22.8273 142.042 22.7753 141.754 22.7753C141.298 22.7753 140.962 22.8633 140.746 23.0393C140.53 23.2153 140.422 23.4393 140.422 23.7113C140.422 23.9193 140.47 24.0913 140.566 24.2273C140.67 24.3553 140.834 24.4633 141.058 24.5513C141.282 24.6313 141.582 24.7033 141.958 24.7673C142.606 24.8793 143.11 25.0153 143.47 25.1753C143.83 25.3353 144.082 25.5313 144.226 25.7633C144.37 25.9953 144.442 26.2793 144.442 26.6153C144.442 27.0073 144.33 27.3433 144.106 27.6233C143.89 27.8953 143.594 28.1033 143.218 28.2473C142.85 28.3913 142.43 28.4633 141.958 28.4633Z" fill="white" fill-opacity="0.6"/>
<path d="M169.324 28.3193L166.24 19.7993H167.368L170.008 27.1913L172.636 19.7993H173.764L170.68 28.3193H169.324ZM177.327 28.4633C176.727 28.4633 176.207 28.3273 175.767 28.0553C175.335 27.7833 174.999 27.3993 174.759 26.9033C174.527 26.3993 174.411 25.8113 174.411 25.1393C174.411 24.4673 174.527 23.8833 174.759 23.3873C174.999 22.8913 175.331 22.5073 175.755 22.2353C176.187 21.9553 176.695 21.8153 177.279 21.8153C177.831 21.8153 178.319 21.9473 178.743 22.2113C179.167 22.4673 179.495 22.8433 179.727 23.3393C179.967 23.8353 180.087 24.4393 180.087 25.1513V25.4513H175.467C175.507 26.1313 175.687 26.6433 176.007 26.9873C176.335 27.3313 176.775 27.5033 177.327 27.5033C177.743 27.5033 178.083 27.4073 178.347 27.2153C178.619 27.0153 178.807 26.7553 178.911 26.4353L179.991 26.5193C179.823 27.0873 179.503 27.5553 179.031 27.9233C178.567 28.2833 177.999 28.4633 177.327 28.4633ZM175.467 24.5633H178.983C178.935 23.9473 178.755 23.4953 178.443 23.2073C178.139 22.9193 177.751 22.7753 177.279 22.7753C176.791 22.7753 176.387 22.9273 176.067 23.2313C175.755 23.5273 175.555 23.9713 175.467 24.5633ZM181.813 28.3193V21.9593H182.701L182.749 23.5673L182.653 23.5313C182.733 22.9873 182.905 22.5913 183.169 22.3433C183.441 22.0873 183.801 21.9593 184.249 21.9593H184.873V22.9193H184.261C183.941 22.9193 183.673 22.9793 183.457 23.0993C183.249 23.2113 183.089 23.3833 182.977 23.6153C182.873 23.8393 182.821 24.1273 182.821 24.4793V28.3193H181.813ZM188.555 28.4633C187.987 28.4633 187.503 28.3713 187.103 28.1873C186.711 28.0033 186.403 27.7513 186.179 27.4313C185.963 27.1033 185.839 26.7313 185.807 26.3153L186.863 26.2433C186.927 26.6273 187.091 26.9353 187.355 27.1673C187.619 27.3913 188.019 27.5033 188.555 27.5033C188.987 27.5033 189.331 27.4353 189.587 27.2993C189.851 27.1553 189.983 26.9273 189.983 26.6153C189.983 26.4473 189.943 26.3073 189.863 26.1953C189.783 26.0833 189.627 25.9873 189.395 25.9073C189.163 25.8193 188.819 25.7353 188.363 25.6553C187.755 25.5433 187.275 25.4073 186.923 25.2473C186.579 25.0793 186.331 24.8753 186.179 24.6353C186.035 24.3873 185.963 24.0953 185.963 23.7593C185.963 23.1913 186.171 22.7273 186.587 22.3673C187.003 21.9993 187.595 21.8153 188.363 21.8153C188.883 21.8153 189.319 21.9113 189.671 22.1033C190.031 22.2873 190.311 22.5353 190.511 22.8473C190.719 23.1513 190.855 23.4873 190.919 23.8553L189.863 23.9273C189.815 23.7033 189.727 23.5073 189.599 23.3393C189.471 23.1633 189.303 23.0273 189.095 22.9313C188.887 22.8273 188.639 22.7753 188.351 22.7753C187.895 22.7753 187.559 22.8633 187.343 23.0393C187.127 23.2153 187.019 23.4393 187.019 23.7113C187.019 23.9193 187.067 24.0913 187.163 24.2273C187.267 24.3553 187.431 24.4633 187.655 24.5513C187.879 24.6313 188.179 24.7033 188.555 24.7673C189.203 24.8793 189.707 25.0153 190.067 25.1753C190.427 25.3353 190.679 25.5313 190.823 25.7633C190.967 25.9953 191.039 26.2793 191.039 26.6153C191.039 27.0073 190.927 27.3433 190.703 27.6233C190.487 27.8953 190.191 28.1033 189.815 28.2473C189.447 28.3913 189.027 28.4633 188.555 28.4633ZM192.775 28.3193V21.9593H193.783V28.3193H192.775ZM192.751 20.9633V19.7873H193.807V20.9633H192.751ZM198.431 28.4633C197.847 28.4633 197.335 28.3273 196.895 28.0553C196.455 27.7833 196.115 27.3993 195.875 26.9033C195.635 26.3993 195.515 25.8113 195.515 25.1393C195.515 24.4593 195.635 23.8713 195.875 23.3753C196.115 22.8793 196.455 22.4953 196.895 22.2233C197.335 21.9513 197.847 21.8153 198.431 21.8153C199.015 21.8153 199.523 21.9513 199.955 22.2233C200.395 22.4953 200.735 22.8793 200.975 23.3753C201.215 23.8713 201.335 24.4593 201.335 25.1393C201.335 25.8113 201.215 26.3993 200.975 26.9033C200.735 27.3993 200.395 27.7833 199.955 28.0553C199.523 28.3273 199.015 28.4633 198.431 28.4633ZM198.431 27.5033C199.015 27.5033 199.467 27.2953 199.787 26.8793C200.115 26.4553 200.279 25.8753 200.279 25.1393C200.279 24.4033 200.115 23.8273 199.787 23.4113C199.467 22.9873 199.015 22.7753 198.431 22.7753C197.847 22.7753 197.391 22.9873 197.063 23.4113C196.735 23.8273 196.571 24.4033 196.571 25.1393C196.571 25.8753 196.735 26.4553 197.063 26.8793C197.391 27.2953 197.847 27.5033 198.431 27.5033ZM203.069 28.3193V21.9593H203.993L204.029 23.5793L203.909 23.4713C203.989 23.0953 204.129 22.7873 204.329 22.5473C204.529 22.2993 204.769 22.1153 205.049 21.9953C205.337 21.8753 205.645 21.8153 205.973 21.8153C206.461 21.8153 206.861 21.9233 207.173 22.1393C207.493 22.3553 207.729 22.6473 207.881 23.0153C208.041 23.3753 208.121 23.7793 208.121 24.2273V28.3193H207.113V24.5153C207.113 24.1233 207.065 23.7953 206.969 23.5313C206.881 23.2593 206.737 23.0553 206.537 22.9193C206.337 22.7753 206.077 22.7033 205.757 22.7033C205.269 22.7033 204.865 22.8593 204.545 23.1713C204.233 23.4753 204.077 23.9233 204.077 24.5153V28.3193H203.069ZM212.577 28.4633C212.009 28.4633 211.525 28.3713 211.125 28.1873C210.733 28.0033 210.425 27.7513 210.201 27.4313C209.985 27.1033 209.861 26.7313 209.829 26.3153L210.885 26.2433C210.949 26.6273 211.113 26.9353 211.377 27.1673C211.641 27.3913 212.041 27.5033 212.577 27.5033C213.009 27.5033 213.353 27.4353 213.609 27.2993C213.873 27.1553 214.005 26.9273 214.005 26.6153C214.005 26.4473 213.965 26.3073 213.885 26.1953C213.805 26.0833 213.649 25.9873 213.417 25.9073C213.185 25.8193 212.841 25.7353 212.385 25.6553C211.777 25.5433 211.297 25.4073 210.945 25.2473C210.601 25.0793 210.353 24.8753 210.201 24.6353C210.057 24.3873 209.985 24.0953 209.985 23.7593C209.985 23.1913 210.193 22.7273 210.609 22.3673C211.025 21.9993 211.617 21.8153 212.385 21.8153C212.905 21.8153 213.341 21.9113 213.693 22.1033C214.053 22.2873 214.333 22.5353 214.533 22.8473C214.741 23.1513 214.877 23.4873 214.941 23.8553L213.885 23.9273C213.837 23.7033 213.749 23.5073 213.621 23.3393C213.493 23.1633 213.325 23.0273 213.117 22.9313C212.909 22.8273 212.661 22.7753 212.373 22.7753C211.917 22.7753 211.581 22.8633 211.365 23.0393C211.149 23.2153 211.041 23.4393 211.041 23.7113C211.041 23.9193 211.089 24.0913 211.185 24.2273C211.289 24.3553 211.453 24.4633 211.677 24.5513C211.901 24.6313 212.201 24.7033 212.577 24.7673C213.225 24.8793 213.729 25.0153 214.089 25.1753C214.449 25.3353 214.701 25.5313 214.845 25.7633C214.989 25.9953 215.061 26.2793 215.061 26.6153C215.061 27.0073 214.949 27.3433 214.725 27.6233C214.509 27.8953 214.213 28.1033 213.837 28.2473C213.469 28.3913 213.049 28.4633 212.577 28.4633Z" fill="white" fill-opacity="0.6"/>
<path d="M239.7 28.3193L237.456 19.7993H238.584L240.336 26.9033L242.076 19.7993H243.252L245.004 26.9033L246.744 19.7993H247.884L245.64 28.3193H244.344L242.664 21.7193L240.984 28.3193H239.7ZM251.667 28.4633C251.083 28.4633 250.571 28.3273 250.131 28.0553C249.691 27.7833 249.351 27.3993 249.111 26.9033C248.871 26.3993 248.751 25.8113 248.751 25.1393C248.751 24.4593 248.871 23.8713 249.111 23.3753C249.351 22.8793 249.691 22.4953 250.131 22.2233C250.571 21.9513 251.083 21.8153 251.667 21.8153C252.251 21.8153 252.759 21.9513 253.191 22.2233C253.631 22.4953 253.971 22.8793 254.211 23.3753C254.451 23.8713 254.571 24.4593 254.571 25.1393C254.571 25.8113 254.451 26.3993 254.211 26.9033C253.971 27.3993 253.631 27.7833 253.191 28.0553C252.759 28.3273 252.251 28.4633 251.667 28.4633ZM251.667 27.5033C252.251 27.5033 252.703 27.2953 253.023 26.8793C253.351 26.4553 253.515 25.8753 253.515 25.1393C253.515 24.4033 253.351 23.8273 253.023 23.4113C252.703 22.9873 252.251 22.7753 251.667 22.7753C251.083 22.7753 250.627 22.9873 250.299 23.4113C249.971 23.8273 249.807 24.4033 249.807 25.1393C249.807 25.8753 249.971 26.4553 250.299 26.8793C250.627 27.2953 251.083 27.5033 251.667 27.5033ZM256.305 28.3193V21.9593H257.193L257.241 23.5673L257.145 23.5313C257.225 22.9873 257.397 22.5913 257.661 22.3433C257.933 22.0873 258.293 21.9593 258.741 21.9593H259.365V22.9193H258.753C258.433 22.9193 258.165 22.9793 257.949 23.0993C257.741 23.2113 257.581 23.3833 257.469 23.6153C257.365 23.8393 257.313 24.1273 257.313 24.4793V28.3193H256.305ZM260.849 28.3193V19.7993H261.857V25.3793L264.953 21.9593H266.297L263.789 24.6593L266.405 28.3193H265.181L263.105 25.3433L261.857 26.6633V28.3193H260.849ZM270.605 28.4633C270.165 28.4633 269.773 28.3673 269.429 28.1753C269.085 27.9753 268.821 27.7033 268.637 27.3593L268.601 28.3193H267.689V19.7993H268.697V22.8473C268.857 22.5833 269.105 22.3473 269.441 22.1393C269.777 21.9233 270.165 21.8153 270.605 21.8153C271.165 21.8153 271.649 21.9513 272.057 22.2233C272.465 22.4953 272.781 22.8793 273.005 23.3753C273.229 23.8713 273.341 24.4593 273.341 25.1393C273.341 25.8193 273.229 26.4073 273.005 26.9033C272.781 27.3993 272.465 27.7833 272.057 28.0553C271.649 28.3273 271.165 28.4633 270.605 28.4633ZM270.545 27.5033C271.081 27.5033 271.505 27.2913 271.817 26.8673C272.129 26.4433 272.285 25.8673 272.285 25.1393C272.285 24.4033 272.129 23.8273 271.817 23.4113C271.505 22.9873 271.089 22.7753 270.569 22.7753C270.177 22.7753 269.841 22.8713 269.561 23.0633C269.281 23.2473 269.065 23.5153 268.913 23.8673C268.769 24.2193 268.697 24.6433 268.697 25.1393C268.697 25.6193 268.769 26.0393 268.913 26.3993C269.065 26.7513 269.277 27.0233 269.549 27.2153C269.829 27.4073 270.161 27.5033 270.545 27.5033ZM277.553 28.4633C276.953 28.4633 276.433 28.3273 275.993 28.0553C275.561 27.7833 275.225 27.3993 274.985 26.9033C274.753 26.3993 274.637 25.8113 274.637 25.1393C274.637 24.4673 274.753 23.8833 274.985 23.3873C275.225 22.8913 275.557 22.5073 275.981 22.2353C276.413 21.9553 276.921 21.8153 277.505 21.8153C278.057 21.8153 278.545 21.9473 278.969 22.2113C279.393 22.4673 279.721 22.8433 279.953 23.3393C280.193 23.8353 280.313 24.4393 280.313 25.1513V25.4513H275.693C275.733 26.1313 275.913 26.6433 276.233 26.9873C276.561 27.3313 277.001 27.5033 277.553 27.5033C277.969 27.5033 278.309 27.4073 278.573 27.2153C278.845 27.0153 279.033 26.7553 279.137 26.4353L280.217 26.5193C280.049 27.0873 279.729 27.5553 279.257 27.9233C278.793 28.2833 278.225 28.4633 277.553 28.4633ZM275.693 24.5633H279.209C279.161 23.9473 278.981 23.4953 278.669 23.2073C278.365 22.9193 277.977 22.7753 277.505 22.7753C277.017 22.7753 276.613 22.9273 276.293 23.2313C275.981 23.5273 275.781 23.9713 275.693 24.5633ZM282.038 28.3193V21.9593H282.962L282.998 23.5793L282.878 23.4713C282.958 23.0953 283.098 22.7873 283.298 22.5473C283.498 22.2993 283.738 22.1153 284.018 21.9953C284.306 21.8753 284.614 21.8153 284.942 21.8153C285.43 21.8153 285.83 21.9233 286.142 22.1393C286.462 22.3553 286.698 22.6473 286.85 23.0153C287.01 23.3753 287.09 23.7793 287.09 24.2273V28.3193H286.082V24.5153C286.082 24.1233 286.034 23.7953 285.938 23.5313C285.85 23.2593 285.706 23.0553 285.506 22.9193C285.306 22.7753 285.046 22.7033 284.726 22.7033C284.238 22.7033 283.834 22.8593 283.514 23.1713C283.202 23.4753 283.046 23.9233 283.046 24.5153V28.3193H282.038ZM291.714 28.4633C291.122 28.4633 290.606 28.3273 290.166 28.0553C289.734 27.7833 289.398 27.3993 289.158 26.9033C288.918 26.3993 288.798 25.8113 288.798 25.1393C288.798 24.4673 288.918 23.8833 289.158 23.3873C289.398 22.8913 289.734 22.5073 290.166 22.2353C290.606 21.9553 291.122 21.8153 291.714 21.8153C292.202 21.8153 292.634 21.9033 293.01 22.0793C293.394 22.2473 293.706 22.4953 293.946 22.8233C294.186 23.1513 294.342 23.5513 294.414 24.0233L293.358 24.0953C293.286 23.6713 293.102 23.3473 292.806 23.1233C292.51 22.8913 292.146 22.7753 291.714 22.7753C291.13 22.7753 290.674 22.9873 290.346 23.4113C290.018 23.8273 289.854 24.4033 289.854 25.1393C289.854 25.8753 290.018 26.4553 290.346 26.8793C290.674 27.2953 291.13 27.5033 291.714 27.5033C292.146 27.5033 292.51 27.3833 292.806 27.1433C293.102 26.9033 293.286 26.5433 293.358 26.0633L294.414 26.1353C294.342 26.6073 294.186 27.0193 293.946 27.3713C293.706 27.7153 293.394 27.9833 293.01 28.1753C292.634 28.3673 292.202 28.4633 291.714 28.4633ZM296.024 28.3193V19.7993H297.032V23.3633L296.912 23.3393C296.992 22.9873 297.128 22.6993 297.32 22.4753C297.512 22.2513 297.748 22.0873 298.028 21.9833C298.308 21.8713 298.616 21.8153 298.952 21.8153C299.408 21.8153 299.792 21.9193 300.104 22.1273C300.424 22.3273 300.664 22.6113 300.824 22.9793C300.992 23.3393 301.076 23.7553 301.076 24.2273V28.3193H300.068V24.5153C300.068 23.8993 299.956 23.4433 299.732 23.1473C299.516 22.8513 299.184 22.7033 298.736 22.7033C298.224 22.7033 297.812 22.8593 297.5 23.1713C297.188 23.4833 297.032 23.9353 297.032 24.5273V28.3193H296.024Z" fill="white" fill-opacity="0.6"/>
<path d="M328.032 28.5113C327.376 28.5113 326.804 28.3873 326.316 28.1393C325.828 27.8913 325.44 27.5513 325.152 27.1193C324.872 26.6793 324.708 26.1713 324.66 25.5953L325.74 25.5233C325.796 25.9473 325.92 26.3073 326.112 26.6033C326.304 26.8993 326.56 27.1233 326.88 27.2753C327.208 27.4273 327.6 27.5033 328.056 27.5033C328.456 27.5033 328.796 27.4513 329.076 27.3473C329.356 27.2433 329.568 27.0913 329.712 26.8913C329.864 26.6913 329.94 26.4473 329.94 26.1593C329.94 25.8953 329.876 25.6633 329.748 25.4633C329.628 25.2553 329.392 25.0673 329.04 24.8993C328.696 24.7233 328.184 24.5513 327.504 24.3833C326.848 24.2153 326.324 24.0313 325.932 23.8313C325.548 23.6313 325.268 23.3873 325.092 23.0993C324.924 22.8113 324.84 22.4553 324.84 22.0313C324.84 21.5513 324.952 21.1313 325.176 20.7713C325.408 20.4033 325.736 20.1193 326.16 19.9193C326.584 19.7113 327.088 19.6073 327.672 19.6073C328.296 19.6073 328.832 19.7273 329.28 19.9673C329.728 20.1993 330.084 20.5193 330.348 20.9273C330.612 21.3353 330.776 21.7993 330.84 22.3193L329.76 22.3913C329.712 22.0473 329.6 21.7433 329.424 21.4793C329.256 21.2073 329.024 20.9953 328.728 20.8433C328.432 20.6913 328.072 20.6153 327.648 20.6153C327.12 20.6153 326.7 20.7433 326.388 20.9993C326.076 21.2473 325.92 21.5753 325.92 21.9833C325.92 22.2473 325.98 22.4673 326.1 22.6433C326.228 22.8113 326.452 22.9633 326.772 23.0993C327.092 23.2273 327.552 23.3673 328.152 23.5193C328.864 23.6953 329.428 23.9073 329.844 24.1553C330.268 24.3953 330.568 24.6753 330.744 24.9953C330.928 25.3153 331.02 25.6793 331.02 26.0873C331.02 26.5833 330.892 27.0153 330.636 27.3833C330.38 27.7433 330.028 28.0233 329.58 28.2233C329.132 28.4153 328.616 28.5113 328.032 28.5113ZM335.031 28.3193C334.455 28.3193 334.027 28.1873 333.747 27.9233C333.475 27.6593 333.339 27.2473 333.339 26.6873V20.4713H334.347V26.6633C334.347 26.9513 334.411 27.1513 334.539 27.2633C334.667 27.3753 334.863 27.4313 335.127 27.4313H336.039V28.3193H335.031ZM332.403 22.8473V21.9593H336.039V22.8473H332.403ZM339.361 28.4633C338.705 28.4633 338.181 28.3113 337.789 28.0073C337.405 27.7033 337.213 27.2793 337.213 26.7353C337.213 26.1913 337.373 25.7633 337.693 25.4513C338.013 25.1393 338.521 24.9193 339.217 24.7913L341.473 24.3713C341.473 23.8353 341.345 23.4353 341.089 23.1713C340.841 22.9073 340.465 22.7753 339.961 22.7753C339.521 22.7753 339.173 22.8753 338.917 23.0753C338.661 23.2673 338.485 23.5473 338.389 23.9153L337.321 23.8313C337.441 23.2313 337.729 22.7473 338.185 22.3793C338.649 22.0033 339.241 21.8153 339.961 21.8153C340.777 21.8153 341.401 22.0473 341.833 22.5113C342.265 22.9673 342.481 23.5993 342.481 24.4073V27.0353C342.481 27.1793 342.505 27.2833 342.553 27.3473C342.609 27.4033 342.697 27.4313 342.817 27.4313H343.069V28.3193C343.037 28.3273 342.985 28.3313 342.913 28.3313C342.841 28.3393 342.765 28.3433 342.685 28.3433C342.397 28.3433 342.161 28.2993 341.977 28.2113C341.801 28.1153 341.673 27.9713 341.593 27.7793C341.513 27.5793 341.473 27.3193 341.473 26.9993L341.593 27.0233C341.537 27.2953 341.401 27.5433 341.185 27.7673C340.969 27.9833 340.701 28.1553 340.381 28.2833C340.061 28.4033 339.721 28.4633 339.361 28.4633ZM339.457 27.5753C339.881 27.5753 340.241 27.4953 340.537 27.3353C340.841 27.1673 341.073 26.9433 341.233 26.6633C341.393 26.3753 341.473 26.0553 341.473 25.7033V25.2473L339.409 25.6313C338.977 25.7113 338.677 25.8353 338.509 26.0033C338.349 26.1633 338.269 26.3753 338.269 26.6393C338.269 26.9353 338.373 27.1673 338.581 27.3353C338.797 27.4953 339.089 27.5753 339.457 27.5753ZM346.956 30.2633C346.5 30.2633 346.088 30.1873 345.72 30.0353C345.352 29.8833 345.044 29.6673 344.796 29.3873C344.548 29.1073 344.38 28.7833 344.292 28.4153L345.348 28.3433C345.444 28.6393 345.612 28.8713 345.852 29.0393C346.1 29.2153 346.468 29.3033 346.956 29.3033C347.532 29.3033 347.972 29.1873 348.276 28.9553C348.588 28.7233 348.744 28.3753 348.744 27.9113V26.8793C348.592 27.2153 348.348 27.4833 348.012 27.6833C347.676 27.8833 347.3 27.9833 346.884 27.9833C346.348 27.9833 345.868 27.8513 345.444 27.5873C345.028 27.3233 344.7 26.9593 344.46 26.4953C344.228 26.0313 344.112 25.4993 344.112 24.8993C344.112 24.2913 344.228 23.7593 344.46 23.3033C344.692 22.8393 345.012 22.4753 345.42 22.2113C345.836 21.9473 346.308 21.8153 346.836 21.8153C347.284 21.8153 347.684 21.9193 348.036 22.1273C348.396 22.3353 348.648 22.6153 348.792 22.9673V21.9593H349.752V27.8873C349.752 28.3833 349.64 28.8073 349.416 29.1593C349.192 29.5193 348.872 29.7913 348.456 29.9753C348.04 30.1673 347.54 30.2633 346.956 30.2633ZM346.932 27.0233C347.476 27.0233 347.912 26.8353 348.24 26.4593C348.568 26.0753 348.736 25.5553 348.744 24.8993C348.752 24.4593 348.68 24.0833 348.528 23.7713C348.384 23.4513 348.172 23.2073 347.892 23.0393C347.62 22.8633 347.3 22.7753 346.932 22.7753C346.372 22.7753 345.936 22.9673 345.624 23.3513C345.32 23.7273 345.168 24.2433 345.168 24.8993C345.168 25.5553 345.324 26.0753 345.636 26.4593C345.956 26.8353 346.388 27.0233 346.932 27.0233ZM354.396 28.4633C353.796 28.4633 353.276 28.3273 352.836 28.0553C352.404 27.7833 352.068 27.3993 351.828 26.9033C351.596 26.3993 351.48 25.8113 351.48 25.1393C351.48 24.4673 351.596 23.8833 351.828 23.3873C352.068 22.8913 352.4 22.5073 352.824 22.2353C353.256 21.9553 353.764 21.8153 354.348 21.8153C354.9 21.8153 355.388 21.9473 355.812 22.2113C356.236 22.4673 356.564 22.8433 356.796 23.3393C357.036 23.8353 357.156 24.4393 357.156 25.1513V25.4513H352.536C352.576 26.1313 352.756 26.6433 353.076 26.9873C353.404 27.3313 353.844 27.5033 354.396 27.5033C354.812 27.5033 355.152 27.4073 355.416 27.2153C355.688 27.0153 355.876 26.7553 355.98 26.4353L357.06 26.5193C356.892 27.0873 356.572 27.5553 356.1 27.9233C355.636 28.2833 355.068 28.4633 354.396 28.4633ZM352.536 24.5633H356.052C356.004 23.9473 355.824 23.4953 355.512 23.2073C355.208 22.9193 354.82 22.7753 354.348 22.7753C353.86 22.7753 353.456 22.9273 353.136 23.2313C352.824 23.5273 352.624 23.9713 352.536 24.5633ZM361.197 28.4633C360.629 28.4633 360.145 28.3713 359.745 28.1873C359.353 28.0033 359.045 27.7513 358.821 27.4313C358.605 27.1033 358.481 26.7313 358.449 26.3153L359.505 26.2433C359.569 26.6273 359.733 26.9353 359.997 27.1673C360.261 27.3913 360.661 27.5033 361.197 27.5033C361.629 27.5033 361.973 27.4353 362.229 27.2993C362.493 27.1553 362.625 26.9273 362.625 26.6153C362.625 26.4473 362.585 26.3073 362.505 26.1953C362.425 26.0833 362.269 25.9873 362.037 25.9073C361.805 25.8193 361.461 25.7353 361.005 25.6553C360.397 25.5433 359.917 25.4073 359.565 25.2473C359.221 25.0793 358.973 24.8753 358.821 24.6353C358.677 24.3873 358.605 24.0953 358.605 23.7593C358.605 23.1913 358.813 22.7273 359.229 22.3673C359.645 21.9993 360.237 21.8153 361.005 21.8153C361.525 21.8153 361.961 21.9113 362.313 22.1033C362.673 22.2873 362.953 22.5353 363.153 22.8473C363.361 23.1513 363.497 23.4873 363.561 23.8553L362.505 23.9273C362.457 23.7033 362.369 23.5073 362.241 23.3393C362.113 23.1633 361.945 23.0273 361.737 22.9313C361.529 22.8273 361.281 22.7753 360.993 22.7753C360.537 22.7753 360.201 22.8633 359.985 23.0393C359.769 23.2153 359.661 23.4393 359.661 23.7113C359.661 23.9193 359.709 24.0913 359.805 24.2273C359.909 24.3553 360.073 24.4633 360.297 24.5513C360.521 24.6313 360.821 24.7033 361.197 24.7673C361.845 24.8793 362.349 25.0153 362.709 25.1753C363.069 25.3353 363.321 25.5313 363.465 25.7633C363.609 25.9953 363.681 26.2793 363.681 26.6153C363.681 27.0073 363.569 27.3433 363.345 27.6233C363.129 27.8953 362.833 28.1033 362.457 28.2473C362.089 28.3913 361.669 28.4633 361.197 28.4633Z" fill="white" fill-opacity="0.6"/>
<path d="M387.104 28.3193V19.7993H388.136V27.8393L387.62 27.3113H392.396V28.3193H387.104ZM396.296 28.4633C395.712 28.4633 395.2 28.3273 394.76 28.0553C394.32 27.7833 393.98 27.3993 393.74 26.9033C393.5 26.3993 393.38 25.8113 393.38 25.1393C393.38 24.4593 393.5 23.8713 393.74 23.3753C393.98 22.8793 394.32 22.4953 394.76 22.2233C395.2 21.9513 395.712 21.8153 396.296 21.8153C396.88 21.8153 397.388 21.9513 397.82 22.2233C398.26 22.4953 398.6 22.8793 398.84 23.3753C399.08 23.8713 399.2 24.4593 399.2 25.1393C399.2 25.8113 399.08 26.3993 398.84 26.9033C398.6 27.3993 398.26 27.7833 397.82 28.0553C397.388 28.3273 396.88 28.4633 396.296 28.4633ZM396.296 27.5033C396.88 27.5033 397.332 27.2953 397.652 26.8793C397.98 26.4553 398.144 25.8753 398.144 25.1393C398.144 24.4033 397.98 23.8273 397.652 23.4113C397.332 22.9873 396.88 22.7753 396.296 22.7753C395.712 22.7753 395.256 22.9873 394.928 23.4113C394.6 23.8273 394.436 24.4033 394.436 25.1393C394.436 25.8753 394.6 26.4553 394.928 26.8793C395.256 27.2953 395.712 27.5033 396.296 27.5033ZM403.346 30.2633C402.89 30.2633 402.478 30.1873 402.11 30.0353C401.742 29.8833 401.434 29.6673 401.186 29.3873C400.938 29.1073 400.77 28.7833 400.682 28.4153L401.738 28.3433C401.834 28.6393 402.002 28.8713 402.242 29.0393C402.49 29.2153 402.858 29.3033 403.346 29.3033C403.922 29.3033 404.362 29.1873 404.666 28.9553C404.978 28.7233 405.134 28.3753 405.134 27.9113V26.8793C404.982 27.2153 404.738 27.4833 404.402 27.6833C404.066 27.8833 403.69 27.9833 403.274 27.9833C402.738 27.9833 402.258 27.8513 401.834 27.5873C401.418 27.3233 401.09 26.9593 400.85 26.4953C400.618 26.0313 400.502 25.4993 400.502 24.8993C400.502 24.2913 400.618 23.7593 400.85 23.3033C401.082 22.8393 401.402 22.4753 401.81 22.2113C402.226 21.9473 402.698 21.8153 403.226 21.8153C403.674 21.8153 404.074 21.9193 404.426 22.1273C404.786 22.3353 405.038 22.6153 405.182 22.9673V21.9593H406.142V27.8873C406.142 28.3833 406.03 28.8073 405.806 29.1593C405.582 29.5193 405.262 29.7913 404.846 29.9753C404.43 30.1673 403.93 30.2633 403.346 30.2633ZM403.322 27.0233C403.866 27.0233 404.302 26.8353 404.63 26.4593C404.958 26.0753 405.126 25.5553 405.134 24.8993C405.142 24.4593 405.07 24.0833 404.918 23.7713C404.774 23.4513 404.562 23.2073 404.282 23.0393C404.01 22.8633 403.69 22.7753 403.322 22.7753C402.762 22.7753 402.326 22.9673 402.014 23.3513C401.71 23.7273 401.558 24.2433 401.558 24.8993C401.558 25.5553 401.714 26.0753 402.026 26.4593C402.346 26.8353 402.778 27.0233 403.322 27.0233ZM410.618 28.4633C410.05 28.4633 409.566 28.3713 409.166 28.1873C408.774 28.0033 408.466 27.7513 408.242 27.4313C408.026 27.1033 407.902 26.7313 407.87 26.3153L408.926 26.2433C408.99 26.6273 409.154 26.9353 409.418 27.1673C409.682 27.3913 410.082 27.5033 410.618 27.5033C411.05 27.5033 411.394 27.4353 411.65 27.2993C411.914 27.1553 412.046 26.9273 412.046 26.6153C412.046 26.4473 412.006 26.3073 411.926 26.1953C411.846 26.0833 411.69 25.9873 411.458 25.9073C411.226 25.8193 410.882 25.7353 410.426 25.6553C409.818 25.5433 409.338 25.4073 408.986 25.2473C408.642 25.0793 408.394 24.8753 408.242 24.6353C408.098 24.3873 408.026 24.0953 408.026 23.7593C408.026 23.1913 408.234 22.7273 408.65 22.3673C409.066 21.9993 409.658 21.8153 410.426 21.8153C410.946 21.8153 411.382 21.9113 411.734 22.1033C412.094 22.2873 412.374 22.5353 412.574 22.8473C412.782 23.1513 412.918 23.4873 412.982 23.8553L411.926 23.9273C411.878 23.7033 411.79 23.5073 411.662 23.3393C411.534 23.1633 411.366 23.0273 411.158 22.9313C410.95 22.8273 410.702 22.7753 410.414 22.7753C409.958 22.7753 409.622 22.8633 409.406 23.0393C409.19 23.2153 409.082 23.4393 409.082 23.7113C409.082 23.9193 409.13 24.0913 409.226 24.2273C409.33 24.3553 409.494 24.4633 409.718 24.5513C409.942 24.6313 410.242 24.7033 410.618 24.7673C411.266 24.8793 411.77 25.0153 412.13 25.1753C412.49 25.3353 412.742 25.5313 412.886 25.7633C413.03 25.9953 413.102 26.2793 413.102 26.6153C413.102 27.0073 412.99 27.3433 412.766 27.6233C412.55 27.8953 412.254 28.1033 411.878 28.2473C411.51 28.3913 411.09 28.4633 410.618 28.4633Z" fill="white" fill-opacity="0.6"/>
<path d="M436.104 28.3193V19.7993H437.544L440.268 27.1913L442.98 19.7993H444.42V28.3193H443.388V21.7193L440.952 28.3193H439.572L437.136 21.7193V28.3193H436.104ZM449.21 28.4633C448.61 28.4633 448.09 28.3273 447.65 28.0553C447.218 27.7833 446.882 27.3993 446.642 26.9033C446.41 26.3993 446.294 25.8113 446.294 25.1393C446.294 24.4673 446.41 23.8833 446.642 23.3873C446.882 22.8913 447.214 22.5073 447.638 22.2353C448.07 21.9553 448.578 21.8153 449.162 21.8153C449.714 21.8153 450.202 21.9473 450.626 22.2113C451.05 22.4673 451.378 22.8433 451.61 23.3393C451.85 23.8353 451.97 24.4393 451.97 25.1513V25.4513H447.35C447.39 26.1313 447.57 26.6433 447.89 26.9873C448.218 27.3313 448.658 27.5033 449.21 27.5033C449.626 27.5033 449.966 27.4073 450.23 27.2153C450.502 27.0153 450.69 26.7553 450.794 26.4353L451.874 26.5193C451.706 27.0873 451.386 27.5553 450.914 27.9233C450.45 28.2833 449.882 28.4633 449.21 28.4633ZM447.35 24.5633H450.866C450.818 23.9473 450.638 23.4953 450.326 23.2073C450.022 22.9193 449.634 22.7753 449.162 22.7753C448.674 22.7753 448.27 22.9273 447.95 23.2313C447.638 23.5273 447.438 23.9713 447.35 24.5633ZM455.778 28.3193C455.202 28.3193 454.774 28.1873 454.494 27.9233C454.222 27.6593 454.086 27.2473 454.086 26.6873V20.4713H455.094V26.6633C455.094 26.9513 455.158 27.1513 455.286 27.2633C455.414 27.3753 455.61 27.4313 455.874 27.4313H456.786V28.3193H455.778ZM453.15 22.8473V21.9593H456.786V22.8473H453.15ZM458.567 28.3193V21.9593H459.455L459.503 23.5673L459.407 23.5313C459.487 22.9873 459.659 22.5913 459.923 22.3433C460.195 22.0873 460.555 21.9593 461.003 21.9593H461.627V22.9193H461.015C460.695 22.9193 460.427 22.9793 460.211 23.0993C460.003 23.2113 459.843 23.3833 459.731 23.6153C459.627 23.8393 459.575 24.1273 459.575 24.4793V28.3193H458.567ZM463.111 28.3193V21.9593H464.119V28.3193H463.111ZM463.087 20.9633V19.7873H464.143V20.9633H463.087ZM468.767 28.4633C468.175 28.4633 467.659 28.3273 467.219 28.0553C466.787 27.7833 466.451 27.3993 466.211 26.9033C465.971 26.3993 465.851 25.8113 465.851 25.1393C465.851 24.4673 465.971 23.8833 466.211 23.3873C466.451 22.8913 466.787 22.5073 467.219 22.2353C467.659 21.9553 468.175 21.8153 468.767 21.8153C469.255 21.8153 469.687 21.9033 470.063 22.0793C470.447 22.2473 470.759 22.4953 470.999 22.8233C471.239 23.1513 471.395 23.5513 471.467 24.0233L470.411 24.0953C470.339 23.6713 470.155 23.3473 469.859 23.1233C469.563 22.8913 469.199 22.7753 468.767 22.7753C468.183 22.7753 467.727 22.9873 467.399 23.4113C467.071 23.8273 466.907 24.4033 466.907 25.1393C466.907 25.8753 467.071 26.4553 467.399 26.8793C467.727 27.2953 468.183 27.5033 468.767 27.5033C469.199 27.5033 469.563 27.3833 469.859 27.1433C470.155 26.9033 470.339 26.5433 470.411 26.0633L471.467 26.1353C471.395 26.6073 471.239 27.0193 470.999 27.3713C470.759 27.7153 470.447 27.9833 470.063 28.1753C469.687 28.3673 469.255 28.4633 468.767 28.4633ZM475.393 28.4633C474.825 28.4633 474.341 28.3713 473.941 28.1873C473.549 28.0033 473.241 27.7513 473.017 27.4313C472.801 27.1033 472.677 26.7313 472.645 26.3153L473.701 26.2433C473.765 26.6273 473.929 26.9353 474.193 27.1673C474.457 27.3913 474.857 27.5033 475.393 27.5033C475.825 27.5033 476.169 27.4353 476.425 27.2993C476.689 27.1553 476.821 26.9273 476.821 26.6153C476.821 26.4473 476.781 26.3073 476.701 26.1953C476.621 26.0833 476.465 25.9873 476.233 25.9073C476.001 25.8193 475.657 25.7353 475.201 25.6553C474.593 25.5433 474.113 25.4073 473.761 25.2473C473.417 25.0793 473.169 24.8753 473.017 24.6353C472.873 24.3873 472.801 24.0953 472.801 23.7593C472.801 23.1913 473.009 22.7273 473.425 22.3673C473.841 21.9993 474.433 21.8153 475.201 21.8153C475.721 21.8153 476.157 21.9113 476.509 22.1033C476.869 22.2873 477.149 22.5353 477.349 22.8473C477.557 23.1513 477.693 23.4873 477.757 23.8553L476.701 23.9273C476.653 23.7033 476.565 23.5073 476.437 23.3393C476.309 23.1633 476.141 23.0273 475.933 22.9313C475.725 22.8273 475.477 22.7753 475.189 22.7753C474.733 22.7753 474.397 22.8633 474.181 23.0393C473.965 23.2153 473.857 23.4393 473.857 23.7113C473.857 23.9193 473.905 24.0913 474.001 24.2273C474.105 24.3553 474.269 24.4633 474.493 24.5513C474.717 24.6313 475.017 24.7033 475.393 24.7673C476.041 24.8793 476.545 25.0153 476.905 25.1753C477.265 25.3353 477.517 25.5313 477.661 25.7633C477.805 25.9953 477.877 26.2793 477.877 26.6153C477.877 27.0073 477.765 27.3433 477.541 27.6233C477.325 27.8953 477.029 28.1033 476.653 28.2473C476.285 28.3913 475.865 28.4633 475.393 28.4633Z" fill="white" fill-opacity="0.6"/>
<path d="M501.104 28.3193V19.7993H506.456V20.8073H502.136V23.5553H506.312V24.5393H502.136V27.3113H506.552V28.3193H501.104ZM508.55 28.3193V21.9593H509.474L509.51 23.5793L509.39 23.4713C509.47 23.0953 509.61 22.7873 509.81 22.5473C510.01 22.2993 510.25 22.1153 510.53 21.9953C510.818 21.8753 511.126 21.8153 511.454 21.8153C511.942 21.8153 512.342 21.9233 512.654 22.1393C512.974 22.3553 513.21 22.6473 513.362 23.0153C513.522 23.3753 513.602 23.7793 513.602 24.2273V28.3193H512.594V24.5153C512.594 24.1233 512.546 23.7953 512.45 23.5313C512.362 23.2593 512.218 23.0553 512.018 22.9193C511.818 22.7753 511.558 22.7033 511.238 22.7033C510.75 22.7033 510.346 22.8593 510.026 23.1713C509.714 23.4753 509.558 23.9233 509.558 24.5153V28.3193H508.55ZM517.093 28.3193L514.777 21.9593H515.881L517.729 27.2873L519.577 21.9593H520.681L518.365 28.3193H517.093ZM527.991 28.3193L524.907 19.7993H526.035L528.675 27.1913L531.303 19.7993H532.431L529.347 28.3193H527.991ZM535.167 28.4633C534.511 28.4633 533.987 28.3113 533.595 28.0073C533.211 27.7033 533.019 27.2793 533.019 26.7353C533.019 26.1913 533.179 25.7633 533.499 25.4513C533.819 25.1393 534.327 24.9193 535.023 24.7913L537.279 24.3713C537.279 23.8353 537.151 23.4353 536.895 23.1713C536.647 22.9073 536.271 22.7753 535.767 22.7753C535.327 22.7753 534.979 22.8753 534.723 23.0753C534.467 23.2673 534.291 23.5473 534.195 23.9153L533.127 23.8313C533.247 23.2313 533.535 22.7473 533.991 22.3793C534.455 22.0033 535.047 21.8153 535.767 21.8153C536.583 21.8153 537.207 22.0473 537.639 22.5113C538.071 22.9673 538.287 23.5993 538.287 24.4073V27.0353C538.287 27.1793 538.311 27.2833 538.359 27.3473C538.415 27.4033 538.503 27.4313 538.623 27.4313H538.875V28.3193C538.843 28.3273 538.791 28.3313 538.719 28.3313C538.647 28.3393 538.571 28.3433 538.491 28.3433C538.203 28.3433 537.967 28.2993 537.783 28.2113C537.607 28.1153 537.479 27.9713 537.399 27.7793C537.319 27.5793 537.279 27.3193 537.279 26.9993L537.399 27.0233C537.343 27.2953 537.207 27.5433 536.991 27.7673C536.775 27.9833 536.507 28.1553 536.187 28.2833C535.867 28.4033 535.527 28.4633 535.167 28.4633ZM535.263 27.5753C535.687 27.5753 536.047 27.4953 536.343 27.3353C536.647 27.1673 536.879 26.9433 537.039 26.6633C537.199 26.3753 537.279 26.0553 537.279 25.7033V25.2473L535.215 25.6313C534.783 25.7113 534.483 25.8353 534.315 26.0033C534.155 26.1633 534.075 26.3753 534.075 26.6393C534.075 26.9353 534.179 27.1673 534.387 27.3353C534.603 27.4953 534.895 27.5753 535.263 27.5753ZM540.374 28.3193V21.9593H541.262L541.31 23.5673L541.214 23.5313C541.294 22.9873 541.466 22.5913 541.73 22.3433C542.002 22.0873 542.362 21.9593 542.81 21.9593H543.434V22.9193H542.822C542.502 22.9193 542.234 22.9793 542.018 23.0993C541.81 23.2113 541.65 23.3833 541.538 23.6153C541.434 23.8393 541.382 24.1273 541.382 24.4793V28.3193H540.374ZM547.116 28.4633C546.548 28.4633 546.064 28.3713 545.664 28.1873C545.272 28.0033 544.964 27.7513 544.74 27.4313C544.524 27.1033 544.4 26.7313 544.368 26.3153L545.424 26.2433C545.488 26.6273 545.652 26.9353 545.916 27.1673C546.18 27.3913 546.58 27.5033 547.116 27.5033C547.548 27.5033 547.892 27.4353 548.148 27.2993C548.412 27.1553 548.544 26.9273 548.544 26.6153C548.544 26.4473 548.504 26.3073 548.424 26.1953C548.344 26.0833 548.188 25.9873 547.956 25.9073C547.724 25.8193 547.38 25.7353 546.924 25.6553C546.316 25.5433 545.836 25.4073 545.484 25.2473C545.14 25.0793 544.892 24.8753 544.74 24.6353C544.596 24.3873 544.524 24.0953 544.524 23.7593C544.524 23.1913 544.732 22.7273 545.148 22.3673C545.564 21.9993 546.156 21.8153 546.924 21.8153C547.444 21.8153 547.88 21.9113 548.232 22.1033C548.592 22.2873 548.872 22.5353 549.072 22.8473C549.28 23.1513 549.416 23.4873 549.48 23.8553L548.424 23.9273C548.376 23.7033 548.288 23.5073 548.16 23.3393C548.032 23.1633 547.864 23.0273 547.656 22.9313C547.448 22.8273 547.2 22.7753 546.912 22.7753C546.456 22.7753 546.12 22.8633 545.904 23.0393C545.688 23.2153 545.58 23.4393 545.58 23.7113C545.58 23.9193 545.628 24.0913 545.724 24.2273C545.828 24.3553 545.992 24.4633 546.216 24.5513C546.44 24.6313 546.74 24.7033 547.116 24.7673C547.764 24.8793 548.268 25.0153 548.628 25.1753C548.988 25.3353 549.24 25.5313 549.384 25.7633C549.528 25.9953 549.6 26.2793 549.6 26.6153C549.6 27.0073 549.488 27.3433 549.264 27.6233C549.048 27.8953 548.752 28.1033 548.376 28.2473C548.008 28.3913 547.588 28.4633 547.116 28.4633Z" fill="white" fill-opacity="0.6"/>
</svg>
