<svg width="55" height="95" viewBox="0 0 55 95" fill="none" xmlns="http://www.w3.org/2000/svg">
<circle opacity="0.5" cx="22.4138" cy="58.1517" r="1" transform="rotate(-46.4117 22.4138 58.1517)" fill="white"/>
<circle opacity="0.61" cx="28.487" cy="44.4173" r="1" transform="rotate(-46.4117 28.487 44.4173)" fill="white"/>
<circle opacity="0.61" cx="24.4138" cy="8.15168" r="1" transform="rotate(-46.4117 24.4138 8.15168)" fill="white"/>
<circle opacity="0.61" cx="40.7804" cy="51.7108" r="0.5" transform="rotate(133.588 40.7804 51.7108)" fill="white"/>
<circle opacity="0.61" cx="53.7062" cy="40.4442" r="0.5" transform="rotate(133.588 53.7062 40.4442)" fill="white"/>
<circle opacity="0.56" cx="9.78041" cy="39.7108" r="0.5" transform="rotate(133.588 9.78041 39.7108)" fill="white"/>
<circle opacity="0.74" cx="16.7804" cy="22.7108" r="0.5" transform="rotate(133.588 16.7804 22.7108)" fill="white"/>
<circle opacity="0.58" cx="19.4138" cy="80.1517" r="1" transform="rotate(-46.4117 19.4138 80.1517)" fill="white"/>
<circle opacity="0.63" cx="4.48703" cy="20.4173" r="1" transform="rotate(-46.4117 4.48703 20.4173)" fill="white"/>
<circle opacity="0.59" cx="47.2503" cy="73.8425" r="1" transform="rotate(133.588 47.2503 73.8425)" fill="white"/>
<circle opacity="0.65" cx="24.7069" cy="33.4455" r="0.5" transform="rotate(-46.4117 24.7069 33.4455)" fill="white"/>
<circle opacity="0.65" cx="46.7069" cy="8.44547" r="0.5" transform="rotate(-46.4117 46.7069 8.44547)" fill="white"/>
<circle opacity="0.65" cx="10.7069" cy="60.4455" r="0.5" transform="rotate(-46.4117 10.7069 60.4455)" fill="white"/>
<circle opacity="0.65" cx="33.7069" cy="82.4455" r="0.5" transform="rotate(-46.4117 33.7069 82.4455)" fill="white"/>
<circle opacity="0.65" cx="36.7069" cy="67.4455" r="0.5" transform="rotate(-46.4117 36.7069 67.4455)" fill="white"/>
<circle opacity="0.34" cx="12.7801" cy="12.7111" r="0.5" transform="rotate(-46.4117 12.7801 12.7111)" fill="white"/>
<circle opacity="0.8" cx="39.4866" cy="20.4177" r="1" transform="rotate(133.588 39.4866 20.4177)" fill="white"/>
<circle opacity="0.77" cx="40.7069" cy="32.4455" r="0.5" transform="rotate(-46.4117 40.7069 32.4455)" fill="white"/>
<circle opacity="0.77" cx="45.7069" cy="94.4455" r="0.5" transform="rotate(-46.4117 45.7069 94.4455)" fill="white"/>
</svg>
