<svg width="259" height="286" viewBox="0 0 259 286" fill="none" xmlns="http://www.w3.org/2000/svg">
<g filter="url(#filter0_f_1346_1647)">
<path d="M199 60H198.117C183.343 88.8194 159.459 111.949 130.181 125.791L128.324 126.669C127.95 126.845 127.517 126.845 127.144 126.669L123.922 125.146C95.6983 111.802 73.292 88.6472 60.8831 60H60V142.7V225.4H60.8831C73.292 196.753 95.6983 173.598 123.922 160.254L127.144 158.731C127.517 158.555 127.95 158.555 128.324 158.731L130.181 159.609C159.459 173.451 183.343 196.581 198.117 225.4H199V142.7V60Z" fill="#164CFF" fill-opacity="0.4"/>
</g>
<g filter="url(#filter1_f_1346_1647)">
<path d="M199 83.6289H198.117C183.302 104.272 162.385 119.747 138.311 127.877L128.17 131.301C127.887 131.397 127.581 131.397 127.297 131.301L115.31 127.253C92.593 119.582 73.3163 104.131 60.8831 83.6289H60V142.7V201.772H60.8831C73.3163 181.269 92.593 165.819 115.31 158.147L127.297 154.099C127.581 154.004 127.887 154.004 128.17 154.099L138.311 157.524C162.385 165.653 183.302 181.129 198.117 201.772H199V142.7V83.6289Z" fill="#40AFFF" fill-opacity="0.75"/>
</g>
<g filter="url(#filter2_f_1346_1647)">
<path d="M199 105.507H198.117C183.178 118.613 165.125 127.665 145.687 131.798L128.062 135.546C127.846 135.592 127.622 135.592 127.406 135.546L107.279 131.267C89.5889 127.505 73.4296 118.533 60.8831 105.507H60V142.7V179.893H60.8831C73.4296 166.867 89.5889 157.895 107.279 154.133L127.406 149.854C127.622 149.808 127.846 149.808 128.062 149.854L145.687 153.601C165.125 157.735 183.178 166.787 198.117 179.893H199V142.7V105.507Z" fill="white"/>
</g>
<defs>
<filter id="filter0_f_1346_1647" x="0.370369" y="0.370369" width="258.259" height="284.66" filterUnits="userSpaceOnUse" color-interpolation-filters="sRGB">
<feFlood flood-opacity="0" result="BackgroundImageFix"/>
<feBlend mode="normal" in="SourceGraphic" in2="BackgroundImageFix" result="shape"/>
<feGaussianBlur stdDeviation="29.8148" result="effect1_foregroundBlur_1346_1647"/>
</filter>
<filter id="filter1_f_1346_1647" x="24.2222" y="47.8511" width="210.556" height="189.698" filterUnits="userSpaceOnUse" color-interpolation-filters="sRGB">
<feFlood flood-opacity="0" result="BackgroundImageFix"/>
<feBlend mode="normal" in="SourceGraphic" in2="BackgroundImageFix" result="shape"/>
<feGaussianBlur stdDeviation="17.8889" result="effect1_foregroundBlur_1346_1647"/>
</filter>
<filter id="filter2_f_1346_1647" x="36.1481" y="81.655" width="186.704" height="122.09" filterUnits="userSpaceOnUse" color-interpolation-filters="sRGB">
<feFlood flood-opacity="0" result="BackgroundImageFix"/>
<feBlend mode="normal" in="SourceGraphic" in2="BackgroundImageFix" result="shape"/>
<feGaussianBlur stdDeviation="11.9259" result="effect1_foregroundBlur_1346_1647"/>
</filter>
</defs>
</svg>
