<?xml version="1.0" encoding="UTF-8"?>
<svg id="Camada_1" data-name="Camada 1" xmlns="http://www.w3.org/2000/svg" viewBox="0 0 161.66 135.59">
  <defs>
    <style>
      .cls-1 {
        fill: #f0f0f0;
      }
    </style>
  </defs>
  <path class="cls-1" d="M109.51,0h33.9c10.08,0,18.25,8.17,18.25,18.25v99.08c0,10.08-8.17,18.25-18.25,18.25h-18.25V15.64c0-3.15-.93-6.07-2.53-8.52-2.06-3.18-5.25-5.56-9-6.58-1.31-.36-2.69-.55-4.12-.55Z"/>
  <path class="cls-1" d="M78.18,89.39l10.24,14.63,3.56,5.09,14.25,20.36.03.04c.12.2.25.4.39.59.09.13.18.25.28.37h0c2.54,3.34,6.42,5.11,10.35,5.11h20.72l-7.83-11.18-10.23-14.61-18.08-25.82-.24-.35c-2.78-3.85-7.31-5.75-11.75-5.34-2.11.19-4.21.9-6.1,2.17-3.17,2.14-5.1,5.43-5.61,8.93Z"/>
  <path class="cls-1" d="M91.25,78.22l-7.83,11.18-10.23,14.61-10.64,15.2-7.43,10.62-.09.13c-.91.27-1.88.41-2.87.41-5.76,0-10.43-4.67-10.43-10.43v-10.25l3.5-4.99.28-.4,13.98-19.96.03-.04c.12-.2.25-.4.39-.59.09-.13.18-.25.28-.37h0c2.54-3.34,6.42-5.11,10.35-5.11h20.72Z"/>
  <path class="cls-1" d="M52.15,135.59H18.25c-10.08,0-18.25-8.17-18.25-18.25V18.25C0,8.17,8.17,0,18.25,0h18.25v119.94c0,3.15.93,6.07,2.53,8.52,2.06,3.18,5.25,5.56,9,6.58,1.31.36,2.69.55,4.12.55Z"/>
  <path class="cls-1" d="M83.48,46.19l-10.24-14.63-3.56-5.09-14.25-20.36-.03-.04c-.12-.2-.25-.4-.39-.59-.09-.13-.18-.25-.28-.37h0c-2.54-3.34-6.42-5.11-10.35-5.11h-20.72l7.83,11.18,10.23,14.61,18.08,25.82.24.35c2.78,3.85,7.31,5.75,11.75,5.34,2.11-.19,4.21-.9,6.1-2.17,3.17-2.14,5.1-5.43,5.61-8.93Z"/>
  <path class="cls-1" d="M70.41,57.36l7.83-11.18,10.23-14.61,10.64-15.2,7.43-10.62.09-.13c.91-.27,1.88-.41,2.87-.41,5.76,0,10.43,4.67,10.43,10.43v10.25l-3.5,4.99-.28.4-13.98,19.96-.03.04c-.12.2-.25.4-.39.59-.09.13-.18.25-.28.37h0c-2.54,3.34-6.42,5.11-10.35,5.11h-20.72Z"/>
</svg>