<svg width="24" height="24" viewBox="0 0 24 24" fill="none" xmlns="http://www.w3.org/2000/svg">
<g id="Check-1--Streamline-Ultimate" clip-path="url(#clip0_358_3103)">
<path id="Vector" d="M23.3702 0.290071C23.211 0.174224 23.0304 0.0910815 22.8388 0.0454494C22.6473 -0.000182752 22.4486 -0.00739957 22.2543 0.0242161C22.0599 0.0558317 21.8738 0.125653 21.7066 0.229643C21.5394 0.333634 21.3945 0.469732 21.2802 0.630071L7.25018 20.2001L2.56018 15.5101C2.27583 15.2451 1.89974 15.1009 1.51114 15.1077C1.12253 15.1146 0.751764 15.272 0.476938 15.5468C0.202112 15.8217 0.0446878 16.1924 0.0378314 16.581C0.0309749 16.9696 0.175221 17.3457 0.440181 17.6301L6.37018 23.5701C6.52666 23.7192 6.71296 23.8335 6.91681 23.9054C7.12067 23.9773 7.33745 24.0052 7.55287 23.9873C7.76829 23.9693 7.97746 23.9059 8.1666 23.8013C8.35574 23.6966 8.52055 23.5531 8.65018 23.3801L23.7202 2.38007C23.8355 2.22025 23.918 2.03914 23.9629 1.84722C24.0077 1.6553 24.0141 1.45639 23.9815 1.262C23.949 1.06762 23.8782 0.881619 23.7732 0.714784C23.6683 0.54795 23.5313 0.403592 23.3702 0.290071Z" fill="#E9DFFF"/>
</g>
<defs>
<clipPath id="clip0_358_3103">
<rect width="24" height="24" fill="white"/>
</clipPath>
</defs>
</svg>
