<svg width="24" height="24" viewBox="0 0 24 24" fill="none" xmlns="http://www.w3.org/2000/svg">
<g id="Cross-Over--Streamline-Ultimate">
<g id="Group">
<path id="Vector" d="M2.88005 22.25C3.20872 22.2475 3.52381 22.1186 3.76005 21.89L19.24 6.41002C19.2863 6.36676 19.3467 6.34187 19.41 6.34002C19.4763 6.3421 19.5398 6.3668 19.59 6.41002L21.52 8.36002C21.6176 8.45118 21.7465 8.50131 21.88 8.50002H22.07C22.1662 8.45772 22.2472 8.38732 22.3026 8.29807C22.3579 8.20882 22.3849 8.10492 22.38 8.00002V2.00002C22.3775 1.86821 22.324 1.74252 22.2308 1.6493C22.1375 1.55608 22.0119 1.50258 21.88 1.50002H15.88C15.781 1.49916 15.6841 1.52832 15.602 1.58366C15.5198 1.639 15.4564 1.71792 15.42 1.81002C15.3814 1.90148 15.3702 2.00224 15.388 2.09994C15.4057 2.19764 15.4516 2.28803 15.52 2.36002L17.44 4.28002C17.4843 4.32952 17.5088 4.3936 17.5088 4.46002C17.5088 4.52643 17.4843 4.59052 17.44 4.64002L2.00005 20.12C1.88364 20.2361 1.79128 20.3741 1.72827 20.5259C1.66525 20.6778 1.63281 20.8406 1.63281 21.005C1.63281 21.1694 1.66525 21.3322 1.72827 21.4841C1.79128 21.636 1.88364 21.7739 2.00005 21.89C2.23628 22.1186 2.55137 22.2475 2.88005 22.25Z" fill="#E9DFFF"/>
<path id="Vector_2" d="M22.3801 21.9999V16.0499C22.379 15.9501 22.3492 15.8527 22.2942 15.7693C22.2392 15.686 22.1614 15.6202 22.0701 15.5799C21.9773 15.545 21.8766 15.5368 21.7793 15.5562C21.6821 15.5756 21.5923 15.622 21.5201 15.6899L19.5801 17.6099C19.5576 17.6338 19.5305 17.6529 19.5004 17.6659C19.4703 17.679 19.4379 17.6857 19.4051 17.6857C19.3723 17.6857 19.3398 17.679 19.3097 17.6659C19.2796 17.6529 19.2525 17.6338 19.2301 17.6099L15.7201 14.1499C15.6101 14.0087 15.4711 13.8928 15.3124 13.8099C15.1538 13.7271 14.9792 13.6793 14.8005 13.6697C14.6217 13.6602 14.4431 13.6892 14.2765 13.7547C14.1099 13.8202 13.9594 13.9207 13.835 14.0494C13.7106 14.1781 13.6153 14.332 13.5556 14.5007C13.4958 14.6694 13.473 14.849 13.4887 15.0273C13.5043 15.2056 13.5581 15.3784 13.6463 15.5342C13.7346 15.6899 13.8552 15.8249 14.0001 15.9299L17.4801 19.3699C17.5049 19.3929 17.5248 19.4208 17.5386 19.4517C17.5523 19.4827 17.5596 19.5161 17.5601 19.5499C17.5595 19.5823 17.552 19.6142 17.5382 19.6435C17.5245 19.6728 17.5046 19.6988 17.4801 19.7199L15.5501 21.6399C15.482 21.7099 15.4354 21.7981 15.4159 21.8938C15.3964 21.9895 15.4048 22.0888 15.4401 22.1799C15.4782 22.2728 15.5435 22.3521 15.6273 22.4074C15.7111 22.4627 15.8097 22.4914 15.9101 22.4899H21.9101C22.0357 22.4824 22.1539 22.4278 22.241 22.3369C22.3281 22.2461 22.3778 22.1258 22.3801 21.9999Z" fill="#E9DFFF"/>
<path id="Vector_3" d="M2.00003 2.11991C1.88271 2.23448 1.78949 2.37135 1.72584 2.52247C1.66218 2.6736 1.62939 2.83593 1.62939 2.99991C1.62939 3.16389 1.66218 3.32622 1.72584 3.47734C1.78949 3.62847 1.88271 3.76534 2.00003 3.87991L8.00003 9.87991C8.11389 9.99848 8.25052 10.0928 8.40175 10.1573C8.55297 10.2217 8.71565 10.2549 8.88003 10.2549C9.04441 10.2549 9.2071 10.2217 9.35832 10.1573C9.50954 10.0928 9.64618 9.99848 9.76003 9.87991C9.87614 9.76465 9.96828 9.62755 10.0312 9.47652C10.094 9.32549 10.1264 9.16351 10.1264 8.99991C10.1264 8.83631 10.094 8.67433 10.0312 8.52329C9.96828 8.37226 9.87614 8.23517 9.76003 8.11991L3.76003 2.11991C3.64547 2.00259 3.50859 1.90936 3.35747 1.84571C3.20634 1.78206 3.04402 1.74927 2.88003 1.74927C2.71605 1.74927 2.55373 1.78206 2.4026 1.84571C2.25148 1.90936 2.1146 2.00259 2.00003 2.11991Z" fill="#E9DFFF"/>
</g>
</g>
</svg>
