<svg width="13" height="17" viewBox="0 0 13 17" fill="none" xmlns="http://www.w3.org/2000/svg">
<g clip-path="url(#clip0_358_19585)">
<path d="M4.23991 12.6248C4.23991 12.6248 3.58939 12.9875 4.70287 13.1103C6.05182 13.2579 6.74125 13.2367 8.2278 12.9669C8.2278 12.9669 8.61863 13.2019 9.16445 13.4054C5.83199 14.7751 1.62245 13.3261 4.23991 12.6248ZM3.8327 10.8375C3.8327 10.8375 3.10308 11.3554 4.21738 11.4659C5.65837 11.6085 6.79635 11.6201 8.7655 11.2565C8.7655 11.2565 9.0379 11.5213 9.46617 11.6661C5.43699 12.796 0.949256 11.7552 3.8327 10.8375Z" fill="#E9DFFF"/>
<path d="M7.26534 7.80564C8.08646 8.71222 7.04965 9.52807 7.04965 9.52807C7.04965 9.52807 9.13451 8.49591 8.17703 7.20341C7.28273 5.99802 6.59692 5.39918 10.3096 3.33429C10.3097 3.33425 4.48192 4.73002 7.26534 7.80564Z" fill="#E9DFFF"/>
<path d="M11.6729 13.9468C11.6729 13.9468 12.1543 14.3272 11.1427 14.6214C9.21914 15.1802 3.13671 15.349 1.44704 14.6437C0.839644 14.3903 1.97868 14.0386 2.33698 13.9649C2.71065 13.8872 2.92418 13.9016 2.92418 13.9016C2.2487 13.4453 -1.44187 14.7976 1.04956 15.1849C7.84404 16.2416 13.4353 14.7091 11.6729 13.9468ZM4.55256 8.98566C4.55256 8.98566 1.45865 9.69037 3.45693 9.94627C4.30066 10.0546 5.98263 10.0301 7.54929 9.90421C8.82969 9.80063 10.1154 9.58045 10.1154 9.58045C10.1154 9.58045 9.66393 9.76587 9.33729 9.97971C6.19548 10.7722 0.126078 10.4035 1.87338 9.59295C3.35107 8.90795 4.55256 8.98566 4.55256 8.98566ZM10.1027 11.9607C13.2965 10.3692 11.8198 8.83966 10.7891 9.04576C10.5364 9.09619 10.4238 9.13988 10.4238 9.13988C10.4238 9.13988 10.5176 8.99899 10.6967 8.938C12.7357 8.25054 14.3039 10.9656 10.0384 12.0409C10.0384 12.0409 10.0879 11.9986 10.1027 11.9607Z" fill="#E9DFFF"/>
<path d="M8.17718 0C8.17718 0 9.94596 1.69674 6.49957 4.30595C3.73593 6.39891 5.86938 7.59229 6.49843 8.95581C4.88529 7.55999 3.70142 6.33133 4.49565 5.18776C5.66135 3.50911 8.89084 2.69524 8.17718 0Z" fill="#E9DFFF"/>
<path d="M4.86669 16.2733C7.93234 16.4615 12.64 16.1689 12.7514 14.7779C12.7514 14.7779 12.5372 15.3052 10.2178 15.724C7.60129 16.1962 4.37405 16.1411 2.45996 15.8385C2.46005 15.8384 2.85184 16.1494 4.86669 16.2733Z" fill="#E9DFFF"/>
</g>
<defs>
<clipPath id="clip0_358_19585">
<rect width="13" height="17" fill="white"/>
</clipPath>
</defs>
</svg>
