<svg width="24" height="24" viewBox="0 0 24 24" fill="none" xmlns="http://www.w3.org/2000/svg">
<g clip-path="url(#clip0_358_19462)">
<path d="M21.5801 11.1298C21.5543 11.0514 21.5099 10.9804 21.4507 10.9229C21.3915 10.8654 21.3192 10.8232 21.2401 10.7998C21.1613 10.7755 21.0775 10.772 20.997 10.7895C20.9164 10.807 20.8417 10.845 20.7801 10.8998C20.1704 11.4013 19.4981 11.8215 18.7801 12.1498C18.7448 12.169 18.7052 12.1791 18.6651 12.1791C18.6249 12.1791 18.5853 12.169 18.5501 12.1498C18.514 12.1292 18.4834 12.1003 18.4608 12.0656C18.4382 12.0308 18.4242 11.9911 18.4201 11.9498C18.21 9.06106 17.0507 6.32287 15.1227 4.16153C13.1947 2.00019 10.6061 0.536991 7.76006 -0.000236792C7.66683 -0.0162678 7.57095 -0.00496923 7.484 0.032295C7.39705 0.0695592 7.32275 0.131196 7.27006 0.209763C7.21924 0.288805 7.19222 0.380793 7.19222 0.474763C7.19222 0.568733 7.21924 0.660721 7.27006 0.739763C8.08329 2.19397 8.50698 3.83363 8.50006 5.49976C8.49801 6.63595 8.28437 7.76181 7.87006 8.81976C7.84864 8.85945 7.81688 8.8926 7.77815 8.91571C7.73942 8.93882 7.69516 8.95102 7.65006 8.95102C7.60496 8.95102 7.5607 8.93882 7.52197 8.91571C7.48324 8.8926 7.45148 8.85945 7.43006 8.81976C6.98949 8.10788 6.65277 7.33678 6.43006 6.52976C6.40667 6.45062 6.36442 6.37833 6.30694 6.31911C6.24946 6.25989 6.17847 6.21551 6.10006 6.18976C6.01962 6.16562 5.9344 6.16212 5.85226 6.1796C5.77012 6.19708 5.6937 6.23496 5.63006 6.28976C4.4907 7.22492 3.57381 8.40199 2.94594 9.73557C2.31807 11.0691 1.99496 12.5258 2.00006 13.9998V14.5398C2.07933 15.9487 2.4559 17.3249 3.10501 18.5779C3.75412 19.8309 4.66108 20.9323 5.76626 21.8098C6.87145 22.6872 8.14983 23.3209 9.51737 23.669C10.8849 24.0171 12.3107 24.0718 13.7009 23.8296C15.0911 23.5874 16.4143 23.0536 17.5835 22.2635C18.7527 21.4734 19.7414 20.4447 20.4847 19.2452C21.228 18.0456 21.709 16.7023 21.896 15.3036C22.0831 13.9049 21.972 12.4825 21.5701 11.1298H21.5801ZM12.0001 21.2498C11.4654 21.25 10.9361 21.143 10.4435 20.9351C9.95087 20.7272 9.50493 20.4227 9.13202 20.0396C8.75911 19.6564 8.4668 19.2024 8.27238 18.7043C8.07795 18.2062 7.98536 17.6742 8.00006 17.1398C8.0172 15.6626 8.46674 14.2228 9.29314 12.9983C10.1195 11.7738 11.2866 10.8183 12.6501 10.2498C12.7005 10.2298 12.7561 10.2268 12.8084 10.2413C12.8608 10.2557 12.907 10.2868 12.9401 10.3298C12.9733 10.3746 12.9913 10.4289 12.9913 10.4848C12.9913 10.5406 12.9733 10.5949 12.9401 10.6398C12.5147 11.2361 12.2483 11.931 12.166 12.6589C12.0838 13.3867 12.1884 14.1236 12.4701 14.7998C12.4886 14.8344 12.5141 14.8648 12.5452 14.8889C12.5762 14.913 12.6119 14.9304 12.6501 14.9398C12.6889 14.9451 12.7284 14.9426 12.7662 14.9323C12.804 14.922 12.8393 14.9041 12.8701 14.8798C13.2101 14.6039 13.4636 14.2359 13.6001 13.8198C13.6102 13.7844 13.628 13.7518 13.6522 13.7241C13.6764 13.6965 13.7064 13.6745 13.7401 13.6598C13.7723 13.6423 13.8084 13.6331 13.8451 13.6331C13.8817 13.6331 13.9178 13.6423 13.9501 13.6598C14.6111 13.9851 15.1596 14.5009 15.525 15.1407C15.8904 15.7805 16.0558 16.5151 16.0001 17.2498C16.011 17.778 15.9149 18.3031 15.7178 18.7933C15.5206 19.2835 15.2264 19.7288 14.8528 20.1025C14.4791 20.4761 14.0338 20.7703 13.5436 20.9675C13.0534 21.1646 12.5283 21.2607 12.0001 21.2498Z" fill="white"/>
</g>
<defs>
<clipPath id="clip0_358_19462">
<rect width="24" height="24" fill="white"/>
</clipPath>
</defs>
</svg>
