<svg width="24" height="24" viewBox="0 0 24 24" fill="none" xmlns="http://www.w3.org/2000/svg">
<g clip-path="url(#clip0_358_19467)">
<path d="M24 1.5C24 1.10218 23.842 0.720644 23.5607 0.43934C23.2794 0.158035 22.8978 0 22.5 0L1.5 0C1.10218 0 0.720644 0.158035 0.43934 0.43934C0.158035 0.720644 0 1.10218 0 1.5L0 17.5C0 17.8978 0.158035 18.2794 0.43934 18.5607C0.720644 18.842 1.10218 19 1.5 19H22.5C22.8978 19 23.2794 18.842 23.5607 18.5607C23.842 18.2794 24 17.8978 24 17.5V1.5ZM2 2.5C2 2.36739 2.05268 2.24021 2.14645 2.14645C2.24021 2.05268 2.36739 2 2.5 2H21.5C21.6326 2 21.7598 2.05268 21.8536 2.14645C21.9473 2.24021 22 2.36739 22 2.5V7.82C22 7.95261 21.9473 8.07979 21.8536 8.17355C21.7598 8.26732 21.6326 8.32 21.5 8.32H18.67C18.5684 8.32071 18.469 8.29048 18.3851 8.23331C18.3011 8.17615 18.2366 8.09477 18.2 8L16.92 4.47C16.8234 4.16382 16.6317 3.8964 16.3727 3.70658C16.1138 3.51676 15.8011 3.41442 15.48 3.41442C15.1589 3.41442 14.8462 3.51676 14.5873 3.70658C14.3283 3.8964 14.1366 4.16382 14.04 4.47L12.51 9.85C12.4925 9.89826 12.4605 9.93996 12.4185 9.96943C12.3764 9.9989 12.3263 10.0147 12.275 10.0147C12.2237 10.0147 12.1736 9.9989 12.1315 9.96943C12.0895 9.93996 12.0575 9.89826 12.04 9.85L10.44 6.05C10.3447 5.76691 10.1654 5.51958 9.92602 5.34093C9.68663 5.16228 9.3985 5.0608 9.1 5.05C8.82266 5.03353 8.54614 5.0939 8.3009 5.22446C8.05566 5.35502 7.85119 5.55072 7.71 5.79L6.13 8.11C6.08238 8.17415 6.02063 8.22646 5.94952 8.26288C5.87842 8.2993 5.79988 8.31884 5.72 8.32H2.5C2.36739 8.32 2.24021 8.26732 2.14645 8.17355C2.05268 8.07979 2 7.95261 2 7.82V2.5ZM22 14.5C22 14.6326 21.9473 14.7598 21.8536 14.8536C21.7598 14.9473 21.6326 15 21.5 15H2.5C2.36739 15 2.24021 14.9473 2.14645 14.8536C2.05268 14.7598 2 14.6326 2 14.5V10.82C2 10.6874 2.05268 10.5602 2.14645 10.4664C2.24021 10.3727 2.36739 10.32 2.5 10.32H6.5C6.66122 10.3197 6.81998 10.2805 6.96276 10.2056C7.10554 10.1307 7.22811 10.0225 7.32 9.89L8.66 8C8.67986 7.95996 8.71052 7.92626 8.7485 7.9027C8.78649 7.87914 8.8303 7.86665 8.875 7.86665C8.9197 7.86665 8.96351 7.87914 9.0015 7.9027C9.03948 7.92626 9.07014 7.95996 9.09 8L11 12.51C11.1037 12.8034 11.2961 13.0572 11.5505 13.2364C11.805 13.4156 12.1088 13.5112 12.42 13.51H12.49C12.805 13.5004 13.1088 13.3905 13.357 13.1962C13.6052 13.0019 13.785 12.7335 13.87 12.43L15.35 7.28C15.3642 7.22855 15.3939 7.18272 15.435 7.14873C15.4762 7.11474 15.5268 7.09423 15.58 7.09C15.6339 7.09016 15.6865 7.10643 15.731 7.13673C15.7756 7.16702 15.81 7.20996 15.83 7.26L16.57 9.31C16.6717 9.6067 16.8649 9.86343 17.1219 10.0432C17.379 10.2229 17.6864 10.3163 18 10.31H21.5C21.6326 10.31 21.7598 10.3627 21.8536 10.4564C21.9473 10.5502 22 10.6774 22 10.81V14.5Z" fill="white"/>
<path d="M14.3502 20.68C14.261 20.5773 14.1357 20.5129 14.0002 20.5H10.0002C9.92625 20.5011 9.85333 20.5177 9.78616 20.5487C9.71899 20.5797 9.65906 20.6244 9.61022 20.68L7.51022 23.21C7.46142 23.2879 7.43555 23.378 7.43555 23.47C7.43555 23.562 7.46142 23.6521 7.51022 23.73C7.55342 23.8206 7.62392 23.8953 7.71181 23.9438C7.7997 23.9922 7.90057 24.0119 8.00022 24H16.0002C16.0908 23.9971 16.1791 23.9702 16.2558 23.9219C16.3325 23.8736 16.395 23.8057 16.4368 23.7252C16.4786 23.6447 16.4981 23.5545 16.4934 23.464C16.4888 23.3734 16.46 23.2858 16.4102 23.21L14.3502 20.68Z" fill="white"/>
</g>
<defs>
<clipPath id="clip0_358_19467">
<rect width="24" height="24" fill="white"/>
</clipPath>
</defs>
</svg>
