<svg width="24" height="24" viewBox="0 0 24 24" fill="none" xmlns="http://www.w3.org/2000/svg">
<g id="Pin-Location-2--Streamline-Ultimate" clip-path="url(#clip0_358_3113)">
<g id="Group">
<path id="Vector" d="M10.1798 8.66996C10.2754 8.70529 10.3576 8.76955 10.4149 8.85379C10.4723 8.93804 10.5019 9.03806 10.4998 9.13996V19.94C10.4998 20.2715 10.6315 20.5894 10.8659 20.8238C11.1003 21.0583 11.4183 21.19 11.7498 21.19C12.0813 21.19 12.3992 21.0583 12.6337 20.8238C12.8681 20.5894 12.9998 20.2715 12.9998 19.94V9.13996C12.9991 9.03838 13.0293 8.939 13.0865 8.85504C13.1436 8.77108 13.225 8.70652 13.3198 8.66996C14.3058 8.30194 15.1312 7.59925 15.6519 6.68458C16.1725 5.76992 16.3553 4.70142 16.1683 3.6657C15.9814 2.62997 15.4365 1.69285 14.6289 1.01798C13.8213 0.343108 12.8022 -0.0266113 11.7498 -0.0266113C10.6973 -0.0266113 9.67828 0.343108 8.87067 1.01798C8.06306 1.69285 7.51818 2.62997 7.3312 3.6657C7.14422 4.70142 7.32702 5.76992 7.84767 6.68458C8.36833 7.59925 9.19374 8.30194 10.1798 8.66996Z" fill="#E9DFFF"/>
<path id="Vector_2" d="M16.48 17.5799C16.2179 17.5633 15.9598 17.6505 15.7615 17.8227C15.5631 17.9948 15.4405 18.2381 15.42 18.4999C15.4061 18.6305 15.4182 18.7627 15.4554 18.8887C15.4926 19.0147 15.5544 19.1322 15.637 19.2343C15.7197 19.3365 15.8217 19.4214 15.9371 19.4841C16.0526 19.5468 16.1793 19.5862 16.31 19.5999C17.6127 19.7069 18.906 19.9074 20.18 20.1999C20.2883 20.2272 20.384 20.2906 20.4513 20.3797C20.5186 20.4688 20.5534 20.5783 20.55 20.6899C20.5524 20.8016 20.5158 20.9107 20.4465 20.9983C20.3771 21.0859 20.2793 21.1466 20.17 21.1699C17.488 21.7619 14.7463 22.0405 12 21.9999C9.25527 22.0536 6.51359 21.7885 3.83 21.2099C3.72069 21.1866 3.62291 21.1259 3.55354 21.0383C3.48417 20.9507 3.44755 20.8416 3.45 20.7299C3.4484 20.6187 3.48392 20.5101 3.55093 20.4214C3.61794 20.3326 3.71262 20.2688 3.82 20.2399C5.09395 19.9474 6.38729 19.7469 7.69 19.6399C7.82069 19.6261 7.9474 19.5868 8.06287 19.5241C8.17835 19.4614 8.28033 19.3765 8.36299 19.2743C8.44564 19.1722 8.50735 19.0547 8.54459 18.9287C8.58183 18.8027 8.59386 18.6706 8.58 18.5399C8.55951 18.2781 8.43686 18.0348 8.23852 17.8627C8.04019 17.6905 7.7821 17.6033 7.52 17.6199C0 18.2599 0 20.0899 0 20.6899C0 23.7599 9.19 23.9999 12 23.9999C14.81 23.9999 24 23.7599 24 20.6899C24 20.0899 24 18.2599 16.48 17.5799Z" fill="#E9DFFF"/>
</g>
</g>
<defs>
<clipPath id="clip0_358_3113">
<rect width="24" height="24" fill="white"/>
</clipPath>
</defs>
</svg>
