<svg width="15" height="15" viewBox="0 0 15 15" fill="none" xmlns="http://www.w3.org/2000/svg">
<path d="M8.90615 0.1125L9.46865 0.2375L9.9249 0.4L10.2937 0.5875L10.5749 0.7875L10.7874 1L10.9437 1.2125L11.0437 1.41875L11.1062 1.60625L11.1312 1.76875L11.1437 1.89375L11.1374 1.975V5.3125L11.1062 5.70625L11.0249 6.05L10.8937 6.3375L10.7312 6.575L10.5437 6.76875L10.3374 6.925L10.1187 7.04375L9.8999 7.13125L9.69365 7.19375L9.50615 7.2375L9.34365 7.2625L9.2124 7.275H5.48115L5.0499 7.30625L4.68115 7.39375L4.36865 7.53125L4.1124 7.7L3.90615 7.9L3.7374 8.11875L3.6124 8.34375L3.51865 8.575L3.45615 8.79375L3.4124 8.99375L3.3874 9.1625L3.3749 9.29375V11.2063H1.98115L1.8499 11.1875L1.6749 11.1438L1.4749 11.0687L1.25615 10.9563L1.03115 10.7938L0.806152 10.5688L0.587402 10.2812L0.387402 9.9125L0.212402 9.45625L0.0811523 8.90625L-0.00634766 8.25L-0.0375977 7.48125L-9.76585e-05 6.71875L0.0999023 6.06875L0.249902 5.525L0.449902 5.08125L0.674902 4.725L0.924902 4.45L1.1874 4.24375L1.4499 4.09375L1.6999 3.99375L1.9249 3.93125L2.1249 3.9L2.2749 3.89375H2.3749L2.4124 3.9H7.5124V3.38125H3.8624L3.85615 1.6625L3.84365 1.43125L3.8749 1.21875L3.94365 1.025L4.0499 0.85L4.20615 0.6875L4.3999 0.54375L4.6374 0.41875L4.9124 0.30625L5.23115 0.2125L5.59365 0.1375L5.99365 0.075L6.4374 0.0375L6.91865 0.0125L7.44365 0L8.2374 0.03125L8.90615 0.1125ZM4.96865 1.35L4.8249 1.55625L4.7749 1.8125L4.8249 2.06875L4.96865 2.28125L5.1749 2.41875L5.43115 2.475L5.6874 2.41875L5.89365 2.28125L6.0374 2.06875L6.0874 1.8125L6.0374 1.55625L5.89365 1.35L5.6874 1.2125L5.43115 1.15625L5.1749 1.2125L4.96865 1.35ZM13.1499 3.81875L13.3249 3.85625L13.5249 3.93125L13.7437 4.04375L13.9687 4.2125L14.1937 4.43125L14.4124 4.725L14.6124 5.09375L14.7874 5.55L14.9187 6.1L15.0062 6.75L15.0374 7.51875L14.9999 8.2875L14.8999 8.9375L14.7499 9.475L14.5499 9.91875L14.3249 10.275L14.0749 10.5562L13.8124 10.7625L13.5499 10.9125L13.2999 11.0125L13.0749 11.0687L12.8749 11.1L12.7249 11.1125L12.6249 11.1063H7.4874V11.6187H11.1374L11.1437 13.3438L11.1562 13.5687L11.1249 13.7812L11.0562 13.975L10.9499 14.1562L10.7937 14.3125L10.5999 14.4625L10.3624 14.5875L10.0874 14.6938L9.76865 14.7875L9.40615 14.8688L9.00615 14.925L8.5624 14.9688L8.08115 14.9937L7.55615 15L6.7624 14.975L6.09365 14.8875L5.53115 14.7625L5.0749 14.6063L4.70615 14.4187L4.4249 14.2125L4.2124 14L4.05615 13.7875L3.95615 13.5812L3.89365 13.3938L3.86865 13.2375L3.85615 13.1125L3.8624 13.0312V9.69375L3.89365 9.29375L3.9749 8.95625L4.10615 8.66875L4.26865 8.43125L4.45615 8.23125L4.6624 8.08125L4.88115 7.95625L5.0999 7.86875L5.30615 7.80625L5.49365 7.76875L5.65615 7.74375L5.7874 7.73125L5.86865 7.725H9.51865L9.9499 7.69375L10.3187 7.60625L10.6312 7.475L10.8874 7.3L11.0937 7.1L11.2624 6.88125L11.3874 6.65625L11.4812 6.43125L11.5437 6.2125L11.5874 6.0125L11.6124 5.8375L11.6249 5.70625V3.79375H12.9312L13.0187 3.8L13.1499 3.81875ZM9.10615 12.725L8.9624 12.9313L8.9124 13.1875L8.9624 13.4438L9.10615 13.65L9.3124 13.7937L9.56865 13.8438L9.8249 13.7937L10.0312 13.65L10.1749 13.4438L10.2249 13.1875L10.1749 12.9313L10.0312 12.725L9.8249 12.5812L9.56865 12.5312L9.3124 12.5812L9.10615 12.725Z" fill="#CDBCF0"/>
</svg>
