<svg width="15" height="15" viewBox="0 0 15 15" fill="none" xmlns="http://www.w3.org/2000/svg">
<path d="M12.5975 0.0519043C14.4931 0.380029 15.0306 1.67565 14.9906 3.03315L15 3.01378L14.1469 14.1938L3.05625 14.9538H3.06625C2.14563 14.915 0.09375 14.8307 0 11.9619L1.02813 10.0869L2.79 14.2032L3.10437 14.9357L4.8575 9.22065L4.83875 9.22503L4.84875 9.20628L10.6331 11.0538L9.76062 7.6594L9.14188 5.2219L14.6544 4.86628L14.27 4.54753L10.3125 1.32128L12.5994 0.0456543L12.5975 0.0519043ZM3.20625 3.17065C5.43188 0.962529 8.30437 -0.342471 9.4075 0.770654C10.5087 1.88128 9.34188 4.58628 7.11187 6.79315C4.885 9.00065 2.0475 10.3769 0.946875 9.26628C-0.156875 8.15565 0.975 5.38065 3.20437 3.17253L3.20625 3.17065Z" fill="#CDBCF0"/>
</svg>
