<svg width="24" height="24" viewBox="0 0 24 24" fill="none" xmlns="http://www.w3.org/2000/svg">
<g id="Synchronize-Refresh-Arrow-1--Streamline-Ultimate">
<path id="Vector" d="M12.5702 1.25994C10.4187 1.34377 8.34133 2.06816 6.60423 3.34024C4.86714 4.61233 3.54949 6.37417 2.82015 8.39994C2.80018 8.45343 2.76251 8.49848 2.71339 8.52759C2.66427 8.5567 2.60666 8.56812 2.55015 8.55994L0.860152 8.30994C0.767128 8.29747 0.672462 8.3104 0.586193 8.34737C0.499925 8.38434 0.425272 8.44398 0.370152 8.51994C0.321585 8.5998 0.295898 8.69147 0.295898 8.78494C0.295898 8.87841 0.321585 8.97008 0.370152 9.04994L3.00015 13.7499C3.04453 13.8249 3.10734 13.8872 3.18261 13.9309C3.25788 13.9747 3.3431 13.9984 3.43015 13.9999C3.56368 14.0012 3.69258 13.9511 3.79015 13.8599L7.56015 10.1099C7.62618 10.0445 7.67267 9.96199 7.6944 9.87161C7.71613 9.78124 7.71223 9.68659 7.68315 9.59831C7.65407 9.51002 7.60095 9.43159 7.52976 9.37182C7.45858 9.31205 7.37214 9.27331 7.28015 9.25994L5.59015 8.99994C5.55241 8.99291 5.5167 8.9776 5.48558 8.95512C5.45445 8.93265 5.4287 8.90356 5.41015 8.86994C5.39261 8.83593 5.38346 8.79821 5.38346 8.75994C5.38346 8.72167 5.39261 8.68396 5.41015 8.64994C6.00562 7.30113 6.95126 6.13629 8.14892 5.27634C9.34657 4.4164 10.7526 3.8927 12.221 3.75962C13.6893 3.62653 15.1666 3.88891 16.4993 4.51951C17.8321 5.15012 18.9718 6.12596 19.8 7.34573C20.6283 8.56551 21.115 9.98475 21.2095 11.4561C21.3041 12.9275 21.0031 14.3974 20.3378 15.7131C19.6725 17.0289 18.6671 18.1426 17.4261 18.9386C16.185 19.7346 14.7535 20.184 13.2802 20.2399C12.9486 20.2519 12.6354 20.395 12.4094 20.6379C12.1835 20.8807 12.0632 21.2034 12.0752 21.5349C12.0871 21.8665 12.2302 22.1797 12.4731 22.4056C12.7159 22.6316 13.0386 22.7519 13.3702 22.7399C16.2199 22.6352 18.9113 21.4027 20.8523 19.3135C22.7933 17.2243 23.8249 14.4497 23.7202 11.5999C23.6154 8.75019 22.3829 6.05877 20.2937 4.11777C18.2046 2.17677 15.4299 1.14518 12.5802 1.24994L12.5702 1.25994Z" fill="#E9DFFF"/>
</g>
</svg>
