<svg width="24" height="24" viewBox="0 0 24 24" fill="none" xmlns="http://www.w3.org/2000/svg">
<g clip-path="url(#clip0_358_3084)">
<path fill-rule="evenodd" clip-rule="evenodd" d="M23.4297 2.07227C23.4297 1.10577 22.6462 0.322266 21.6797 0.322266H16.5664C15.5999 0.322266 14.8164 1.10577 14.8164 2.07227V7.18555C14.8164 7.29202 14.8259 7.39628 14.8441 7.49751L7.32742 15.0142C7.30927 15.0324 7.29197 15.051 7.27551 15.0702C7.22845 15.0664 7.18086 15.0645 7.13281 15.0645H5.57813L5.57812 8.93945H7.13281C8.09931 8.93945 8.88281 8.15595 8.88281 7.18945V2.07617C8.88281 1.10967 8.09931 0.326172 7.13281 0.326172H2.01953C1.05303 0.326172 0.269531 1.10967 0.269531 2.07617V7.18945C0.269531 8.15595 1.05303 8.93945 2.01953 8.93945H3.57812L3.57813 15.0645H2.01953C1.05303 15.0645 0.269531 15.848 0.269531 16.8145V21.9277C0.269531 22.8942 1.05303 23.6777 2.01953 23.6777H7.13281C8.09931 23.6777 8.88281 22.8942 8.88281 21.9277V16.8145C8.88281 16.6535 8.86109 16.4977 8.82042 16.3497L16.2611 8.909C16.3602 8.92645 16.4623 8.93555 16.5664 8.93555H18.125V18.3223H15.2696C14.9662 18.3223 14.6927 18.505 14.5766 18.7853C14.4606 19.0655 14.5247 19.3881 14.7392 19.6026L18.5947 23.4581C18.8876 23.751 19.3625 23.751 19.6554 23.4581L23.5108 19.6026C23.7253 19.3881 23.7895 19.0655 23.6734 18.7853C23.5573 18.505 23.2838 18.3223 22.9805 18.3223H20.125V8.93555H21.6797C22.6462 8.93555 23.4297 8.15204 23.4297 7.18555V2.07227Z" fill="#E9DFFF"/>
</g>
<defs>
<clipPath id="clip0_358_3084">
<rect width="24" height="24" fill="white"/>
</clipPath>
</defs>
</svg>
