<svg width="24" height="24" viewBox="0 0 24 24" fill="none" xmlns="http://www.w3.org/2000/svg">
<g clip-path="url(#clip0_358_19474)">
<path d="M20.5402 2.63975C20.3996 2.4993 20.209 2.42041 20.0102 2.42041C19.8115 2.42041 19.6208 2.4993 19.4802 2.63975L17.8702 4.24975C17.7298 4.39038 17.6509 4.581 17.6509 4.77975C17.6509 4.9785 17.7298 5.16912 17.8702 5.30975C18.0108 5.4502 18.2015 5.52909 18.4002 5.52909C18.599 5.52909 18.7896 5.4502 18.9302 5.30975L20.5402 3.69975C20.6807 3.55912 20.7596 3.3685 20.7596 3.16975C20.7596 2.971 20.6807 2.78038 20.5402 2.63975Z" fill="white"/>
<path d="M15.19 0.279854C15.0911 0.278508 14.993 0.296989 14.9014 0.334204C14.8098 0.371418 14.7266 0.426612 14.6567 0.496526C14.5868 0.56644 14.5316 0.649655 14.4944 0.741257C14.4571 0.832859 14.4387 0.93099 14.44 1.02985V3.16985C14.44 3.36877 14.519 3.55953 14.6597 3.70018C14.8003 3.84084 14.9911 3.91985 15.19 3.91985C15.3889 3.91985 15.5797 3.84084 15.7203 3.70018C15.861 3.55953 15.94 3.36877 15.94 3.16985V0.999854C15.9323 0.806187 15.8498 0.623041 15.71 0.488813C15.5702 0.354585 15.3838 0.279699 15.19 0.279854Z" fill="white"/>
<path d="M22.15 7.23975H20C19.8011 7.23975 19.6103 7.31876 19.4697 7.45942C19.329 7.60007 19.25 7.79083 19.25 7.98975C19.25 8.18866 19.329 8.37942 19.4697 8.52008C19.6103 8.66073 19.8011 8.73975 20 8.73975H22.14C22.3389 8.73975 22.5297 8.66073 22.6703 8.52008C22.811 8.37942 22.89 8.18866 22.89 7.98975C22.89 7.79083 22.811 7.60007 22.6703 7.45942C22.5297 7.31876 22.3389 7.23975 22.14 7.23975H22.15Z" fill="white"/>
<path d="M4.09994 17.9996L2.49994 19.6196C2.42918 19.6886 2.37294 19.771 2.33455 19.862C2.29615 19.953 2.27637 20.0508 2.27637 20.1496C2.27637 20.2484 2.29615 20.3462 2.33455 20.4372C2.37294 20.5283 2.42918 20.6107 2.49994 20.6796C2.63185 20.8149 2.81108 20.8938 2.99994 20.8996C3.09848 20.9001 3.19612 20.8809 3.28713 20.8431C3.37814 20.8053 3.46069 20.7497 3.52994 20.6796L5.12994 19.0696C5.20069 19.0007 5.25693 18.9183 5.29533 18.8272C5.33373 18.7362 5.35351 18.6384 5.35351 18.5396C5.35351 18.4408 5.33373 18.343 5.29533 18.252C5.25693 18.161 5.20069 18.0786 5.12994 18.0096C4.99199 17.8768 4.80844 17.8017 4.61693 17.7998C4.42541 17.798 4.24044 17.8695 4.09994 17.9996Z" fill="white"/>
<path d="M7.8501 19.3999C7.65119 19.3999 7.46042 19.4789 7.31977 19.6196C7.17912 19.7602 7.1001 19.951 7.1001 20.1499V22.2899C7.1001 22.4888 7.17912 22.6796 7.31977 22.8202C7.46042 22.9609 7.65119 23.0399 7.8501 23.0399C8.04901 23.0399 8.23978 22.9609 8.38043 22.8202C8.52108 22.6796 8.6001 22.4888 8.6001 22.2899V20.1499C8.59751 19.9518 8.51766 19.7625 8.37756 19.6224C8.23747 19.4823 8.0482 19.4025 7.8501 19.3999Z" fill="white"/>
<path d="M3.77988 15.3299C3.77859 15.2292 3.75732 15.1298 3.71729 15.0374C3.67726 14.945 3.61928 14.8615 3.54671 14.7918C3.47414 14.722 3.38843 14.6673 3.29456 14.6309C3.20069 14.5946 3.10052 14.5772 2.99988 14.5799H0.879883C0.68097 14.5799 0.490205 14.6589 0.349553 14.7995C0.2089 14.9402 0.129883 15.1309 0.129883 15.3299C0.129883 15.5288 0.2089 15.7195 0.349553 15.8602C0.490205 16.0008 0.68097 16.0799 0.879883 16.0799H2.99988C3.10052 16.0825 3.20069 16.0651 3.29456 16.0288C3.38843 15.9924 3.47414 15.9377 3.54671 15.868C3.61928 15.7982 3.67726 15.7147 3.71729 15.6223C3.75732 15.5299 3.77859 15.4305 3.77988 15.3299Z" fill="white"/>
<path d="M21.7602 16.9997L21.1902 15.2997C20.9224 14.4748 20.4593 13.7269 19.8402 13.1197L17.7002 10.9997C17.5859 10.8854 17.4503 10.7947 17.301 10.7329C17.1518 10.671 16.9918 10.6392 16.8302 10.6392C16.6686 10.6392 16.5086 10.671 16.3593 10.7329C16.21 10.7947 16.0744 10.8854 15.9602 10.9997L12.0002 13.9997C11.8859 14.1139 11.7952 14.2495 11.7333 14.3988C11.6715 14.5481 11.6396 14.7081 11.6396 14.8697C11.6396 15.0313 11.6715 15.1913 11.7333 15.3405C11.7952 15.4898 11.8859 15.6255 12.0002 15.7397L14.2102 17.9997C14.2561 18.0456 14.2926 18.1002 14.3175 18.1603C14.3423 18.2203 14.3551 18.2847 14.3551 18.3497C14.3551 18.4147 14.3423 18.479 14.3175 18.5391C14.2926 18.5991 14.2561 18.6537 14.2102 18.6997C14.1642 18.7456 14.1096 18.7821 14.0496 18.807C13.9895 18.8318 13.9252 18.8447 13.8602 18.8447C13.7952 18.8447 13.7308 18.8318 13.6707 18.807C13.6107 18.7821 13.5561 18.7456 13.5102 18.6997L12.2402 17.4397C12.0445 17.8446 11.9807 18.3008 12.0579 18.7438C12.135 19.1869 12.3492 19.5947 12.6702 19.9097L13.0702 20.3097C13.4644 20.701 13.9329 21.0096 14.4481 21.2174C14.9632 21.4252 15.5147 21.528 16.0702 21.5197H17.2702L19.4902 23.7297L24.0002 19.2397L21.7602 16.9997Z" fill="white"/>
<path d="M12 8.57984L9.79 6.31984C9.74314 6.27336 9.70594 6.21806 9.68055 6.15713C9.65517 6.0962 9.6421 6.03085 9.6421 5.96484C9.6421 5.89884 9.65517 5.83349 9.68055 5.77256C9.70594 5.71163 9.74314 5.65633 9.79 5.60984C9.83489 5.56201 9.88911 5.52389 9.94931 5.49783C10.0095 5.47177 10.0744 5.45832 10.14 5.45832C10.2056 5.45832 10.2705 5.47177 10.3307 5.49783C10.3909 5.52389 10.4451 5.56201 10.49 5.60984L11.76 6.86984C11.9557 6.46489 12.0194 6.00877 11.9423 5.56568C11.8652 5.12259 11.651 4.71485 11.33 4.39984L10.93 3.99984C10.5344 3.61032 10.0657 3.30287 9.55085 3.09521C9.03599 2.88755 8.48513 2.78377 7.93 2.78984H6.73L4.51 0.589844L0 5.07984L2.24 7.28984L2.81 8.99984C3.08265 9.8224 3.54512 10.5692 4.16 11.1798L6.33 13.3498C6.44423 13.4641 6.57985 13.5548 6.72913 13.6167C6.87841 13.6785 7.03841 13.7104 7.2 13.7104C7.36159 13.7104 7.52159 13.6785 7.67087 13.6167C7.82015 13.5548 7.95577 13.4641 8.07 13.3498L12.02 10.3498C12.1363 10.2331 12.2282 10.0943 12.2903 9.94164C12.3523 9.78896 12.3833 9.62545 12.3815 9.46065C12.3796 9.29585 12.3449 9.13307 12.2794 8.98184C12.2139 8.8306 12.1189 8.69394 12 8.57984Z" fill="white"/>
</g>
<defs>
<clipPath id="clip0_358_19474">
<rect width="24" height="24" fill="white"/>
</clipPath>
</defs>
</svg>
