<svg width="444" height="88" viewBox="0 0 444 88" fill="none" xmlns="http://www.w3.org/2000/svg">
<path d="M414.148 80.8066C397.007 80.8066 387.562 68.4466 387.562 52.5884C387.562 36.7303 397.707 24.2537 414.381 24.2537C422.894 24.2537 429.89 28.568 433.271 35.2144V25.6529H443.299V79.4074H433.271V69.9624C429.89 76.6089 422.194 80.8066 414.148 80.8066ZM415.547 71.7115C427.324 71.7115 433.738 62.9662 433.738 52.5884C433.738 42.2107 427.324 33.3488 415.547 33.3488C404.47 33.3488 397.59 41.5111 397.59 52.5884C397.59 63.5492 404.47 71.7115 415.547 71.7115Z" fill="black"/>
<path d="M375.164 16.4412C370.267 16.4412 366.885 12.8264 366.885 8.27889C366.885 3.73133 370.267 0 375.164 0C379.945 0 383.326 3.73133 383.326 8.27889C383.326 12.8264 379.945 16.4412 375.164 16.4412ZM380.178 79.4073H370.15V25.6529H380.178V79.4073Z" fill="black"/>
<path d="M356.922 71.0119C358.904 71.0119 362.169 70.6621 363.685 70.3122V79.2907C361.703 79.7572 358.088 80.107 354.59 80.107C348.293 80.107 338.149 78.9409 338.149 61.5669V34.165H328.471V25.6529H338.149V8.62872H348.293V25.6529H361.819V34.165H348.293V59.3515C348.293 69.6126 351.792 71.0119 356.922 71.0119Z" fill="black"/>
<path d="M299.695 80.8066C282.204 80.8066 271.71 68.2134 271.71 52.5884C271.71 36.8469 282.204 24.2537 299.695 24.2537C317.069 24.2537 327.68 36.8469 327.68 52.5884C327.68 68.2134 317.069 80.8066 299.695 80.8066ZM299.695 71.7115C311.006 71.7115 317.535 63.316 317.535 52.5884C317.535 41.7443 311.006 33.3488 299.695 33.3488C288.384 33.3488 281.738 41.7443 281.738 52.5884C281.738 63.316 288.384 71.7115 299.695 71.7115Z" fill="black"/>
<path d="M194.981 79.4074H184.836V25.6529H194.981V35.4476C196.963 29.6174 202.444 24.2537 211.072 24.2537C220.517 24.2537 226.231 28.6846 228.213 35.7975C230.545 29.3842 237.192 24.2537 245.587 24.2537C260.046 24.2537 264.943 33.582 264.943 45.359V79.4074H254.799V47.3413C254.799 37.1967 250.368 32.999 243.138 32.999C235.209 32.999 229.962 38.3627 229.962 51.4224V79.4074H219.818V48.1575C219.818 36.4971 214.804 32.999 208.274 32.999C199.995 32.999 194.981 38.8292 194.981 51.4224V79.4074Z" fill="black"/>
<g clip-path="url(#clip0_512_23)">
<path d="M0 64.5723H16.8256C28.579 64.5723 39.7054 59.2697 47.1107 50.1353C54.5114 41.0055 65.6377 35.6982 77.3958 35.6982H92.3954" stroke="black" stroke-width="32.2771" stroke-miterlimit="10"/>
<path d="M63.7104 64.5723H80.536C92.2895 64.5723 103.416 59.2697 110.821 50.1353C118.222 41.0055 129.348 35.6982 141.106 35.6982H156.106" stroke="black" stroke-width="32.2771" stroke-miterlimit="10"/>
<path d="M156.042 48.337H123.765V80.5542H156.042V48.337Z" fill="black"/>
</g>
<defs>
<clipPath id="clip0_512_23">
<rect width="157.24" height="67.8741" fill="white" transform="translate(0 19.5597)"/>
</clipPath>
</defs>
</svg>
