<svg width="1201" height="216" viewBox="0 0 1201 216" fill="none" xmlns="http://www.w3.org/2000/svg">
<path d="M780.104 57.1455C794.671 57.1455 807.838 60.4138 819.604 66.9502C831.369 73.2998 840.613 82.4511 847.336 94.4033C854.246 106.356 857.701 120.269 857.701 136.143C857.701 152.017 854.153 166.024 847.057 178.163C840.147 190.115 830.715 199.359 818.763 205.896C806.81 212.432 793.551 215.7 778.984 215.7C764.604 215.7 751.531 212.432 739.766 205.896C728.187 199.359 719.036 190.115 712.312 178.163C705.776 166.024 702.508 152.017 702.508 136.143C702.508 120.455 705.87 106.636 712.593 94.6836C719.503 82.5446 728.84 73.2999 740.605 66.9502C752.371 60.4138 765.538 57.1455 780.104 57.1455ZM1117.11 57.1455C1130.55 57.1456 1142.22 60.0407 1152.12 65.8301C1162.02 71.6194 1169.4 78.9025 1174.25 87.6797V59.667H1200.02V213.18H1174.25V184.605C1169.21 193.57 1161.65 201.04 1151.56 207.017C1141.66 212.806 1130.08 215.7 1116.83 215.7C1103.19 215.7 1090.87 212.339 1079.85 205.616C1068.83 198.893 1060.14 189.461 1053.79 177.322C1047.45 165.183 1044.27 151.363 1044.27 135.862C1044.27 120.175 1047.45 106.449 1053.79 94.6836C1060.14 82.7313 1068.83 73.4866 1079.85 66.9502C1091.05 60.4138 1103.47 57.1455 1117.11 57.1455ZM610.829 56.8662C622.781 56.8662 633.427 59.3873 642.765 64.4297C652.102 69.2853 659.479 76.6626 664.895 86.5605C670.31 96.4585 673.019 108.504 673.019 122.697V213.181H647.807V126.339C647.807 111.025 643.978 99.3527 636.321 91.3223C628.851 83.1052 618.673 78.9972 605.787 78.9971C592.528 78.9971 581.976 83.2921 574.132 91.8828C566.288 100.287 562.366 112.519 562.366 128.58V213.181H537.154V126.339C537.154 111.025 533.326 99.3527 525.669 91.3223C518.199 83.1052 508.021 78.9972 495.135 78.9971C481.875 78.9971 471.323 83.2921 463.479 91.8828C455.636 100.287 451.714 112.519 451.714 128.58V213.181H426.222V59.668H451.714V81.7979C456.756 73.7676 463.479 67.6049 471.883 63.3096C480.474 59.0142 489.905 56.8662 500.177 56.8662C513.063 56.8662 524.455 59.7614 534.353 65.5508C544.25 71.3401 551.628 79.8368 556.483 91.042C560.779 80.2104 567.876 71.8062 577.773 65.8301C587.671 59.854 598.69 56.8662 610.829 56.8662ZM1013.15 213.181H987.656V59.668H1013.15V213.181ZM919.515 59.667H959.573V80.6768H919.515V171.16C919.515 178.63 921.102 183.953 924.276 187.128C927.451 190.116 932.961 191.609 940.805 191.609H959.573V213.18H936.603C922.409 213.18 911.764 209.911 904.667 203.375C897.57 196.839 894.023 186.1 894.022 171.16V80.6768H874.133V59.667H894.022V21.0088H919.515V59.667ZM235.471 123.434C239.521 120.48 243.161 116.913 246.24 112.807L256.098 99.6641C274.713 74.8436 303.928 60.2363 334.953 60.2363H395.189V212.653H314.874V153.668L297.007 175.876C278.297 199.129 250.057 212.653 220.21 212.653H159.719V148.422C158.814 149.337 157.94 150.29 157.101 151.278C156.81 151.621 156.522 151.969 156.239 152.32L137.288 175.876C118.578 199.129 90.338 212.653 60.4912 212.653H0V133.251H45.6338C61.7209 133.251 76.869 125.677 86.5215 112.807L96.3789 99.6641C114.994 74.8435 144.209 60.2363 175.234 60.2363H235.471V123.434ZM779.824 79.2764C770.487 79.2764 761.895 81.4234 754.052 85.7188C746.395 89.8273 740.232 96.1771 735.563 104.768C730.895 113.358 728.561 123.817 728.561 136.143C728.561 148.655 730.801 159.207 735.283 167.798C739.952 176.389 746.116 182.832 753.772 187.127C761.429 191.235 769.833 193.29 778.984 193.29C788.135 193.29 796.726 191.142 804.756 186.847C812.786 182.551 819.229 176.108 824.085 167.518C829.127 158.927 831.649 148.468 831.649 136.143C831.649 123.817 829.221 113.358 824.365 104.768C819.51 96.1771 813.16 89.8273 805.316 85.7188C797.473 81.4234 788.975 79.2764 779.824 79.2764ZM1122.15 79.2764C1112.62 79.2764 1103.94 81.5169 1096.09 85.999C1088.25 90.4811 1082 97.0178 1077.33 105.608C1072.66 114.199 1070.32 124.284 1070.32 135.862C1070.32 147.628 1072.66 157.9 1077.33 166.678C1081.99 175.268 1088.25 181.898 1096.09 186.566C1103.94 191.049 1112.62 193.29 1122.15 193.29C1131.67 193.29 1140.36 191.049 1148.2 186.566C1156.23 181.898 1162.58 175.268 1167.25 166.678C1171.92 157.9 1174.25 147.721 1174.25 136.143C1174.25 124.564 1171.92 114.479 1167.25 105.889C1162.58 97.2981 1156.23 90.7614 1148.2 86.2793C1140.36 81.6104 1131.67 79.2764 1122.15 79.2764ZM1000.82 0C1005.49 0 1009.41 1.68054 1012.59 5.04199C1015.95 8.40357 1017.63 12.5126 1017.63 17.3682C1017.63 22.2238 1015.95 26.3327 1012.59 29.6943C1009.41 33.0558 1005.49 34.7363 1000.82 34.7363C995.967 34.7363 991.858 33.0559 988.496 29.6943C985.135 26.3328 983.454 22.2238 983.454 17.3682C983.454 12.5126 985.135 8.40357 988.496 5.04199C991.858 1.68042 995.967 1.37899e-05 1000.82 0Z" fill="white"/>
</svg>
