<?xml version="1.0" encoding="UTF-8"?>
<svg id="Camada_1" data-name="Camada 1" xmlns="http://www.w3.org/2000/svg" viewBox="0 0 617.34 135.46">
  <defs>
    <style>
      .cls-1 {
        fill: #f0f0f0;
      }
    </style>
  </defs>
  <g>
    <path class="cls-1" d="M115.92,1.42V0h27.36c10.08,0,18.24,8.15,18.24,18.24v98.99c0,10.07-8.15,18.24-18.24,18.24h-18.24V15.63c0-3.14-.92-6.07-2.52-8.51-1.61-2.48-3.9-4.46-6.61-5.7Z"/>
    <path class="cls-1" d="M78.11,89.31l10.23,14.62,3.56,5.08,14.24,20.34.03.04c.12.2.25.4.39.59.09.13.18.25.28.37h0c2.54,3.33,6.41,5.11,10.34,5.11h20.7l-7.83-11.17-10.22-14.59-18.06-25.8-.24-.35c-2.77-3.84-7.3-5.75-11.74-5.34-2.11.19-4.21.9-6.09,2.17-3.17,2.14-5.09,5.42-5.61,8.93Z"/>
    <path class="cls-1" d="M91.17,78.15l-7.83,11.17-10.22,14.59-10.63,15.18-7.43,10.61-.09.13c-.91.27-1.88.41-2.87.41-5.75,0-10.42-4.67-10.42-10.42v-10.24l3.5-4.99.28-.4,13.96-19.94.03-.04c.12-.2.25-.4.39-.59.09-.13.18-.25.28-.37h0c2.54-3.33,6.41-5.11,10.34-5.11h20.7Z"/>
    <path class="cls-1" d="M45.59,134.04v1.42h-27.36c-10.08,0-18.24-8.15-18.24-18.24V18.23C0,8.16,8.15,0,18.24,0h18.24v119.83c0,3.14.92,6.07,2.52,8.51,1.61,2.48,3.9,4.46,6.61,5.7Z"/>
    <path class="cls-1" d="M83.4,46.15l-10.23-14.62-3.56-5.08-14.24-20.34-.03-.04c-.12-.2-.25-.4-.39-.59-.09-.13-.18-.25-.28-.37h0C52.11,1.77,48.23,0,44.31,0h-20.7l7.83,11.17,10.22,14.59,18.06,25.8.24.35c2.77,3.84,7.3,5.75,11.74,5.34,2.11-.19,4.21-.9,6.09-2.17,3.17-2.14,5.09-5.42,5.61-8.93Z"/>
    <path class="cls-1" d="M70.34,57.31l7.83-11.17,10.22-14.59,10.63-15.18,7.43-10.61.09-.13c.91-.27,1.88-.41,2.87-.41,5.75,0,10.42,4.67,10.42,10.42v10.24l-3.5,4.99-.28.4-13.96,19.94-.03.04c-.12.2-.25.4-.39.59-.09.13-.18.25-.28.37h0c-2.54,3.33-6.41,5.11-10.34,5.11h-20.7Z"/>
  </g>
  <g>
    <path class="cls-1" d="M206.66,11.29h24.21l37.14,63.97,37.14-63.97h24.05v112.88h-19.47V39.59l-36.32,62.82h-11.12l-36.16-62.82v84.58h-19.47V11.29Z"/>
    <path class="cls-1" d="M342.15,82.46c0-24.87,19.14-43.68,44.66-43.68s44.66,18.81,44.66,43.68-19.3,43.68-44.66,43.68-44.66-18.81-44.66-43.68ZM412.5,82.46c0-14.72-10.96-26.01-25.68-26.01s-25.85,11.29-25.85,26.01,11.12,26.01,25.85,26.01,25.68-11.29,25.68-26.01Z"/>
    <path class="cls-1" d="M446.88,98.49v-41.06h-14.07v-16.69h8.51c4.25,0,6.54-2.29,6.54-6.54v-16.03h17.34v22.58h20.61v16.69h-20.61v38.12c0,7.36,4.58,11.78,12.27,11.78h8.34v16.85h-10.96c-18.16,0-27.98-9.16-27.98-25.68Z"/>
    <path class="cls-1" d="M496.69,15.71c0-6.71,5.07-11.62,11.62-11.62s11.78,4.91,11.78,11.62-5.07,11.62-11.78,11.62-11.62-5.07-11.62-11.62ZM499.15,40.74h18.32v83.43h-18.32V40.74Z"/>
    <path class="cls-1" d="M528.67,82.46c0-24.87,17.5-43.68,41.06-43.68,12.27,0,22.41,5.24,29.28,13.91v-11.94h18.32v83.43h-18.32v-11.94c-6.87,8.67-17.01,13.91-29.28,13.91-23.56,0-41.06-18.81-41.06-43.68ZM599.02,82.46c0-14.72-10.96-26.01-25.68-26.01s-25.85,11.29-25.85,26.01,10.96,26.01,25.85,26.01,25.68-11.29,25.68-26.01Z"/>
  </g>
</svg>